<svg width="24" height="24" viewBox="0 0 24 24" fill="none" xmlns="http://www.w3.org/2000/svg">
<path d="M20.7877 24H3.21231C2.36035 24 1.54329 23.6616 0.940863 23.0591C0.338439 22.4567 0 21.6396 0 20.7877V3.21231C0 2.36035 0.338439 1.54329 0.940863 0.940863C1.54329 0.338439 2.36035 0 3.21231 0H20.7877C21.6396 0 22.4567 0.338439 23.0591 0.940863C23.6616 1.54329 24 2.36035 24 3.21231V20.7877C24 21.6396 23.6616 22.4567 23.0591 23.0591C22.4567 23.6616 21.6396 24 20.7877 24ZM3.21231 1.84615C2.84998 1.84615 2.50249 1.99009 2.24629 2.24629C1.99009 2.50249 1.84615 2.84998 1.84615 3.21231V20.7877C1.84615 21.15 1.99009 21.4975 2.24629 21.7537C2.50249 22.0099 2.84998 22.1538 3.21231 22.1538H20.7877C21.15 22.1538 21.4975 22.0099 21.7537 21.7537C22.0099 21.4975 22.1538 21.15 22.1538 20.7877V3.21231C22.1538 2.84998 22.0099 2.50249 21.7537 2.24629C21.4975 1.99009 21.15 1.84615 20.7877 1.84615H3.21231Z" fill="black"/>
<path d="M0.922994 20.3815C0.790033 20.3811 0.658688 20.3523 0.537717 20.2972C0.416746 20.242 0.30893 20.1616 0.221455 20.0615C0.142724 19.9687 0.0831132 19.8613 0.0460525 19.7454C0.00899172 19.6295 -0.00478787 19.5074 0.00550665 19.3862C0.0158012 19.2649 0.0499666 19.1469 0.106037 19.0389C0.162108 18.9309 0.238978 18.8351 0.332225 18.7569L6.63376 13.44C7.10425 13.0429 7.70647 12.8365 8.32162 12.8616C8.93678 12.8866 9.52021 13.1413 9.95684 13.5754L12.9476 16.5661C13.0591 16.6615 13.2009 16.7139 13.3476 16.7139C13.4943 16.7139 13.6361 16.6615 13.7476 16.5661L16.6522 14.4615C17.0826 14.1302 17.6106 13.9505 18.1538 13.9505C18.6969 13.9505 19.2249 14.1302 19.6553 14.4615L23.6553 17.6492C23.7507 17.7252 23.8301 17.8192 23.8892 17.9258C23.9482 18.0325 23.9856 18.1498 23.9993 18.2709C24.0131 18.3921 24.0028 18.5147 23.9691 18.6319C23.9354 18.7491 23.879 18.8585 23.803 18.9538C23.727 19.0492 23.633 19.1286 23.5264 19.1877C23.4197 19.2467 23.3024 19.2841 23.1813 19.2979C23.0601 19.3116 22.9375 19.3013 22.8203 19.2676C22.7031 19.2339 22.5937 19.1775 22.4984 19.1015L18.5107 15.9015C18.4031 15.8187 18.2711 15.7738 18.1353 15.7738C17.9995 15.7738 17.8675 15.8187 17.7599 15.9015L14.8553 18.1538C14.3825 18.5088 13.7977 18.6818 13.2079 18.6411C12.6181 18.6005 12.0626 18.3488 11.643 17.9323L8.65222 14.88C8.53915 14.7779 8.39224 14.7214 8.23992 14.7214C8.08759 14.7214 7.94069 14.7779 7.82761 14.88L1.51376 20.1723C1.3489 20.3117 1.13883 20.3861 0.922994 20.3815Z" fill="black"/>
<path d="M15.6924 11.6923C15.0229 11.6923 14.3686 11.4938 13.812 11.1219C13.2554 10.75 12.8216 10.2214 12.5654 9.60293C12.3092 8.98447 12.2422 8.30394 12.3728 7.64739C12.5034 6.99084 12.8257 6.38776 13.2991 5.91441C13.7724 5.44106 14.3755 5.11871 15.0321 4.98811C15.6886 4.85752 16.3691 4.92454 16.9876 5.18072C17.6061 5.43689 18.1347 5.8707 18.5066 6.4273C18.8785 6.9839 19.077 7.63828 19.077 8.30769C19.077 9.20535 18.7204 10.0662 18.0856 10.701C17.4509 11.3357 16.59 11.6923 15.6924 11.6923ZM15.6924 6.76923C15.3881 6.76923 15.0906 6.85946 14.8376 7.02851C14.5846 7.19756 14.3874 7.43783 14.271 7.71895C14.1546 8.00007 14.1241 8.3094 14.1835 8.60783C14.2428 8.90626 14.3893 9.18039 14.6045 9.39555C14.8197 9.61071 15.0938 9.75723 15.3922 9.81659C15.6906 9.87596 16 9.84549 16.2811 9.72905C16.5622 9.6126 16.8025 9.41541 16.9715 9.16242C17.1406 8.90942 17.2308 8.61197 17.2308 8.30769C17.2308 7.89967 17.0687 7.50835 16.7802 7.21984C16.4917 6.93132 16.1004 6.76923 15.6924 6.76923Z" fill="black"/>
</svg>
