<svg width="57" height="57" viewBox="0 0 57 57" fill="none" xmlns="http://www.w3.org/2000/svg">
<circle cx="28.5" cy="28.5" r="28.5" fill="#F1FFF9"/>
<g clip-path="url(#clip0_84_2782)">
<path d="M53.959 4.61295C53.8832 3.22265 52.7775 2.11708 51.3872 2.0412C48.5819 1.88794 43.0923 2.03703 37.8431 4.75206C35.1672 6.1362 32.3371 8.48291 30.0786 11.1905C30.0508 11.2238 30.0237 11.2574 29.9961 11.2908L24.8705 11.6868C24.0268 11.752 23.2753 12.1942 22.8087 12.8999L19.3119 18.189C18.958 18.7243 18.9017 19.3942 19.1613 19.9809C19.4209 20.5677 19.9544 20.9766 20.5884 21.0748L24.9067 21.7437C24.8915 21.8276 24.8762 21.9115 24.8622 21.9954C24.7184 22.8554 25.0033 23.7396 25.6244 24.3606L31.6395 30.3757C32.1545 30.8907 32.8503 31.1746 33.5633 31.1746C33.7101 31.1746 33.8578 31.1625 34.0048 31.138C34.0887 31.1239 34.1726 31.1086 34.2565 31.0934L34.9254 35.4118C35.0236 36.0458 35.4325 36.5794 36.0192 36.8389C36.2633 36.9469 36.5216 37.0003 36.7788 37.0003C37.1399 37.0002 37.4985 36.895 37.8111 36.6884L43.1002 33.1915C43.806 32.7248 44.2481 31.9733 44.3132 31.1297L44.7092 26.0042C44.7426 25.9765 44.7762 25.9495 44.8096 25.9217C47.5172 23.6631 49.864 20.8331 51.2481 18.1571C53.9632 12.9077 54.1121 7.41807 53.959 4.61295ZM41.9692 31.4807L36.9098 34.8257L36.258 30.6172C38.3962 29.9885 40.5115 28.9816 42.5266 27.6326L42.2687 30.9716C42.2527 31.1799 42.1434 31.3655 41.9692 31.4807ZM33.0896 28.9256L27.0745 22.9105C26.921 22.757 26.8501 22.5413 26.8849 22.3335C27.0637 21.2642 27.3416 20.2463 27.6856 19.2873L36.7109 28.3127C35.5592 28.7252 34.5276 28.9713 33.6666 29.1153C33.4585 29.1499 33.2431 29.0791 33.0896 28.9256ZM25.0285 13.7315L28.3674 13.4736C27.0184 15.4887 26.0115 17.604 25.3828 19.7422L21.1743 19.0904L24.5194 14.031C24.6347 13.8567 24.8203 13.7475 25.0285 13.7315ZM43.4961 24.3467C41.8396 25.7285 40.2315 26.7279 38.7494 27.4511L28.5487 17.2504C29.4961 15.3156 30.6522 13.7044 31.6534 12.5041C33.7435 9.99843 36.343 7.83684 38.7854 6.57356C43.603 4.08166 48.6787 3.94747 51.2756 4.08883C51.6193 4.10756 51.8926 4.38093 51.9114 4.72471C52.0529 7.32155 51.9185 12.3972 49.4266 17.2149C48.1634 19.6572 46.0018 22.2566 43.4961 24.3467Z" fill="#51AB86"/>
<path d="M42.9754 18.1494C44.2881 18.1493 45.6013 17.6496 46.6006 16.6502C47.569 15.6819 48.1022 14.3944 48.1022 13.0251C48.1022 11.6557 47.5689 10.3682 46.6006 9.39989C44.6017 7.40086 41.3491 7.40099 39.3503 9.39989C38.3819 10.3682 37.8486 11.6557 37.8486 13.0251C37.8486 14.3944 38.382 15.6819 39.3503 16.6502C40.3498 17.6498 41.6623 18.1495 42.9754 18.1494ZM40.8003 10.8499C41.3999 10.2502 42.1876 9.95039 42.9753 9.95039C43.7631 9.95039 44.5508 10.2502 45.1504 10.8499C45.7314 11.4309 46.0513 12.2034 46.0513 13.025C46.0513 13.8466 45.7314 14.6191 45.1504 15.2001C43.9511 16.3995 41.9996 16.3994 40.8002 15.2001C40.2192 14.6191 39.8992 13.8467 39.8992 13.0251C39.8992 12.2034 40.2193 11.4309 40.8003 10.8499Z" fill="#51AB86"/>
<path d="M20.0459 30.8434C20.3083 30.8434 20.5707 30.7433 20.7709 30.543L24.1186 27.1953C24.5191 26.7948 24.5191 26.1456 24.1186 25.7452C23.7183 25.3447 23.069 25.3447 22.6685 25.7452L19.3208 29.0929C18.9204 29.4934 18.9204 30.1426 19.3208 30.543C19.521 30.7433 19.7834 30.8434 20.0459 30.8434Z" fill="#51AB86"/>
<path d="M27.1868 28.8132C26.7864 28.4128 26.1371 28.4128 25.7366 28.8132L19.3003 35.2496C18.8999 35.65 18.8999 36.2993 19.3003 36.6997C19.5006 36.8999 19.7629 37 20.0254 37C20.2878 37 20.5502 36.8999 20.7504 36.6996L27.1867 30.2633C27.5872 29.8629 27.5872 29.2137 27.1868 28.8132Z" fill="#51AB86"/>
<path d="M28.8044 31.8813L25.4566 35.229C25.0561 35.6295 25.0561 36.2787 25.4566 36.6791C25.6568 36.8794 25.9192 36.9795 26.1816 36.9795C26.444 36.9795 26.7065 36.8794 26.9066 36.6791L30.2544 33.3314C30.6548 32.9309 30.6548 32.2817 30.2544 31.8813C29.854 31.4808 29.2047 31.4808 28.8044 31.8813Z" fill="#51AB86"/>
</g>
<defs>
<clipPath id="clip0_84_2782">
<rect width="35" height="35" fill="white" transform="translate(19 2)"/>
</clipPath>
</defs>
</svg>
