<svg width="26" height="26" viewBox="0 0 26 26" fill="none" xmlns="http://www.w3.org/2000/svg">
<circle cx="13" cy="13" r="12.5" fill="white" stroke="#B2B3B5"/>
<path d="M16.5 10.5C16.3674 10.5 16.2402 10.5527 16.1464 10.6464C16.0527 10.7402 16 10.8674 16 11V16.5955C15.9857 16.8483 15.872 17.0853 15.6837 17.2547C15.4955 17.4241 15.248 17.5123 14.995 17.5H11.005C10.752 17.5123 10.5045 17.4241 10.3163 17.2547C10.128 17.0853 10.0143 16.8483 10 16.5955V11C10 10.8674 9.94732 10.7402 9.85355 10.6464C9.75979 10.5527 9.63261 10.5 9.5 10.5C9.36739 10.5 9.24021 10.5527 9.14645 10.6464C9.05268 10.7402 9 10.8674 9 11V16.5955C9.01427 17.1136 9.23329 17.605 9.60909 17.9619C9.98489 18.3189 10.4868 18.5124 11.005 18.5H14.995C15.5132 18.5124 16.0151 18.3189 16.3909 17.9619C16.7667 17.605 16.9857 17.1136 17 16.5955V11C17 10.8674 16.9473 10.7402 16.8536 10.6464C16.7598 10.5527 16.6326 10.5 16.5 10.5Z" fill="#B2B3B5"/>
<path d="M17 9H15V8C15 7.86739 14.9473 7.74021 14.8536 7.64645C14.7598 7.55268 14.6326 7.5 14.5 7.5H11.5C11.3674 7.5 11.2402 7.55268 11.1464 7.64645C11.0527 7.74021 11 7.86739 11 8V9H9C8.86739 9 8.74021 9.05268 8.64645 9.14645C8.55268 9.24021 8.5 9.36739 8.5 9.5C8.5 9.63261 8.55268 9.75979 8.64645 9.85355C8.74021 9.94732 8.86739 10 9 10H17C17.1326 10 17.2598 9.94732 17.3536 9.85355C17.4473 9.75979 17.5 9.63261 17.5 9.5C17.5 9.36739 17.4473 9.24021 17.3536 9.14645C17.2598 9.05268 17.1326 9 17 9ZM12 9V8.5H14V9H12Z" fill="#B2B3B5"/>
<path d="M12.5 15.5V12C12.5 11.8674 12.4473 11.7402 12.3536 11.6464C12.2598 11.5527 12.1326 11.5 12 11.5C11.8674 11.5 11.7402 11.5527 11.6464 11.6464C11.5527 11.7402 11.5 11.8674 11.5 12V15.5C11.5 15.6326 11.5527 15.7598 11.6464 15.8536C11.7402 15.9473 11.8674 16 12 16C12.1326 16 12.2598 15.9473 12.3536 15.8536C12.4473 15.7598 12.5 15.6326 12.5 15.5Z" fill="#B2B3B5"/>
<path d="M14.5 15.5V12C14.5 11.8674 14.4473 11.7402 14.3536 11.6464C14.2598 11.5527 14.1326 11.5 14 11.5C13.8674 11.5 13.7402 11.5527 13.6464 11.6464C13.5527 11.7402 13.5 11.8674 13.5 12V15.5C13.5 15.6326 13.5527 15.7598 13.6464 15.8536C13.7402 15.9473 13.8674 16 14 16C14.1326 16 14.2598 15.9473 14.3536 15.8536C14.4473 15.7598 14.5 15.6326 14.5 15.5Z" fill="#B2B3B5"/>
</svg>
