<svg width="26" height="26" viewBox="0 0 26 26" fill="none" xmlns="http://www.w3.org/2000/svg">
<circle cx="13" cy="13" r="12.5" fill="white" stroke="#B2B3B5"/>
<g clip-path="url(#clip0_63_1637)">
<path d="M9.64032 16.591C9.74532 16.591 9.76632 16.5805 9.86082 16.5595L11.7508 16.1815C11.9503 16.129 12.1498 16.0345 12.3073 15.877L16.8853 11.299C17.5888 10.5955 17.5888 9.388 16.8853 8.6845L16.4968 8.275C15.7933 7.5715 14.5753 7.5715 13.8718 8.275L9.29382 12.8635C9.14682 13.0105 9.04182 13.2205 8.98932 13.42L8.59032 15.331C8.53782 15.688 8.64282 16.0345 8.89482 16.2865C9.09432 16.486 9.38832 16.591 9.64032 16.591ZM9.99732 13.6195L14.5753 9.031C14.8798 8.7265 15.4363 8.7265 15.7303 9.031L16.1293 9.43C16.4863 9.787 16.4863 10.291 16.1293 10.6375L11.5618 15.226L9.61932 15.5515L9.99732 13.6195Z" fill="#B2B3B5"/>
<path d="M16.8428 17.242H9.09384C8.78934 17.242 8.58984 17.4415 8.58984 17.746C8.58984 18.0505 8.84184 18.25 9.09384 18.25H16.8008C17.1053 18.25 17.3573 18.0505 17.3573 17.746C17.3468 17.4415 17.0948 17.242 16.8428 17.242Z" fill="#B2B3B5"/>
</g>
<defs>
<clipPath id="clip0_63_1637">
<rect width="10.5" height="10.5" fill="white" transform="translate(7.75 7.75)"/>
</clipPath>
</defs>
</svg>
