<svg width="18" height="24" viewBox="0 0 18 24" fill="none" xmlns="http://www.w3.org/2000/svg">
<path d="M0.764038 2.20972L0.764038 21.7903C0.764038 23.0087 1.75538 24 2.97376 24H15.0262C16.2445 24 17.2359 23.0087 17.2359 21.7903V2.20972C17.2359 0.991335 16.2445 0 15.0262 0H2.97376C1.75528 0 0.764038 0.991335 0.764038 2.20972ZM15.0262 1.38108C15.483 1.38108 15.8548 1.75277 15.8548 2.20972L15.8548 21.7903C15.8548 22.2472 15.483 22.6189 15.0262 22.6189H2.97376C2.5169 22.6189 2.14512 22.2472 2.14512 21.7903L2.14512 2.20972C2.14512 1.75277 2.5169 1.38108 2.97376 1.38108H15.0262Z" fill="black"/>
<path d="M4.70667 14.3288V20.6756C4.70667 20.9807 4.95406 21.228 5.2591 21.228C5.56413 21.228 5.81153 20.9807 5.81153 20.6756V14.3288C5.81153 14.0236 5.56413 13.7763 5.2591 13.7763C4.95406 13.7763 4.70667 14.0236 4.70667 14.3288Z" fill="black"/>
<path d="M12.1884 14.3694V20.7162C12.1884 21.0213 12.4357 21.2686 12.7408 21.2686C13.0458 21.2686 13.2932 21.0213 13.2932 20.7162V14.3694C13.2932 14.0642 13.0458 13.8169 12.7408 13.8169C12.4357 13.8169 12.1884 14.0642 12.1884 14.3694Z" fill="black"/>
<path d="M7.90222 14.3288V18.1698C7.90222 18.4749 8.14962 18.7223 8.45465 18.7223C8.75969 18.7223 9.00708 18.4749 9.00708 18.1698V14.3288C9.00708 14.0236 8.75969 13.7763 8.45465 13.7763C8.14962 13.7763 7.90222 14.0236 7.90222 14.3288Z" fill="black"/>
<path d="M10.0453 14.3288V18.1698C10.0453 18.4749 10.2927 18.7223 10.5977 18.7223C10.9028 18.7223 11.1502 18.4749 11.1502 18.1698V14.3288C11.1502 14.0236 10.9028 13.7763 10.5977 13.7763C10.2927 13.7763 10.0453 14.0236 10.0453 14.3288Z" fill="black"/>
<path d="M4.70667 7.86027C4.70667 10.2275 6.63253 12.1535 8.99988 12.1535C11.3672 12.1535 13.2933 10.2275 13.2933 7.86027C13.2933 7.55523 13.0459 7.30783 12.7409 7.30783C12.4357 7.30783 12.1884 7.55523 12.1884 7.86027C12.1884 9.61838 10.7581 11.0486 8.99988 11.0486C7.24186 11.0486 5.81153 9.61838 5.81153 7.86027C5.81153 6.10215 7.24186 4.67191 8.99988 4.67191H9.93533C10.1464 4.67191 10.318 4.84362 10.318 5.05474C10.318 5.26577 10.1464 5.43749 9.93533 5.43749H8.99988C7.66392 5.43749 6.5771 6.5243 6.5771 7.86017C6.5771 9.19614 7.66401 10.283 8.99988 10.283C10.3359 10.283 11.4228 9.19604 11.4228 7.86017C11.4228 7.2444 11.1916 6.68184 10.8117 6.25407C11.1813 5.9832 11.4228 5.54714 11.4228 5.05474C11.4228 4.23438 10.7556 3.56705 9.93533 3.56705H8.99988C6.63262 3.56705 4.70667 5.49301 4.70667 7.86027ZM10.318 7.86027C10.318 8.58699 9.7267 9.17818 8.99988 9.17818C8.27316 9.17818 7.68197 8.5869 7.68197 7.86027C7.68197 7.13354 8.27316 6.54244 8.99988 6.54244C9.7267 6.54244 10.318 7.13363 10.318 7.86027Z" fill="black"/>
</svg>
