<svg width="20" height="14" viewBox="0 0 20 14" fill="none" xmlns="http://www.w3.org/2000/svg">
<path d="M0.626788 2.3791C0.620694 2.10203 0.701013 1.82994 0.856703 1.60067C1.01239 1.37139 1.23576 1.19632 1.49554 1.0998C1.75533 1.00328 2.0387 0.990093 2.30632 1.06208C2.57395 1.13407 2.81238 1.28766 2.98868 1.50149L9.97826 9.66035L16.9654 1.50149C17.0741 1.35357 17.2121 1.2297 17.3709 1.13762C17.5297 1.04554 17.7059 0.987241 17.8883 0.966375C18.0706 0.94551 18.2553 0.962526 18.4308 1.01636C18.6063 1.07019 18.7689 1.15968 18.9082 1.27922C19.0475 1.39876 19.1605 1.54578 19.2404 1.71107C19.3202 1.87636 19.3651 2.05635 19.3722 2.23979C19.3793 2.42322 19.3485 2.60614 19.2816 2.77709C19.2147 2.94804 19.1132 3.10334 18.9835 3.23326L10.9913 12.5744C10.8661 12.7211 10.7107 12.8389 10.5356 12.9197C10.3605 13.0004 10.1699 13.0423 9.97703 13.0423C9.78418 13.0423 9.59358 13.0004 9.41846 12.9197C9.24335 12.8389 9.08782 12.7211 8.96263 12.5744L0.962664 3.23326C0.753067 2.99729 0.633906 2.69463 0.62648 2.3791H0.626788Z" fill="#191C21"/>
</svg>
