<svg id="Layer_1" data-name="Layer 1" xmlns="http://www.w3.org/2000/svg" viewBox="0 0 22 24"><path d="M11,24a3.76,3.76,0,0,1-3.75-3.75.75.75,0,0,1,1.5,0,2.25,2.25,0,0,0,4.5,0,.75.75,0,0,1,1.5,0A3.75,3.75,0,0,1,11,24Z" transform="translate(-0.98 0)" style="fill:#191c21"/><path d="M19.23,21H2.73A1.75,1.75,0,0,1,1.6,17.92l.08-.06A6.73,6.73,0,0,0,4,12.79V10a7,7,0,0,1,7-7,2.8,2.8,0,0,1,.5,0,.75.75,0,0,1-.25,1.48H11A5.51,5.51,0,0,0,5.48,10v2.79a8.2,8.2,0,0,1-2.9,6.27l0,0a.26.26,0,0,0-.06.16.25.25,0,0,0,.25.25h16.5a.25.25,0,0,0,.25-.25.25.25,0,0,0-.05-.16l0,0a8.2,8.2,0,0,1-2.91-6.27V11.7a.75.75,0,0,1,1.5,0v1.09a6.72,6.72,0,0,0,2.32,5.07l.07.06A1.75,1.75,0,0,1,19.23,21Z" transform="translate(-0.98 0)" style="fill:#191c21"/><path d="M18,10a5,5,0,1,1,5-5A5,5,0,0,1,18,10Z" transform="translate(-0.98 0)" style="fill:#f6ca66"/></svg>