<svg width="21" height="24" viewBox="0 0 21 24" fill="none" xmlns="http://www.w3.org/2000/svg">
<path d="M10.0867 24C9.97497 24.0005 9.86432 23.9787 9.76117 23.9359C9.65802 23.8931 9.56446 23.8301 9.48599 23.7507L2.958 17.2227C1.54631 15.8124 0.584619 14.0152 0.194579 12.0583C-0.195461 10.1014 0.00368036 8.07276 0.766809 6.22906C1.52994 4.38536 2.82276 2.80943 4.48173 1.70063C6.1407 0.591834 8.09126 0 10.0867 0C12.082 0 14.0326 0.591834 15.6916 1.70063C17.3505 2.80943 18.6434 4.38536 19.4065 6.22906C20.1696 8.07276 20.3688 10.1014 19.9787 12.0583C19.5887 14.0152 18.627 15.8124 17.2153 17.2227L10.6873 23.7507C10.6088 23.8301 10.5153 23.8931 10.4121 23.9359C10.309 23.9787 10.1983 24.0005 10.0867 24ZM10.0867 1.70736C8.42878 1.70852 6.80845 2.20102 5.43035 3.12264C4.05225 4.04425 2.97822 5.35364 2.34394 6.88537C1.70965 8.41711 1.54358 10.1025 1.8667 11.7286C2.18981 13.3546 2.98762 14.8485 4.15933 16.0213L10.0867 21.9487L16.014 16.0213C17.1857 14.8485 17.9835 13.3546 18.3066 11.7286C18.6297 10.1025 18.4637 8.41711 17.8294 6.88537C17.1951 5.35364 16.1211 4.04425 14.743 3.12264C13.3649 2.20102 11.7445 1.70852 10.0867 1.70736Z" fill="black"/>
<path d="M10.0867 13.834C9.2461 13.834 8.4244 13.5847 7.7255 13.1177C7.02659 12.6507 6.48186 11.987 6.16018 11.2104C5.83851 10.4338 5.75435 9.57928 5.91833 8.75486C6.08232 7.93044 6.48709 7.17317 7.08147 6.5788C7.67584 5.98442 8.43312 5.57965 9.25753 5.41566C10.082 5.25168 10.9365 5.33584 11.7131 5.65751C12.4897 5.97918 13.1534 6.52392 13.6204 7.22282C14.0874 7.92173 14.3367 8.74342 14.3367 9.58399C14.3367 10.7112 13.8889 11.7922 13.0919 12.5892C12.2948 13.3862 11.2138 13.834 10.0867 13.834ZM10.0867 7.034C9.58232 7.034 9.08931 7.18355 8.66996 7.46375C8.25062 7.74395 7.92378 8.1422 7.73078 8.60815C7.53777 9.0741 7.48727 9.58682 7.58567 10.0815C7.68406 10.5761 7.92692 11.0305 8.28355 11.3871C8.64017 11.7437 9.09453 11.9866 9.58919 12.085C10.0838 12.1834 10.5966 12.1329 11.0625 11.9399C11.5285 11.7469 11.9267 11.42 12.2069 11.0007C12.4871 10.5814 12.6367 10.0883 12.6367 9.58399C12.6367 8.90769 12.368 8.25909 11.8898 7.78087C11.4116 7.30266 10.763 7.034 10.0867 7.034Z" fill="black"/>
</svg>
