<svg width="24" height="24" viewBox="0 0 24 24" fill="none" xmlns="http://www.w3.org/2000/svg">
<path d="M21.2004 2.4H2.80035C2.57934 2.4 2.40039 2.57894 2.40039 2.79996V21.1999C2.40039 21.4209 2.57934 21.5999 2.80035 21.5999H21.2003C21.4213 21.5999 21.6003 21.4209 21.6003 21.1999V2.79996C21.6004 2.57906 21.4214 2.4 21.2004 2.4ZM20.8005 20.8H20.8004H3.20043V3.20004H20.8005V20.8Z" fill="#191C21"/>
<path d="M2.80035 0C2.57934 0 2.40039 0.178945 2.40039 0.399961V1.59996C2.40039 1.82098 2.57934 1.99992 2.80035 1.99992C3.02137 1.99992 3.20031 1.82098 3.20031 1.59996V0.400078C3.20043 0.178945 3.02137 0 2.80035 0Z" fill="#191C21"/>
<path d="M1.59996 2.4H0.399961C0.178945 2.4 0 2.57906 0 2.79996C0 3.02086 0.178945 3.19992 0.399961 3.19992H1.59996C1.82098 3.19992 1.99992 3.02098 1.99992 2.79996C1.99992 2.57894 1.82098 2.4 1.59996 2.4Z" fill="#191C21"/>
<path d="M1.59996 20.8H0.399961C0.178945 20.8 0 20.9789 0 21.1999C0 21.4209 0.178945 21.5999 0.399961 21.5999H1.59996C1.82098 21.5999 1.99992 21.4209 1.99992 21.1999C1.99992 20.9789 1.82098 20.8 1.59996 20.8Z" fill="#191C21"/>
<path d="M2.80035 22C2.57934 22 2.40039 22.179 2.40039 22.3999V23.5999C2.40039 23.8209 2.57934 23.9999 2.80035 23.9999C3.02137 23.9999 3.20031 23.8209 3.20031 23.5999V22.3999C3.20043 22.179 3.02137 22 2.80035 22Z" fill="#191C21"/>
<path d="M21.1998 22C20.9787 22 20.7998 22.179 20.7998 22.3999V23.5999C20.7998 23.8209 20.9787 23.9999 21.1998 23.9999C21.4208 23.9999 21.5997 23.8209 21.5997 23.5999V22.3999C21.5997 22.179 21.4208 22 21.1998 22Z" fill="#191C21"/>
<path d="M23.6 20.8H22.4C22.1789 20.8 22 20.9789 22 21.1999C22 21.4209 22.1791 21.5999 22.4 21.5999H23.6C23.821 21.5999 23.9999 21.4209 23.9999 21.1999C23.9999 20.9789 23.821 20.8 23.6 20.8Z" fill="#191C21"/>
<path d="M23.6 2.4H22.4C22.1789 2.4 22 2.57894 22 2.79996C22 3.02098 22.1791 3.19992 22.4 3.19992H23.6C23.821 3.19992 23.9999 3.02098 23.9999 2.79996C23.9999 2.57894 23.821 2.4 23.6 2.4Z" fill="#191C21"/>
<path d="M21.1998 0C20.9787 0 20.7998 0.178945 20.7998 0.399961V1.59996C20.7998 1.82098 20.9787 1.99992 21.1998 1.99992C21.4208 1.99992 21.5997 1.82098 21.5997 1.59996V0.400078C21.5997 0.178945 21.4208 0 21.1998 0Z" fill="#191C21"/>
</svg>
