<svg width="24" height="24" viewBox="0 0 24 24" fill="none" xmlns="http://www.w3.org/2000/svg">
<g clip-path="url(#clip0_62_1607)">
<path d="M22.4689 11.7887V4.24528C22.4689 2.41041 20.9761 0.917672 19.1413 0.917672H4.76306C2.92819 0.917672 1.43545 2.41045 1.43545 4.24528V11.886C0.546703 12.8152 0 14.0741 0 15.4583V21.1781C0 22.2281 0.854203 23.0823 1.9042 23.0823C2.95416 23.0823 3.80836 22.2281 3.80836 21.1781V20.5874H20.1917V21.1781C20.1917 22.2281 21.0459 23.0823 22.0958 23.0823C23.1458 23.0823 24 22.2281 24 21.1781V15.4583C24 14.0251 23.4139 12.7263 22.4689 11.7887ZM4.76306 1.85517H19.1413C20.4592 1.85517 21.5314 2.92739 21.5314 4.24528V11.0509C21.2443 10.8742 20.9387 10.7246 20.6183 10.606V9.04725C20.6183 7.66538 19.494 6.54113 18.1122 6.54113H14.0374C13.1985 6.54113 12.4552 6.95583 12 7.59056C11.5449 6.95583 10.8015 6.54113 9.96267 6.54113H5.88792C4.50605 6.54113 3.3818 7.66533 3.3818 9.04725V10.606C3.0255 10.7379 2.68758 10.908 2.373 11.1112V4.24528C2.37295 2.92739 3.44513 1.85517 4.76306 1.85517ZM5.17186 10.2864C4.88147 10.2864 4.59666 10.3109 4.3192 10.3571V9.04725C4.3192 8.18231 5.02289 7.47863 5.88783 7.47863H9.96258C10.8275 7.47863 11.5312 8.18231 11.5312 9.04725V10.2865H5.17186V10.2864ZM12.4688 9.0472C12.4688 8.18227 13.1724 7.47858 14.0374 7.47858H18.1121C18.9771 7.47858 19.6807 8.18227 19.6807 9.0472V10.3571C19.4032 10.3109 19.1185 10.2864 18.8281 10.2864H12.4688V9.0472ZM5.17186 11.2239H18.8281C21.1629 11.2239 23.0625 13.1235 23.0625 15.4583V16.8489H18.3611C18.1022 16.8489 17.8923 17.0588 17.8923 17.3177C17.8923 17.5765 18.1022 17.7864 18.3611 17.7864H23.0625V19.65H0.9375V17.7864H13.6736C13.9325 17.7864 14.1423 17.5765 14.1423 17.3177C14.1423 17.0588 13.9325 16.8489 13.6736 16.8489H0.9375V15.4583C0.9375 13.1235 2.83702 11.2239 5.17186 11.2239ZM2.87086 21.1781C2.87086 21.7111 2.43722 22.1448 1.9042 22.1448C1.37119 22.1448 0.9375 21.7111 0.9375 21.1781V20.5874H2.87086V21.1781ZM22.0958 22.1448C21.5628 22.1448 21.1291 21.7111 21.1291 21.1781V20.5874H23.0625V21.1781C23.0625 21.7111 22.6289 22.1448 22.0958 22.1448Z" fill="#191C21"/>
<path d="M16.0168 17.7867C16.2758 17.7867 16.4858 17.5767 16.4858 17.3177C16.4858 17.0587 16.2758 16.8487 16.0168 16.8487C15.7578 16.8487 15.5479 17.0587 15.5479 17.3177C15.5479 17.5767 15.7578 17.7867 16.0168 17.7867Z" fill="#191C21"/>
</g>
<defs>
<clipPath id="clip0_62_1607">
<rect width="24" height="24" fill="white"/>
</clipPath>
</defs>
</svg>
