<svg width="19" height="19" viewBox="0 0 19 19" fill="none" xmlns="http://www.w3.org/2000/svg">
<path d="M0.927908 19C0.744394 19 0.564993 18.9456 0.412396 18.8437C0.259799 18.7417 0.140862 18.5968 0.0706297 18.4273C0.00039741 18.2577 -0.0179751 18.0712 0.017836 17.8912C0.0536472 17.7112 0.142033 17.5459 0.271814 17.4161L17.4163 0.27161C17.5904 0.0976035 17.8264 -0.000152588 18.0724 -0.000152588C18.3185 -0.000152588 18.5545 0.0976035 18.7285 0.27161C18.9025 0.445617 19.0003 0.681621 19.0003 0.927704C19.0003 1.17379 18.9025 1.40979 18.7285 1.5838L1.584 18.7283C1.49792 18.8146 1.39565 18.883 1.28305 18.9296C1.17046 18.9762 1.04977 19.0001 0.927908 19Z" fill="#D1D2D3"/>
<path d="M18.0724 19C17.9505 19.0001 17.8298 18.9762 17.7172 18.9296C17.6046 18.883 17.5024 18.8146 17.4163 18.7283L0.271763 1.5838C0.0977561 1.40979 0 1.17379 0 0.927704C0 0.681621 0.0977561 0.445617 0.271763 0.27161C0.44577 0.0976035 0.681774 -0.000152588 0.927857 -0.000152588C1.17394 -0.000152588 1.40994 0.0976035 1.58395 0.27161L18.7285 17.4161C18.8583 17.5459 18.9466 17.7112 18.9825 17.8912C19.0183 18.0712 18.9999 18.2577 18.9297 18.4273C18.8594 18.5968 18.7405 18.7417 18.5879 18.8437C18.4353 18.9456 18.2559 19 18.0724 19Z" fill="#D1D2D3"/>
</svg>
