<svg width="12" height="18" viewBox="0 0 12 18" fill="none" xmlns="http://www.w3.org/2000/svg">
<path d="M9.9604 0.965914C10.1979 0.96069 10.4311 1.02954 10.6276 1.16298C10.8241 1.29643 10.9742 1.48789 11.0569 1.71056C11.1397 1.93324 11.151 2.17612 11.0893 2.40551C11.0276 2.63491 10.8959 2.83928 10.7126 2.9904L3.71933 8.98146L10.7126 14.9704C10.8394 15.0636 10.9456 15.1819 11.0245 15.318C11.1034 15.4541 11.1534 15.6051 11.1713 15.7615C11.1892 15.9178 11.1746 16.0761 11.1285 16.2265C11.0823 16.377 11.0056 16.5163 10.9032 16.6357C10.8007 16.7551 10.6747 16.852 10.533 16.9204C10.3913 16.9889 10.237 17.0273 10.0798 17.0334C9.92258 17.0395 9.76579 17.0131 9.61926 16.9557C9.47273 16.8984 9.33962 16.8114 9.22826 16.7003L1.22156 9.84976C1.09582 9.74245 0.994858 9.60927 0.925625 9.45917C0.856392 9.30908 0.820539 9.1457 0.820539 8.98041C0.820539 8.81511 0.856392 8.65174 0.925625 8.50164C0.994858 8.35154 1.09582 8.21823 1.22156 8.11092L9.22826 1.25381C9.43052 1.07415 9.68995 0.972015 9.9604 0.96565V0.965914Z" fill="#191C21"/>
</svg>
