<svg width="38" height="32" viewBox="0 0 38 32" fill="none" xmlns="http://www.w3.org/2000/svg">
<g clip-path="url(#clip0_6_294)">
<path d="M18.9296 7.36C19.7467 7.36 20.4085 6.70161 20.4085 5.88874V1.47126C20.4085 0.658391 19.7467 0 18.9296 0C18.1125 0 17.4507 0.658391 17.4507 1.47126V5.88874C17.4507 6.70161 18.1125 7.36 18.9296 7.36Z" fill="black"/>
<path d="M0.574554 10.2695L3.868 13.2252C4.47804 13.7726 5.41269 13.7181 5.95691 13.1186C6.5041 12.5154 6.45603 11.5848 5.84969 11.0404L2.5555 8.08465C1.94917 7.54028 1.01378 7.5881 0.466596 8.19131C-0.0798474 8.79527 -0.031784 9.72584 0.574554 10.2695Z" fill="black"/>
<path d="M33.9904 13.226L37.2839 10.2702C37.8902 9.72584 37.9383 8.796 37.3911 8.19205C36.8439 7.58883 35.9093 7.54101 35.3022 8.08538L32.0087 11.0412C31.4024 11.5855 31.3543 12.5161 31.9015 13.1193C32.4465 13.7189 33.3811 13.7726 33.9904 13.226Z" fill="black"/>
<path d="M37.6965 24.0913C35.2038 19.2486 28.4121 11.7922 18.9296 11.7922C10.6146 11.7922 3.43024 17.7435 0.162665 24.0905C-0.209271 24.8129 0.0783694 25.6979 0.803757 26.0686C1.52988 26.4394 2.42017 26.1547 2.79432 25.4331C5.63819 19.921 11.8923 14.7348 18.9296 14.7348C26.7765 14.7348 32.797 21.0377 35.0648 25.4338C35.4382 26.1577 36.33 26.4401 37.0539 26.0709C37.7808 25.7008 38.0684 24.8144 37.6965 24.0913Z" fill="black"/>
<path d="M18.9296 17.5227C14.924 17.5227 11.6646 20.7698 11.6646 24.7613C11.6646 28.7529 14.924 31.9999 18.9296 31.9999C22.9351 31.9999 26.1945 28.7529 26.1945 24.7613C26.1945 20.7698 22.9351 17.5227 18.9296 17.5227ZM18.9296 29.0574C16.5545 29.0574 14.6224 27.1301 14.6224 24.7613C14.6224 22.3926 16.5545 20.4652 18.9296 20.4652C21.3046 20.4652 23.2368 22.3926 23.2368 24.7613C23.2368 27.1301 21.3046 29.0574 18.9296 29.0574Z" fill="black"/>
</g>
<defs>
<clipPath id="clip0_6_294">
<rect width="37.8592" height="32" fill="white"/>
</clipPath>
</defs>
</svg>
