<svg width="24" height="24" viewBox="0 0 24 24" fill="none" xmlns="http://www.w3.org/2000/svg">
<g clip-path="url(#clip0_6_196)">
<path d="M11.9658 11.9973C13.1522 11.9973 14.312 11.6455 15.2985 10.9864C16.285 10.3272 17.0538 9.39036 17.5079 8.29424C17.9619 7.19813 18.0807 5.992 17.8492 4.82837C17.6178 3.66474 17.0464 2.59588 16.2075 1.75696C15.3686 0.918028 14.2997 0.34671 13.1361 0.11525C11.9725 -0.11621 10.7663 0.00258388 9.67022 0.456609C8.57411 0.910634 7.63725 1.6795 6.9781 2.66597C6.31896 3.65245 5.96715 4.81223 5.96715 5.99865C5.96856 7.58917 6.60101 9.11413 7.72568 10.2388C8.85034 11.3635 10.3753 11.9959 11.9658 11.9973ZM11.9658 1.33302C12.8886 1.33302 13.7906 1.60666 14.5579 2.11932C15.3252 2.63199 15.9232 3.36066 16.2763 4.21319C16.6294 5.06573 16.7218 6.00383 16.5418 6.90887C16.3618 7.81392 15.9174 8.64525 15.2649 9.29775C14.6124 9.95025 13.7811 10.3946 12.876 10.5746C11.971 10.7547 11.0329 10.6623 10.1804 10.3091C9.32782 9.956 8.59915 9.358 8.08648 8.59074C7.57382 7.82348 7.30018 6.92143 7.30018 5.99865C7.30159 4.76169 7.7936 3.57578 8.66827 2.70111C9.54294 1.82644 10.7288 1.33444 11.9658 1.33302ZM2.63455 23.9947C2.81133 23.9947 2.98086 23.9244 3.10585 23.7994C3.23085 23.6744 3.30107 23.5049 3.30107 23.3281V20.6621C3.29964 19.2166 3.66082 17.7939 4.35157 16.5242C5.04232 15.2545 6.04055 14.1784 7.25486 13.3943L11.3686 21.6272C11.4245 21.7376 11.5098 21.8304 11.6153 21.8953C11.7207 21.9601 11.842 21.9944 11.9658 21.9944C12.0896 21.9944 12.2109 21.9601 12.3164 21.8953C12.4218 21.8304 12.5072 21.7376 12.563 21.6272L16.6768 13.3917C17.1905 13.7203 17.6669 14.1038 18.0978 14.5354C18.9056 15.3387 19.546 16.2943 19.9817 17.3469C20.4174 18.3995 20.6397 19.5282 20.6359 20.6674V23.3335C20.6359 23.5102 20.7061 23.6798 20.8311 23.8048C20.9561 23.9298 21.1256 24 21.3024 24C21.4792 24 21.6487 23.9298 21.7737 23.8048C21.8987 23.6798 21.9689 23.5102 21.9689 23.3335V20.6674C21.9712 18.8636 21.4844 17.093 20.5606 15.5438C19.6367 13.9946 18.3101 12.7247 16.7221 11.8693L16.6688 11.8507C16.6479 11.8415 16.6265 11.8335 16.6048 11.8267C16.5841 11.8196 16.5626 11.8152 16.5408 11.8134H16.4768H16.3462L16.2822 11.8267H16.2235C16.2027 11.8335 16.1822 11.8415 16.1622 11.8507L16.1036 11.8773L16.0502 11.912L15.9969 11.9493L15.9516 11.9947C15.9351 12.0093 15.92 12.0254 15.9063 12.0426C15.8923 12.0602 15.8798 12.079 15.8689 12.0986C15.8568 12.1136 15.8461 12.1296 15.837 12.1466L14.264 15.2419L13.9574 13.229C13.9337 13.0715 13.8542 12.9277 13.7333 12.8239C13.6124 12.7202 13.4582 12.6634 13.2989 12.6638H10.6328C10.4735 12.6634 10.3193 12.7202 10.1984 12.8239C10.0775 12.9277 9.99793 13.0715 9.97426 13.229L9.66766 15.2419L8.12667 12.1546C8.11665 12.1376 8.10504 12.1215 8.09201 12.1066C8.08203 12.0879 8.07043 12.07 8.05735 12.0533L7.99869 11.9973L7.9667 11.9413C7.94963 11.9259 7.93084 11.9125 7.91071 11.9013C7.89485 11.8891 7.87789 11.8784 7.86006 11.8693L7.79874 11.84C7.78008 11.84 7.76408 11.824 7.74275 11.8187C7.72176 11.8121 7.70039 11.8068 7.67877 11.8027H7.62011H7.48947H7.42016L7.3615 11.816C7.338 11.8228 7.31486 11.8308 7.29219 11.84L7.2442 11.8587C5.65739 12.7153 4.33205 13.9855 3.40876 15.5345C2.48548 17.0835 1.99869 18.8535 2.00003 20.6567V23.3228C1.99845 23.4951 2.06365 23.6613 2.18195 23.7865C2.30025 23.9118 2.46246 23.9864 2.63455 23.9947ZM10.7021 17.3081L11.206 13.9969H12.7256L13.2295 17.3081L11.9658 19.8382L10.7021 17.3081ZM18.2977 18.6625C18.4745 18.6625 18.644 18.7327 18.769 18.8577C18.894 18.9827 18.9643 19.1523 18.9643 19.329C18.9643 19.5058 18.894 19.6753 18.769 19.8003C18.644 19.9253 18.4745 19.9955 18.2977 19.9955H16.2982C16.1214 19.9955 15.9519 19.9253 15.8269 19.8003C15.7019 19.6753 15.6317 19.5058 15.6317 19.329C15.6317 19.1523 15.7019 18.9827 15.8269 18.8577C15.9519 18.7327 16.1214 18.6625 16.2982 18.6625H18.2977Z" fill="black"/>
</g>
<defs>
<clipPath id="clip0_6_196">
<rect width="24" height="24" fill="white"/>
</clipPath>
</defs>
</svg>
