<svg width="16" height="16" viewBox="0 0 16 16" fill="none" xmlns="http://www.w3.org/2000/svg">
<g filter="url(#filter0_b_811_5230)">
<circle cx="8" cy="8" r="8" fill="white"/>
</g>
<g clip-path="url(#clip0_811_5230)">
<path d="M5.29302 10.9999C5.23507 10.9999 5.17842 10.9827 5.13023 10.9505C5.08204 10.9183 5.04448 10.8725 5.0223 10.819C5.00013 10.7655 4.99432 10.7066 5.00563 10.6497C5.01694 10.5929 5.04485 10.5407 5.08584 10.4997L10.4999 5.08564C10.5548 5.03069 10.6294 4.99982 10.7071 4.99982C10.7848 4.99982 10.8593 5.03069 10.9143 5.08564C10.9692 5.14059 11.0001 5.21511 11.0001 5.29282C11.0001 5.37053 10.9692 5.44506 10.9143 5.50001L5.50021 10.9141C5.47303 10.9413 5.44073 10.9629 5.40518 10.9776C5.36962 10.9924 5.33151 10.9999 5.29302 10.9999Z" fill="#191C21"/>
<path d="M10.7071 10.9999C10.6686 10.9999 10.6305 10.9924 10.5949 10.9776C10.5594 10.9629 10.5271 10.9413 10.4999 10.9141L5.08582 5.50001C5.03087 5.44506 5 5.37053 5 5.29282C5 5.21511 5.03087 5.14059 5.08582 5.08564C5.14077 5.03069 5.2153 4.99982 5.29301 4.99982C5.37072 4.99982 5.44525 5.03069 5.50019 5.08564L10.9143 10.4997C10.9552 10.5407 10.9832 10.5929 10.9945 10.6497C11.0058 10.7066 11 10.7655 10.9778 10.819C10.9556 10.8725 10.9181 10.9183 10.8699 10.9505C10.8217 10.9827 10.765 10.9999 10.7071 10.9999Z" fill="#191C21"/>
</g>
<defs>
<filter id="filter0_b_811_5230" x="-44" y="-44" width="104" height="104" filterUnits="userSpaceOnUse" color-interpolation-filters="sRGB">
<feFlood flood-opacity="0" result="BackgroundImageFix"/>
<feGaussianBlur in="BackgroundImage" stdDeviation="22"/>
<feComposite in2="SourceAlpha" operator="in" result="effect1_backgroundBlur_811_5230"/>
<feBlend mode="normal" in="SourceGraphic" in2="effect1_backgroundBlur_811_5230" result="shape"/>
</filter>
<clipPath id="clip0_811_5230">
<rect width="6" height="6" fill="white" transform="translate(5 5)"/>
</clipPath>
</defs>
</svg>
