<svg width="24" height="24" viewBox="0 0 24 24" fill="none" xmlns="http://www.w3.org/2000/svg">
<g clip-path="url(#clip0_84_2333)">
<path d="M22.827 17.9303C22.6954 16.56 21.4722 15.4838 20.0476 15.4838C19.8773 15.4838 19.7418 15.3483 19.7418 15.178V10.618C19.7418 7.23091 17.5741 4.27738 14.5895 3.17416C14.6243 2.99994 14.6437 2.82191 14.6437 2.64382C14.6437 1.18454 13.4593 0 11.9999 0C10.5404 0 9.35597 1.18454 9.35597 2.64388C9.35597 2.8181 9.3753 2.99225 9.40627 3.15871C8.38049 3.52259 7.4321 4.09935 6.62307 4.88128C5.09792 6.35226 4.25794 8.33031 4.25794 10.4516V15.1781C4.25794 15.3445 4.12244 15.4839 3.95211 15.4839C2.52373 15.4839 1.30434 16.56 1.17273 17.9304C1.09916 18.693 1.35082 19.4516 1.86565 20.0168C2.3766 20.5781 3.10824 20.9033 3.87078 20.9033H8.53919C8.73274 22.6414 10.2115 24.0001 11.9999 24.0001C13.7882 24.0001 15.267 22.6414 15.4605 20.9033H20.1289C20.8915 20.9033 21.6231 20.5781 22.1341 20.0168C22.645 19.4516 22.9005 18.6929 22.827 17.9303ZM11.9999 1.54836C12.6037 1.54836 13.0953 2.03998 13.0953 2.64382C13.0953 2.69411 13.0876 2.74059 13.0798 2.79088C12.8166 2.75216 12.5495 2.72508 12.2824 2.71732C11.8217 2.7018 11.3688 2.73283 10.9198 2.79476C10.912 2.74447 10.9043 2.69799 10.9043 2.6477C10.9044 2.03998 11.396 1.54836 11.9999 1.54836ZM11.9999 22.4516C11.067 22.4516 10.285 21.7857 10.1031 20.9032H13.8966C13.7147 21.7858 12.9328 22.4516 11.9999 22.4516ZM20.9882 18.9755C20.7637 19.2194 20.4618 19.3548 20.1289 19.3548H3.87085C3.53793 19.3548 3.23604 19.2193 3.01147 18.9755C2.78696 18.7316 2.68243 18.4103 2.71727 18.0774C2.77144 17.4929 3.3173 17.0323 3.95598 17.0323C4.97794 17.0323 5.81017 16.2 5.81017 15.1781V10.4516C5.81017 8.75612 6.4837 7.17292 7.70309 5.99614C8.86435 4.86971 10.3818 4.25805 11.9999 4.25805C12.0773 4.25805 12.1508 4.25805 12.2282 4.26193C15.5147 4.37803 18.1934 7.23097 18.1934 10.6181V15.1781C18.1934 16.2 19.0256 17.0323 20.0476 17.0323C20.6863 17.0323 21.2321 17.4929 21.2863 18.0774C21.3173 18.4103 21.2128 18.7277 20.9882 18.9755Z" fill="black"/>
<path d="M1.9736 9.29034C2.32972 9.29034 2.65101 9.04263 2.72845 8.68262C3.1039 6.98326 3.95165 5.4349 5.19036 4.20394C5.49231 3.90199 5.49231 3.41037 5.19036 3.10848C4.88841 2.80653 4.39679 2.80653 4.0949 3.10848C2.64719 4.54837 1.65232 6.3639 1.21494 8.35352C1.12204 8.77157 1.38527 9.18575 1.80333 9.27483C1.86526 9.28647 1.91943 9.29034 1.9736 9.29034Z" fill="black"/>
<path d="M22.0252 9.29033C22.0794 9.29033 22.1375 9.28258 22.1917 9.27101C22.6097 9.17811 22.8729 8.76775 22.7801 8.3497C22.3426 6.36001 21.3478 4.54842 19.9 3.10453C19.5981 2.80258 19.1065 2.80258 18.8046 3.10453C18.5027 3.40648 18.5026 3.8981 18.8046 4.19999C20.0394 5.43095 20.891 6.97937 21.2665 8.67867C21.3478 9.04255 21.6691 9.29033 22.0252 9.29033Z" fill="black"/>
</g>
<defs>
<clipPath id="clip0_84_2333">
<rect width="24" height="24" fill="white"/>
</clipPath>
</defs>
</svg>
