<svg width="17" height="18" viewBox="0 0 17 18" fill="none" xmlns="http://www.w3.org/2000/svg">
<path d="M16.3944 17.494C16.2374 17.494 16.0863 17.4336 15.9655 17.3188L12.9573 14.3045C11.4954 15.5609 9.67718 16.1952 7.85289 16.1952C5.84134 16.1952 3.82979 15.428 2.3015 13.8998C0.815493 12.4137 0 10.4445 0 8.34836C0 6.25224 0.815493 4.27694 2.3015 2.79697C5.36413 -0.265657 10.3477 -0.265657 13.4043 2.79697C16.3219 5.71462 16.4548 10.372 13.809 13.4527L16.8233 16.467C17.0589 16.7026 17.0589 17.0832 16.8233 17.3188C16.7025 17.4336 16.5515 17.494 16.3944 17.494ZM12.5525 3.64871C11.2598 2.356 9.55637 1.70361 7.85289 1.70361C6.14942 1.70361 4.45199 2.34996 3.15324 3.64871C1.89678 4.90517 1.20814 6.5724 1.20814 8.34836C1.20814 10.1243 1.89678 11.7916 3.15324 13.048C5.74469 15.6395 9.96109 15.6395 12.5525 13.048C15.144 10.4566 15.144 6.24016 12.5525 3.64871Z" fill="#D1D2D3"/>
</svg>
