<svg width="24" height="24" viewBox="0 0 24 24" fill="none" xmlns="http://www.w3.org/2000/svg">
<path d="M11.9871 8.23439e-05C11.8293 0.0016352 11.6733 0.0343986 11.5282 0.0965543C11.383 0.15871 11.2515 0.249028 11.1411 0.362302C11.0307 0.475576 10.9437 0.609665 10.8849 0.756771C10.8262 0.903877 10.7969 1.06112 10.7987 1.21961V10.8653C10.7988 11.1852 10.9254 11.4921 11.1507 11.7183C11.3759 11.9445 11.6814 12.0715 12 12.0715C12.3185 12.0715 12.624 11.9445 12.8493 11.7183C13.0746 11.4921 13.2012 11.1852 13.2013 10.8653V1.21961C13.2031 1.05894 13.173 0.899489 13.1127 0.750681C13.0523 0.601872 12.9629 0.466648 12.8498 0.353028C12.7367 0.239408 12.6021 0.149702 12.4539 0.0890801C12.3058 0.0284579 12.1471 -0.00179538 11.9871 8.23439e-05ZM18.9885 2.41797C18.9495 2.41684 18.9103 2.41762 18.8713 2.42032C18.6341 2.44055 18.4082 2.53125 18.2223 2.68081C18.0365 2.83037 17.8992 3.03202 17.8278 3.2602C17.7564 3.48838 17.7543 3.73279 17.8215 3.96221C17.8888 4.19164 18.0225 4.39577 18.2057 4.54866C20.2845 6.32183 21.5997 8.961 21.5997 11.9247C21.5997 17.276 17.3216 21.5892 12.0058 21.5892C6.69005 21.5892 2.40256 17.276 2.40257 11.9247C2.40258 8.97815 3.70106 6.3569 5.75914 4.58395C5.87905 4.48115 5.97762 4.3556 6.04923 4.21454C6.12083 4.07347 6.16408 3.91964 6.17649 3.7618C6.1889 3.60395 6.17024 3.44526 6.12156 3.29466C6.07289 3.14406 5.99515 3.00456 5.8928 2.88414C5.79045 2.76371 5.66549 2.6647 5.52504 2.59278C5.3846 2.52086 5.23143 2.47735 5.07427 2.46489C4.91712 2.45243 4.75906 2.47122 4.60912 2.52012C4.45918 2.56901 4.3203 2.64707 4.2004 2.74988C1.63127 4.96308 1.12932e-05 8.26196 0 11.9247C-1.07943e-05 18.5767 5.39073 24 12.0058 24C18.621 24 24 18.5767 24 11.9247C24 8.24059 22.3526 4.92814 19.7574 2.71458C19.5439 2.52773 19.2716 2.42267 18.9885 2.41797H18.9885Z" fill="white"/>
</svg>
