<svg width="68" height="65" viewBox="0 0 68 65" fill="none" xmlns="http://www.w3.org/2000/svg">
<circle cx="28.5" cy="36.5" r="28.5" fill="#FFF0F5"/>
<g clip-path="url(#clip0_270_2449)">
<path fill-rule="evenodd" clip-rule="evenodd" d="M41.6809 28.1764C43.7846 32.0385 42.9554 36.976 39.4624 39.9144C35.4736 43.2699 29.513 42.7559 26.1576 38.7672C22.8033 34.7798 23.316 28.8178 27.3048 25.4624C30.7979 22.5239 35.8057 22.5536 39.2494 25.286L45.1747 20.3014L42.7432 17.411C42.0733 16.6147 42.1749 15.4211 42.9727 14.75C43.7704 14.0789 44.9637 14.1832 45.6336 14.9795L48.0651 17.8699L50.9555 15.4384L48.524 12.548C47.8542 11.7517 47.9557 10.5581 48.7535 9.887C49.5512 9.21591 50.7446 9.32015 51.4145 10.1165L55.0617 14.4521C55.734 15.2513 55.63 16.4419 54.8323 17.113L41.6809 28.1764ZM29.048 36.3357C27.0359 33.9438 27.3431 30.3661 29.7363 28.3528C32.1296 26.3395 35.7071 26.6493 37.7192 29.0411C39.7325 31.4344 39.4241 35.0107 37.0309 37.024C34.6376 39.0373 31.0613 38.7289 29.048 36.3357Z" fill="#F5004A"/>
</g>
<defs>
<clipPath id="clip0_270_2449">
<rect width="37.7713" height="37.7713" fill="white" transform="translate(38.3154 53.2192) rotate(-130.072)"/>
</clipPath>
</defs>
</svg>
