<svg width="64" height="64" viewBox="0 0 64 64" fill="none" xmlns="http://www.w3.org/2000/svg">
<path d="M55.1547 17.207L38.3182 0.3705C38.081 0.13325 37.7594 0 37.4237 0H13.6995C10.8184 0 8.47461 2.34387 8.47461 5.225V58.775C8.47461 61.6561 10.8184 64 13.6995 64H50.3001C53.1812 64 55.5251 61.6561 55.5251 58.775V18.1014C55.5251 17.766 55.3919 17.4441 55.1547 17.207ZM38.6887 4.31862L51.2066 16.8363H41.3839C39.8977 16.8363 38.6889 15.6272 38.6889 14.141V4.31862H38.6887ZM52.9954 58.775C52.9954 60.2611 51.7864 61.4702 50.3001 61.4702H13.6995C12.2134 61.4702 11.0045 60.2611 11.0045 58.775V5.225C11.0045 3.73887 12.2136 2.52975 13.6995 2.52975H36.1589V14.1412C36.1589 17.0224 38.5026 19.3662 41.3837 19.3662H52.9954V58.775Z" fill="#51AB86"/>
<path d="M41.7392 31.8735H22.261C21.5622 31.8735 20.9961 32.4399 20.9961 33.1384V50.087C20.9961 50.7855 21.5622 51.3519 22.261 51.3519H41.7392C42.438 51.3519 43.0041 50.7855 43.0041 50.087V33.1384C43.0041 32.4396 42.438 31.8735 41.7392 31.8735ZM23.5258 34.4032H30.7352V37.4757H23.5258V34.4032ZM30.7352 48.8221H23.5258V45.7496H30.7352V48.8221ZM30.7352 43.2199H23.5258V40.0055H30.7352V43.2199ZM40.4743 48.8221H33.265V45.7496H40.4743V48.8221ZM40.4743 43.2199H33.265V40.0055H40.4743V43.2199ZM40.4743 37.4757H33.265V34.4032H40.4743V37.4757Z" fill="#51AB86"/>
</svg>
