<svg width="24" height="24" viewBox="0 0 24 24" fill="none" xmlns="http://www.w3.org/2000/svg">
<path d="M3.81818 4.36363H7.09091C7.39241 4.36363 7.63638 4.11966 7.63638 3.81816C7.63638 3.51666 7.39236 3.27274 7.09091 3.27274H3.81818C3.51668 3.27274 3.27271 3.51671 3.27271 3.81821C3.27271 4.11971 3.51668 4.36363 3.81818 4.36363Z" fill="#191C21"/>
<path d="M7.09091 5.45456H3.81818C3.51668 5.45456 3.27271 5.69853 3.27271 6.00003C3.27271 6.30148 3.51668 6.54545 3.81818 6.54545H7.09091C7.39241 6.54545 7.63638 6.30148 7.63638 5.99998C7.63633 5.69848 7.39236 5.45456 7.09091 5.45456Z" fill="#191C21"/>
<path d="M13.6363 4.36363H16.909C17.2105 4.36363 17.4545 4.11966 17.4545 3.81816C17.4545 3.51666 17.2105 3.27274 16.909 3.27274H13.6363C13.3348 3.27274 13.0908 3.51671 13.0908 3.81821C13.0908 4.11971 13.3348 4.36363 13.6363 4.36363Z" fill="#191C21"/>
<path d="M17.4545 6C17.4545 5.6985 17.2105 5.45453 16.909 5.45453H13.6363C13.3348 5.45453 13.0908 5.6985 13.0908 6C13.0908 6.3015 13.3348 6.54547 13.6363 6.54547H16.909C17.2106 6.54547 17.4545 6.3015 17.4545 6Z" fill="#191C21"/>
<path d="M8.1817 8.72729C7.8802 8.72729 7.63623 8.97127 7.63623 9.27277V11.4546C7.63623 11.7561 7.8802 12 8.1817 12C8.4832 12 8.72718 11.7561 8.72718 11.4546V9.27272C8.72718 8.97121 8.4832 8.72729 8.1817 8.72729Z" fill="#191C21"/>
<path d="M17.4546 11.4545C17.4546 11.756 17.6986 12 18.0001 12C18.3016 12 18.5455 11.756 18.5455 11.4545V9.27271C18.5455 8.97121 18.3016 8.72723 18.0001 8.72723C17.6986 8.72723 17.4546 8.97121 17.4546 9.27271V11.4545Z" fill="#191C21"/>
<path d="M20.7274 17.4546C21.3299 17.4546 21.8183 16.9661 21.8183 16.3637C21.8183 15.7612 21.3299 15.2728 20.7274 15.2728C20.1249 15.2728 19.6365 15.7612 19.6365 16.3637C19.6365 16.9661 20.1249 17.4546 20.7274 17.4546Z" fill="#191C21"/>
<path d="M20.7273 13.146V2.18184C20.7273 0.978495 19.7483 0 18.5455 0H12C11.3454 0 10.764 0.295824 10.3637 0.754057C9.96336 0.295824 9.38184 0 8.7273 0H2.18184C0.979057 0 0 0.978495 0 2.18184V17.4546C0 18.6579 0.979057 19.6364 2.18184 19.6364H8.7273C9.38189 19.6364 9.96336 19.3406 10.3637 18.8823C10.764 19.3406 11.3454 19.6364 12 19.6364H15.0469L13.2507 21.4325C13.1484 21.5348 13.0909 21.6733 13.0909 21.8182V23.4546C13.0909 23.7561 13.3349 24.0001 13.6364 24.0001H15.2728C15.4176 24.0001 15.5562 23.9425 15.6584 23.8403L18.9727 20.5265C19.3659 20.6597 19.7707 20.7273 20.1819 20.7273C22.287 20.7273 24.0001 19.0143 24.0001 16.9091C24 14.9907 22.5727 13.4136 20.7273 13.146ZM9.81819 17.4545C9.81819 18.0559 9.32917 18.5454 8.7273 18.5454H2.18184C1.57991 18.5454 1.09094 18.0559 1.09094 17.4545V2.18184C1.09094 1.58047 1.57996 1.09094 2.18184 1.09094H8.7273C9.32922 1.09094 9.81819 1.58047 9.81819 2.18184V17.4545ZM12 18.5455C11.3981 18.5455 10.9091 18.056 10.9091 17.4546V2.18184C10.9091 1.58047 11.3981 1.09094 12 1.09094H18.5455C19.1474 1.09094 19.6364 1.58047 19.6364 2.18184V13.146C17.7909 13.4136 16.3636 14.9907 16.3636 16.9091C16.3636 17.3198 16.4308 17.7252 16.565 18.1183L16.1378 18.5455H12ZM20.1818 19.6364C19.8005 19.6364 19.4244 19.5538 19.0643 19.3908C18.8544 19.296 18.6136 19.3423 18.4538 19.5021L15.0469 22.9091H14.1818V22.044L17.5888 18.6371C17.7496 18.4768 17.7933 18.2339 17.7007 18.0272C17.5376 17.666 17.4545 17.2894 17.4545 16.9091C17.4545 15.4054 18.6776 14.1818 20.1818 14.1818C21.6861 14.1818 22.9091 15.4054 22.9091 16.9091C22.9091 18.4128 21.6861 19.6364 20.1818 19.6364Z" fill="#191C21"/>
</svg>
