<svg width="8" height="16" viewBox="0 0 8 16" fill="none" xmlns="http://www.w3.org/2000/svg">
<path fill-rule="evenodd" clip-rule="evenodd" d="M3.2 7.92C1.3744 7.5488 0 5.9336 0 4C0 1.792 1.792 0 4 0C6.2072 0 8 1.792 8 4C8 5.9336 6.6248 7.5488 4.8 7.92V11.2H6.4C6.8408 11.2 7.2 11.5584 7.2 12C7.2 12.4416 6.8408 12.8 6.4 12.8H4.8V14.4H6.4C6.8408 14.4 7.2 14.7584 7.2 15.2C7.2 15.6416 6.8408 16 6.4 16H4C3.5576 16 3.2 15.6416 3.2 15.2V7.92ZM4 1.6C5.324 1.6 6.4 2.6752 6.4 4C6.4 5.3248 5.324 6.4 4 6.4C2.6752 6.4 1.6 5.3248 1.6 4C1.6 2.6752 2.6752 1.6 4 1.6Z" fill="white"/>
</svg>
