<svg width="57" height="57" viewBox="0 0 57 57" fill="none" xmlns="http://www.w3.org/2000/svg">
<circle cx="28.5" cy="28.5" r="28.5" fill="#FFFAF5"/>
<g clip-path="url(#clip0_84_2798)">
<path d="M39.5561 0.00019157C38.9652 -0.00100113 38.3691 0.0254016 37.7687 0.0875475C28.1631 1.04742 21.1278 9.64365 22.0876 19.2493C22.5708 24.0847 24.999 28.2625 28.5041 31.1026L25.8506 31.719C25.6376 31.7679 25.4364 31.8582 25.2584 31.9849C25.0804 32.1116 24.9292 32.2721 24.8133 32.4573C24.6975 32.6426 24.6193 32.8489 24.5832 33.0644C24.5472 33.2799 24.554 33.5004 24.6033 33.7133C24.6525 33.9261 24.7433 34.1271 24.8704 34.3048C24.9974 34.4826 25.1583 34.6334 25.3437 34.7489C25.5292 34.8644 25.7356 34.9422 25.9512 34.9778C26.1667 35.0134 26.3872 35.0061 26.5999 34.9564L33.4641 33.3506C33.8908 33.2502 34.2605 32.9852 34.4926 32.6133C34.7248 32.2414 34.8005 31.7929 34.7032 31.3654L33.1105 24.498C33.0258 24.1144 32.8079 23.7733 32.4955 23.5352C32.1831 23.297 31.7965 23.1773 31.4042 23.1972C31.159 23.2092 30.9196 23.2754 30.7031 23.3909C30.4866 23.5064 30.2983 23.6685 30.1519 23.8654C30.0055 24.0624 29.9046 24.2893 29.8563 24.53C29.8081 24.7706 29.8138 25.019 29.873 25.2572L30.6386 28.5627C27.7728 26.2604 25.7917 22.8744 25.3964 18.9185C24.6151 11.0992 30.2803 4.16792 38.0996 3.38658C45.919 2.60517 52.8534 8.28021 53.6348 16.0996C54.4161 23.9188 48.7379 30.8534 40.9186 31.6347C40.6964 31.6501 40.4796 31.71 40.281 31.8108C40.0824 31.9116 39.9061 32.0511 39.7624 32.2213C39.6188 32.3915 39.5108 32.5889 39.4449 32.8016C39.3789 33.0143 39.3564 33.238 39.3785 33.4596C39.4007 33.6812 39.4671 33.8962 39.5739 34.0916C39.6806 34.2871 39.8256 34.459 40.0001 34.5974C40.1745 34.7358 40.375 34.8377 40.5897 34.8972C40.8043 34.9566 41.0287 34.9724 41.2495 34.9435C50.8551 33.9837 57.9034 25.3743 56.9436 15.7687C56.0437 6.76338 48.4204 0.0172 39.5561 0V0.00019157Z" fill="#E59236"/>
</g>
<defs>
<clipPath id="clip0_84_2798">
<rect width="35" height="35" fill="white" transform="translate(22)"/>
</clipPath>
</defs>
</svg>
