<svg width="649" height="849" viewBox="0 0 649 849" fill="none" xmlns="http://www.w3.org/2000/svg">
<path d="M346.511 329.146C371.352 346.374 411.963 351.237 457.977 343.288C532.151 330.496 599.632 287.91 613.603 265.889C624.326 249.033 626.797 228.733 624.116 207.314C620.19 175.854 570.767 26.3404 473.838 3.64778C438.806 -4.55317 392.512 0.673884 341.633 48.6761C309.379 78.9048 297.879 121.498 296.703 165.47C295.121 222.268 313.908 306.565 346.511 329.146Z" fill="#EAEAEA"/>
<path d="M568.562 302.339C571.481 300.659 574.386 298.931 577.283 297.147H577.29V297.14C588.146 234.436 609.376 192.242 609.67 191.668C610.342 190.352 610.216 187.406 605.925 187.036C602.173 186.707 599.843 187.518 599.171 188.841C599.094 188.988 594.362 199.029 587.978 217.131C587.405 218.762 586.817 220.455 586.215 222.211C584.906 226.046 583.548 230.189 582.155 234.618C581.637 236.276 581.112 237.977 580.587 239.726C580.496 240.027 580.398 240.342 580.307 240.65C575.505 256.569 571.32 277.827 568.562 302.339Z" fill="#B8C1C9"/>
<path d="M476.82 339.397C478.031 339.11 479.242 338.809 480.453 338.501C481.419 338.256 482.385 338.012 483.358 337.746C483.736 332.778 484.198 327.886 484.736 323.086C490.259 273.572 505.441 222.408 520.819 191.675C521.491 190.359 521.365 187.413 517.074 187.043C513.322 186.714 510.991 187.525 510.319 188.848C510.292 188.904 509.515 190.548 508.185 193.662C489.202 238.04 481.475 275.63 477.926 321.309C477.464 327.194 477.093 333.232 476.82 339.397Z" fill="#EE9849"/>
<path d="M594.439 223.303C595.853 223.303 597.106 222.4 597.351 221.127C597.624 219.699 596.546 218.349 594.936 218.104C592.374 217.719 531.941 208.699 504.895 216.222C503.334 216.655 502.473 218.125 502.956 219.503C503.446 220.882 505.105 221.652 506.666 221.218C532.361 214.073 593.326 223.17 593.942 223.268C594.103 223.289 594.271 223.303 594.439 223.303Z" fill="#B8C1C9"/>
<path d="M587.53 240.65C588.944 240.65 590.19 239.747 590.442 238.474C590.715 237.046 589.637 235.696 588.027 235.451C585.465 235.066 525.032 226.039 497.986 233.568C496.425 234.002 495.565 235.472 496.048 236.85C496.537 238.229 498.196 238.998 499.75 238.565C525.452 231.413 586.41 240.517 587.026 240.615C587.194 240.636 587.362 240.65 587.53 240.65Z" fill="#B8C1C9"/>
<path d="M321.601 295.684C319.522 291.255 317.562 286.553 315.728 281.647H416.002C417.934 281.647 419.516 283.222 419.516 285.16V292.179C419.516 294.11 417.941 295.691 416.002 295.691H321.601V295.684Z" fill="#131F2D"/>
<path d="M533.124 95.4957C533.432 94.3061 537.219 81.6268 556.999 85.3074C556.999 85.3074 547.088 84.3208 544.477 88.1904C544.477 88.1904 552.212 84.4048 557.195 87.2737C562.172 90.1496 563.243 100.219 562.585 103.312C561.934 106.405 556.754 115.69 553.17 115.781C551.813 115.816 550.35 115.403 549.055 114.871C549.643 116.481 550.189 118.237 550.651 120.162C554.92 137.977 543.357 151.902 537.107 148.697C533.103 146.64 529.022 154.953 529.022 154.953L496.377 111.023C496.377 111.023 518.516 82.9913 533.124 95.4957Z" fill="#131F2D"/>
<path d="M346.511 329.146C371.353 346.373 411.963 351.237 457.978 343.288C464.165 342.217 470.451 340.922 476.813 339.39C478.024 339.103 479.235 338.802 480.446 338.494C481.412 338.249 482.378 338.004 483.351 337.739C483.729 337.641 484.114 337.536 484.499 337.438C486.416 336.927 488.341 336.395 490.266 335.835H490.273C490.973 335.632 491.666 335.436 492.366 335.219C495.502 334.296 498.644 333.316 501.801 332.281H501.808C502.683 331.994 503.551 331.7 504.426 331.406C508.836 329.915 513.266 328.327 517.704 326.62C519.216 326.039 520.728 325.451 522.24 324.842L513.763 320.35L501.346 313.772C501.346 313.772 496.818 313.842 489.321 314.024C488.222 314.045 487.053 314.073 485.835 314.115C483.582 314.171 481.125 314.234 478.5 314.311C469.429 314.57 458.342 314.941 446.485 315.452C406.287 317.187 357.354 320.546 349.101 326.767C348.296 327.375 347.435 328.166 346.511 329.146Z" fill="#131F2D"/>
<path d="M492.359 335.227C495.495 334.303 498.638 333.323 501.795 332.288H501.802C502.677 332.001 503.544 331.707 504.419 331.413C508.829 329.923 513.26 328.334 517.697 326.627C519.209 326.046 520.721 325.458 522.233 324.849L513.757 320.357L494.011 328.733C494.011 328.719 494.214 331.329 492.359 335.227Z" fill="#131F2D"/>
<path d="M379.192 267.555C381.761 259.872 388.851 259.55 388.851 259.55C388.851 259.55 395.655 259.053 400.562 260.488C405.461 261.929 413.616 259.081 413.616 259.081C413.616 259.081 443.496 248.697 450.482 244.352C465.467 235.024 492.569 174.58 501.802 181.949C501.802 181.949 513.729 193.201 507.177 212.548C500.626 231.896 474.742 258.535 459.028 262.832C447.423 266.008 417.087 267.702 413.063 267.912C408.051 268.556 401.254 271.452 399.442 271.592C397.433 271.746 392.946 268.765 389.845 269.206C378.534 270.816 379.192 267.555 379.192 267.555Z" fill="#EF6343"/>
<path d="M496.447 182.655C508.829 182.83 522.548 181.543 534.279 179.996C532.116 176.386 529.54 165.973 528.812 151.601V151.552L524.452 151.783L503.81 152.881C503.81 152.881 503.831 153.182 503.873 153.707C504.069 156.485 504.685 165.596 504.58 170.725C504.538 172.698 503.516 176.952 503.201 177.162C500.947 179.101 498.687 180.899 496.447 182.655Z" fill="#FF7955"/>
<path d="M504.58 170.725C517.089 169.241 525.082 158.255 528.813 151.594C528.855 151.517 528.904 151.433 528.953 151.356L524.452 151.776L503.874 153.7C504.07 156.485 504.685 165.596 504.58 170.725Z" fill="#EF6343"/>
<path d="M502.809 161.131C502.809 161.131 532.081 160.858 531.633 142.637C531.185 124.416 534.657 112.107 515.947 111.513C497.238 110.918 493.78 117.957 492.45 124.08C491.127 130.196 495.187 160.732 502.809 161.131Z" fill="#FF7955"/>
<path d="M493.059 113.92C497.441 108.322 500.892 109.435 502.844 111.037C518.607 101.835 529.253 114.564 529.253 114.564C531.549 127.586 541.173 134.835 541.173 134.835C541.173 134.835 535.924 138.264 523.549 135.423C519.769 134.555 516.346 131.973 513.414 128.81C518.607 137.018 525.53 142.854 525.53 142.854C510.67 136.445 504.244 116.18 503.6 114.032C501.857 115.683 498.428 119.259 497.441 122.702C496.104 127.376 495.691 136.948 492.898 136.696C492.898 136.689 486.494 122.317 493.059 113.92Z" fill="#131F2D"/>
<path d="M473.979 216.432C473.979 216.432 455.164 240.748 450.887 241.126C446.611 241.504 448.606 257.689 450.887 261.852C453.169 266.016 467.812 274.93 477.17 265.344C486.522 255.758 473.979 216.432 473.979 216.432Z" fill="#449574"/>
<path d="M446.478 315.452C447.318 316.361 448.739 317.012 450.88 317.327C458.426 318.405 469.016 319.398 477.912 321.302C480.341 321.819 482.644 322.407 484.73 323.086C489.118 324.506 492.52 326.326 494.011 328.726C495.236 330.699 498.127 331.805 501.794 332.288H501.801C502.676 332.001 503.544 331.707 504.419 331.413C508.829 329.922 513.26 328.334 517.697 326.627C519.209 326.046 520.721 325.458 522.233 324.849C524.039 324.136 525.838 323.394 527.643 322.631C527.972 322.498 528.308 322.358 528.651 322.211C529.806 321.721 530.961 321.232 532.123 320.721C531.773 308.405 527.146 280.759 530.429 275.266C532.886 271.165 540.263 251.957 545.807 236.416C546.444 234.639 547.06 232.903 547.634 231.252C548.18 229.685 548.691 228.187 549.167 226.781C550.231 223.646 551.092 220.966 551.673 219.014C552.065 217.691 552.316 216.697 552.414 216.11C552.512 215.494 552.645 214.717 552.771 213.801C553.912 206.047 555.424 188.736 542.538 183.25C542.538 183.25 535.553 180.248 534.979 177.785C534.846 177.204 534.825 176.294 534.818 175.266V175.259C534.79 171.928 534.881 167.366 531.633 168.66C531.367 168.765 531.101 168.884 530.842 169.01C526.818 170.879 522.443 174.531 515.632 174.174C511.216 173.943 507.156 172.656 504.447 172.159C502.711 171.837 501.528 171.844 501.158 172.663C500.213 174.72 502.774 177.47 501.221 178.863C501.214 178.87 501.214 178.87 501.214 178.87C501.193 178.891 501.179 178.905 501.165 178.919C501.158 178.926 501.144 178.94 501.13 178.947C501.123 178.954 501.102 178.968 501.088 178.981C501.081 178.988 501.081 178.989 501.074 178.989C498.82 180.689 478.157 193.445 471.704 211.932C471.704 211.932 469.954 216.39 468.456 222.33V222.337C468.337 222.82 468.211 223.31 468.099 223.814V223.821C467.147 227.9 466.384 232.533 466.384 236.836C466.384 237.718 466.391 238.606 466.419 239.502C466.496 243.204 466.72 247.031 466.79 250.754C466.811 251.615 466.818 252.461 466.818 253.308C466.811 255.484 466.734 257.611 466.51 259.634C466.503 259.669 466.503 259.697 466.503 259.725C466.468 260.06 466.433 260.389 466.384 260.718C465.971 263.748 465.558 266.722 465.124 269.556C464.564 273.236 463.983 276.686 463.403 279.758C463.263 280.486 463.123 281.2 462.983 281.885C462.381 284.796 461.779 287.28 461.177 289.163C460.603 290.975 460.022 292.234 459.455 292.801C454.611 297.636 441.816 310.428 446.478 315.452Z" fill="#51AB86"/>
<path d="M376.049 268.017C376.42 266.876 377.428 265.169 378.38 263.454C379.332 261.747 386.556 254.337 389.404 253.574C392.253 252.811 406.217 256.709 406.217 256.709C406.217 256.709 461.128 257.43 469.891 252.049C481.293 245.044 508.997 216.033 528.266 201.226C537.457 194.166 544.729 190.338 547.417 193.655C547.417 193.655 554.752 200.695 545.52 218.09C545.009 219.063 544.442 220.07 543.812 221.106C532.018 240.713 486.725 278.492 468.519 279.73C450.321 280.976 404.159 265.519 404.159 265.519C404.159 265.519 399.351 264.21 396.88 266.106C394.409 268.01 384.869 267.653 383.511 268.954C380.963 271.403 375.434 269.913 376.049 268.017Z" fill="#FF7955"/>
<path d="M462.969 281.851C463.683 281.291 464.572 280.612 465.614 279.807H465.621C470.052 276.379 477.22 270.9 485.521 264.679C489.371 261.789 493.472 258.738 497.651 255.666C507.191 248.662 517.158 241.517 525.656 235.836C528.525 233.918 531.22 232.169 533.677 230.637H533.684C535.84 229.3 537.814 228.138 539.55 227.194C540.606 226.62 541.565 226.13 542.433 225.717H542.44C543.539 225.207 544.484 224.836 545.247 224.626C547.004 224.143 548.278 224.962 549.167 226.753C548.691 228.159 548.173 229.657 547.634 231.224C547.06 232.883 546.444 234.611 545.807 236.388C540.264 251.93 532.879 271.144 530.429 275.238C527.21 280.626 531.661 308.049 532.158 320.721C522.499 324.913 512.301 328.824 501.732 332.288C497.777 331.679 495.152 330.545 494.011 328.705C494.459 323.338 492.499 318.391 489.322 314.011C488.419 312.765 487.418 311.568 486.34 310.414C486.34 310.414 486.34 310.414 486.34 310.407C484.261 308.175 481.916 306.118 479.494 304.263C470.024 297 459.441 292.752 459.441 292.752C460.008 292.179 460.589 290.919 461.163 289.114C461.765 287.246 462.374 284.761 462.969 281.851Z" fill="#449574"/>
<path d="M466.489 259.689C484.345 252.104 528.644 209.161 529.281 208.545C528.77 208.72 514.484 202.346 479.865 233.848C475.855 237.494 470.213 244.876 468.911 248.074C467.35 251.922 466.818 256.709 466.489 259.689Z" fill="#449574"/>
<path d="M543.539 192.452C543.539 192.452 534.797 193.718 526.244 200.373C517.69 207.02 474.966 248.746 467.819 250.495C460.673 252.244 445.281 251.419 445.47 255.918C445.659 260.417 449.075 282.459 453.638 286.448C458.202 290.436 482.336 292.339 492.793 285.685C503.243 279.037 555.13 216.523 551.904 203.032C548.67 189.541 543.539 192.452 543.539 192.452Z" fill="#51AB86"/>
<path d="M523.444 183.229C528.008 182.096 542.546 183.229 542.546 183.229C542.546 183.229 535.56 180.227 534.993 177.764C534.853 177.183 534.839 176.274 534.825 175.245C534.09 178.247 531.857 179.66 525.866 179.947C519.881 180.234 518.881 184.363 523.444 183.229Z" fill="#449574"/>
<path d="M350.095 278.058H403.9C404.887 278.058 405.692 278.863 405.692 279.849C405.692 280.836 404.887 281.641 403.9 281.641H350.095C349.108 281.641 348.303 280.836 348.303 279.849C348.303 278.87 349.108 278.058 350.095 278.058Z" fill="#449574"/>
<path d="M331.155 227.621C332.079 227.285 333.115 227.768 333.458 228.691L351.852 279.241C352.188 280.171 351.705 281.2 350.781 281.543C349.857 281.879 348.821 281.396 348.478 280.472L330.084 229.923C329.741 228.992 330.224 227.957 331.155 227.621Z" fill="#449574"/>
<path d="M290.313 64.679H436.322C440.339 64.679 443.622 67.9607 443.622 71.9772V146.017C443.622 150.033 440.339 153.315 436.322 153.315H423.975L429.938 178.478L392.519 153.315H290.313C286.295 153.315 283.013 150.033 283.013 146.017V71.9772C283.013 67.9607 286.295 64.679 290.313 64.679Z" fill="#51AB86"/>
<path d="M114.069 385.016H257.412C261.352 385.016 264.577 388.239 264.577 392.178V464.87C264.577 468.809 261.352 472.033 257.412 472.033H245.296L251.147 496.738L214.41 472.033H114.069C110.128 472.033 106.904 468.809 106.904 464.87V392.185C106.904 388.239 110.128 385.016 114.069 385.016Z" fill="#F8DC7F"/>
<path d="M137.651 419C137.537 419 137.441 418.96 137.362 418.881C137.282 418.802 137.243 418.705 137.243 418.592V407.525C137.243 407.4 137.282 407.298 137.362 407.219C137.441 407.14 137.537 407.1 137.651 407.1H142.054C143.425 407.1 144.507 407.417 145.301 408.052C146.094 408.687 146.491 409.61 146.491 410.823C146.491 411.662 146.281 412.359 145.862 412.914C145.454 413.469 144.904 413.872 144.213 414.121L146.695 418.456C146.729 418.524 146.746 418.586 146.746 418.643C146.746 418.745 146.706 418.83 146.627 418.898C146.559 418.966 146.479 419 146.389 419H144.842C144.649 419 144.502 418.949 144.4 418.847C144.298 418.745 144.218 418.643 144.162 418.541L141.969 414.512H139.606V418.592C139.606 418.705 139.566 418.802 139.487 418.881C139.419 418.96 139.322 419 139.198 419H137.651ZM139.606 412.591H142.003C142.694 412.591 143.21 412.438 143.55 412.132C143.89 411.815 144.06 411.373 144.06 410.806C144.06 410.239 143.89 409.797 143.55 409.48C143.221 409.151 142.705 408.987 142.003 408.987H139.606V412.591ZM152.186 419.17C150.928 419.17 149.93 418.807 149.194 418.082C148.457 417.357 148.06 416.325 148.004 414.988C147.992 414.875 147.987 414.733 147.987 414.563C147.987 414.382 147.992 414.24 148.004 414.138C148.049 413.277 148.242 412.54 148.582 411.928C148.933 411.305 149.415 410.829 150.027 410.5C150.639 410.16 151.358 409.99 152.186 409.99C153.104 409.99 153.874 410.183 154.498 410.568C155.121 410.942 155.591 411.469 155.909 412.149C156.226 412.818 156.385 413.594 156.385 414.478V414.835C156.385 414.948 156.345 415.045 156.266 415.124C156.186 415.203 156.084 415.243 155.96 415.243H150.316C150.316 415.243 150.316 415.26 150.316 415.294C150.316 415.328 150.316 415.356 150.316 415.379C150.327 415.776 150.401 416.144 150.537 416.484C150.684 416.813 150.894 417.079 151.166 417.283C151.449 417.487 151.783 417.589 152.169 417.589C152.486 417.589 152.752 417.544 152.968 417.453C153.183 417.351 153.359 417.238 153.495 417.113C153.631 416.988 153.727 416.886 153.784 416.807C153.886 416.671 153.965 416.592 154.022 416.569C154.09 416.535 154.186 416.518 154.311 416.518H155.773C155.886 416.518 155.977 416.552 156.045 416.62C156.124 416.688 156.158 416.773 156.147 416.875C156.135 417.056 156.039 417.277 155.858 417.538C155.688 417.799 155.438 418.054 155.11 418.303C154.781 418.552 154.367 418.762 153.869 418.932C153.381 419.091 152.82 419.17 152.186 419.17ZM150.316 413.815H154.073V413.764C154.073 413.322 153.999 412.937 153.852 412.608C153.704 412.268 153.489 412.007 153.206 411.826C152.922 411.633 152.582 411.537 152.186 411.537C151.789 411.537 151.449 411.633 151.166 411.826C150.882 412.007 150.667 412.268 150.52 412.608C150.384 412.937 150.316 413.322 150.316 413.764V413.815ZM164.496 422.23C164.383 422.23 164.286 422.19 164.207 422.111C164.128 422.032 164.088 421.935 164.088 421.822V417.963C163.816 418.326 163.465 418.62 163.034 418.847C162.603 419.062 162.082 419.17 161.47 419.17C160.892 419.17 160.376 419.068 159.923 418.864C159.481 418.66 159.107 418.382 158.801 418.031C158.506 417.668 158.28 417.249 158.121 416.773C157.962 416.286 157.872 415.759 157.849 415.192C157.838 414.988 157.832 414.784 157.832 414.58C157.832 414.376 157.838 414.178 157.849 413.985C157.883 413.396 157.974 412.857 158.121 412.37C158.28 411.883 158.506 411.463 158.801 411.112C159.107 410.749 159.481 410.472 159.923 410.279C160.376 410.086 160.892 409.99 161.47 409.99C162.127 409.99 162.677 410.109 163.119 410.347C163.572 410.585 163.929 410.885 164.19 411.248V410.568C164.19 410.455 164.23 410.358 164.309 410.279C164.388 410.2 164.485 410.16 164.598 410.16H165.958C166.071 410.16 166.168 410.2 166.247 410.279C166.326 410.358 166.366 410.455 166.366 410.568V421.822C166.366 421.935 166.326 422.032 166.247 422.111C166.168 422.19 166.071 422.23 165.958 422.23H164.496ZM162.116 417.351C162.569 417.351 162.938 417.249 163.221 417.045C163.504 416.841 163.714 416.586 163.85 416.28C163.997 415.963 164.077 415.634 164.088 415.294C164.111 415.079 164.122 414.858 164.122 414.631C164.122 414.404 164.111 414.189 164.088 413.985C164.077 413.634 164.003 413.294 163.867 412.965C163.731 412.625 163.521 412.347 163.238 412.132C162.955 411.917 162.581 411.809 162.116 411.809C161.64 411.809 161.26 411.917 160.977 412.132C160.694 412.336 160.49 412.608 160.365 412.948C160.252 413.288 160.184 413.662 160.161 414.07C160.138 414.41 160.138 414.75 160.161 415.09C160.184 415.498 160.252 415.872 160.365 416.212C160.49 416.552 160.694 416.83 160.977 417.045C161.26 417.249 161.64 417.351 162.116 417.351ZM171.913 419.17C171.221 419.17 170.621 419.017 170.111 418.711C169.612 418.394 169.227 417.952 168.955 417.385C168.683 416.807 168.547 416.127 168.547 415.345V410.568C168.547 410.455 168.586 410.358 168.666 410.279C168.745 410.2 168.841 410.16 168.955 410.16H170.451C170.575 410.16 170.672 410.2 170.74 410.279C170.819 410.358 170.859 410.455 170.859 410.568V415.243C170.859 416.648 171.476 417.351 172.712 417.351C173.301 417.351 173.766 417.164 174.106 416.79C174.457 416.416 174.633 415.9 174.633 415.243V410.568C174.633 410.455 174.672 410.358 174.752 410.279C174.831 410.2 174.927 410.16 175.041 410.16H176.537C176.65 410.16 176.746 410.2 176.826 410.279C176.905 410.358 176.945 410.455 176.945 410.568V418.592C176.945 418.705 176.905 418.802 176.826 418.881C176.746 418.96 176.65 419 176.537 419H175.16C175.035 419 174.933 418.96 174.854 418.881C174.786 418.802 174.752 418.705 174.752 418.592V417.895C174.446 418.292 174.066 418.603 173.613 418.83C173.159 419.057 172.593 419.17 171.913 419.17ZM182.998 419.17C181.74 419.17 180.743 418.807 180.006 418.082C179.269 417.357 178.873 416.325 178.816 414.988C178.805 414.875 178.799 414.733 178.799 414.563C178.799 414.382 178.805 414.24 178.816 414.138C178.861 413.277 179.054 412.54 179.394 411.928C179.745 411.305 180.227 410.829 180.839 410.5C181.451 410.16 182.171 409.99 182.998 409.99C183.916 409.99 184.687 410.183 185.31 410.568C185.933 410.942 186.404 411.469 186.721 412.149C187.038 412.818 187.197 413.594 187.197 414.478V414.835C187.197 414.948 187.157 415.045 187.078 415.124C186.999 415.203 186.897 415.243 186.772 415.243H181.128C181.128 415.243 181.128 415.26 181.128 415.294C181.128 415.328 181.128 415.356 181.128 415.379C181.139 415.776 181.213 416.144 181.349 416.484C181.496 416.813 181.706 417.079 181.978 417.283C182.261 417.487 182.596 417.589 182.981 417.589C183.298 417.589 183.565 417.544 183.78 417.453C183.995 417.351 184.171 417.238 184.307 417.113C184.443 416.988 184.539 416.886 184.596 416.807C184.698 416.671 184.777 416.592 184.834 416.569C184.902 416.535 184.998 416.518 185.123 416.518H186.585C186.698 416.518 186.789 416.552 186.857 416.62C186.936 416.688 186.97 416.773 186.959 416.875C186.948 417.056 186.851 417.277 186.67 417.538C186.5 417.799 186.251 418.054 185.922 418.303C185.593 418.552 185.18 418.762 184.681 418.932C184.194 419.091 183.633 419.17 182.998 419.17ZM181.128 413.815H184.885V413.764C184.885 413.322 184.811 412.937 184.664 412.608C184.517 412.268 184.301 412.007 184.018 411.826C183.735 411.633 183.395 411.537 182.998 411.537C182.601 411.537 182.261 411.633 181.978 411.826C181.695 412.007 181.479 412.268 181.332 412.608C181.196 412.937 181.128 413.322 181.128 413.764V413.815ZM192.351 419.17C191.671 419.17 191.087 419.091 190.6 418.932C190.124 418.773 189.733 418.575 189.427 418.337C189.121 418.099 188.894 417.861 188.747 417.623C188.599 417.385 188.52 417.187 188.509 417.028C188.497 416.903 188.531 416.807 188.611 416.739C188.701 416.66 188.798 416.62 188.9 416.62H190.243C190.288 416.62 190.328 416.626 190.362 416.637C190.396 416.648 190.441 416.682 190.498 416.739C190.645 416.864 190.798 416.994 190.957 417.13C191.127 417.266 191.325 417.385 191.552 417.487C191.778 417.578 192.062 417.623 192.402 417.623C192.844 417.623 193.212 417.538 193.507 417.368C193.813 417.187 193.966 416.932 193.966 416.603C193.966 416.365 193.898 416.172 193.762 416.025C193.637 415.878 193.399 415.747 193.048 415.634C192.696 415.509 192.198 415.379 191.552 415.243C190.917 415.096 190.39 414.909 189.971 414.682C189.551 414.455 189.24 414.172 189.036 413.832C188.832 413.492 188.73 413.095 188.73 412.642C188.73 412.2 188.86 411.781 189.121 411.384C189.393 410.976 189.789 410.642 190.311 410.381C190.843 410.12 191.501 409.99 192.283 409.99C192.895 409.99 193.427 410.069 193.881 410.228C194.334 410.375 194.708 410.562 195.003 410.789C195.309 411.016 195.541 411.248 195.7 411.486C195.858 411.713 195.943 411.911 195.955 412.081C195.966 412.206 195.932 412.308 195.853 412.387C195.773 412.455 195.683 412.489 195.581 412.489H194.323C194.266 412.489 194.215 412.478 194.17 412.455C194.124 412.432 194.079 412.404 194.034 412.37C193.909 412.257 193.773 412.138 193.626 412.013C193.478 411.877 193.297 411.764 193.082 411.673C192.878 411.582 192.606 411.537 192.266 411.537C191.835 411.537 191.506 411.633 191.28 411.826C191.053 412.007 190.94 412.24 190.94 412.523C190.94 412.716 190.991 412.886 191.093 413.033C191.206 413.169 191.427 413.299 191.756 413.424C192.084 413.549 192.583 413.679 193.252 413.815C194.011 413.951 194.612 414.155 195.054 414.427C195.507 414.688 195.824 414.994 196.006 415.345C196.198 415.685 196.295 416.065 196.295 416.484C196.295 416.994 196.142 417.453 195.836 417.861C195.541 418.269 195.099 418.592 194.51 418.83C193.932 419.057 193.212 419.17 192.351 419.17ZM202.011 419C201.331 419 200.759 418.881 200.294 418.643C199.83 418.405 199.484 418.054 199.257 417.589C199.031 417.113 198.917 416.524 198.917 415.821V411.962H197.574C197.461 411.962 197.365 411.922 197.285 411.843C197.206 411.764 197.166 411.662 197.166 411.537V410.568C197.166 410.455 197.206 410.358 197.285 410.279C197.365 410.2 197.461 410.16 197.574 410.16H198.917V407.338C198.917 407.225 198.951 407.128 199.019 407.049C199.099 406.97 199.201 406.93 199.325 406.93H200.702C200.816 406.93 200.912 406.97 200.991 407.049C201.071 407.128 201.11 407.225 201.11 407.338V410.16H203.235C203.349 410.16 203.445 410.2 203.524 410.279C203.604 410.358 203.643 410.455 203.643 410.568V411.537C203.643 411.662 203.604 411.764 203.524 411.843C203.445 411.922 203.349 411.962 203.235 411.962H201.11V415.651C201.11 416.116 201.19 416.478 201.348 416.739C201.518 417 201.807 417.13 202.215 417.13H203.388C203.502 417.13 203.598 417.17 203.677 417.249C203.757 417.328 203.796 417.425 203.796 417.538V418.592C203.796 418.705 203.757 418.802 203.677 418.881C203.598 418.96 203.502 419 203.388 419H202.011ZM212.852 419C212.172 419 211.6 418.881 211.135 418.643C210.67 418.405 210.325 418.054 210.098 417.589C209.871 417.113 209.758 416.524 209.758 415.821V411.962H208.415C208.302 411.962 208.205 411.922 208.126 411.843C208.047 411.764 208.007 411.662 208.007 411.537V410.568C208.007 410.455 208.047 410.358 208.126 410.279C208.205 410.2 208.302 410.16 208.415 410.16H209.758V407.338C209.758 407.225 209.792 407.128 209.86 407.049C209.939 406.97 210.041 406.93 210.166 406.93H211.543C211.656 406.93 211.753 406.97 211.832 407.049C211.911 407.128 211.951 407.225 211.951 407.338V410.16H214.076C214.189 410.16 214.286 410.2 214.365 410.279C214.444 410.358 214.484 410.455 214.484 410.568V411.537C214.484 411.662 214.444 411.764 214.365 411.843C214.286 411.922 214.189 411.962 214.076 411.962H211.951V415.651C211.951 416.116 212.03 416.478 212.189 416.739C212.359 417 212.648 417.13 213.056 417.13H214.229C214.342 417.13 214.439 417.17 214.518 417.249C214.597 417.328 214.637 417.425 214.637 417.538V418.592C214.637 418.705 214.597 418.802 214.518 418.881C214.439 418.96 214.342 419 214.229 419H212.852ZM220.055 419.17C219.149 419.17 218.384 419.011 217.76 418.694C217.148 418.377 216.678 417.929 216.349 417.351C216.032 416.773 215.851 416.099 215.805 415.328C215.794 415.124 215.788 414.875 215.788 414.58C215.788 414.285 215.794 414.036 215.805 413.832C215.851 413.05 216.038 412.376 216.366 411.809C216.706 411.231 217.182 410.783 217.794 410.466C218.418 410.149 219.171 409.99 220.055 409.99C220.939 409.99 221.687 410.149 222.299 410.466C222.923 410.783 223.399 411.231 223.727 411.809C224.067 412.376 224.26 413.05 224.305 413.832C224.317 414.036 224.322 414.285 224.322 414.58C224.322 414.875 224.317 415.124 224.305 415.328C224.26 416.099 224.073 416.773 223.744 417.351C223.427 417.929 222.957 418.377 222.333 418.694C221.721 419.011 220.962 419.17 220.055 419.17ZM220.055 417.487C220.656 417.487 221.121 417.3 221.449 416.926C221.778 416.541 221.959 415.98 221.993 415.243C222.005 415.073 222.01 414.852 222.01 414.58C222.01 414.308 222.005 414.087 221.993 413.917C221.959 413.18 221.778 412.625 221.449 412.251C221.121 411.866 220.656 411.673 220.055 411.673C219.455 411.673 218.99 411.866 218.661 412.251C218.333 412.625 218.151 413.18 218.117 413.917C218.106 414.087 218.1 414.308 218.1 414.58C218.1 414.852 218.106 415.073 218.117 415.243C218.151 415.98 218.333 416.541 218.661 416.926C218.99 417.3 219.455 417.487 220.055 417.487ZM130.824 449.17C130.234 449.17 129.702 449.057 129.226 448.83C128.75 448.592 128.37 448.28 128.087 447.895C127.815 447.498 127.679 447.056 127.679 446.569C127.679 445.776 128.002 445.147 128.648 444.682C129.294 444.206 130.138 443.889 131.181 443.73L133.51 443.39V443.033C133.51 442.557 133.391 442.189 133.153 441.928C132.915 441.667 132.507 441.537 131.929 441.537C131.521 441.537 131.186 441.622 130.926 441.792C130.676 441.951 130.489 442.166 130.365 442.438C130.274 442.585 130.144 442.659 129.974 442.659H128.631C128.506 442.659 128.41 442.625 128.342 442.557C128.285 442.489 128.257 442.398 128.257 442.285C128.268 442.104 128.342 441.883 128.478 441.622C128.625 441.361 128.84 441.112 129.124 440.874C129.418 440.625 129.798 440.415 130.263 440.245C130.727 440.075 131.288 439.99 131.946 439.99C132.66 439.99 133.26 440.081 133.748 440.262C134.246 440.432 134.643 440.664 134.938 440.959C135.232 441.254 135.448 441.599 135.584 441.996C135.72 442.393 135.788 442.812 135.788 443.254V448.592C135.788 448.705 135.748 448.802 135.669 448.881C135.589 448.96 135.493 449 135.38 449H134.003C133.878 449 133.776 448.96 133.697 448.881C133.629 448.802 133.595 448.705 133.595 448.592V447.929C133.447 448.133 133.249 448.331 133 448.524C132.75 448.717 132.444 448.875 132.082 449C131.73 449.113 131.311 449.17 130.824 449.17ZM131.402 447.555C131.798 447.555 132.155 447.47 132.473 447.3C132.801 447.13 133.056 446.869 133.238 446.518C133.43 446.155 133.527 445.702 133.527 445.158V444.801L131.827 445.073C131.158 445.175 130.659 445.339 130.331 445.566C130.002 445.793 129.838 446.07 129.838 446.399C129.838 446.648 129.911 446.864 130.059 447.045C130.217 447.215 130.416 447.345 130.654 447.436C130.892 447.515 131.141 447.555 131.402 447.555ZM138.393 452.23C138.28 452.23 138.184 452.19 138.104 452.111C138.025 452.032 137.985 451.935 137.985 451.822V440.568C137.985 440.455 138.025 440.358 138.104 440.279C138.184 440.2 138.28 440.16 138.393 440.16H139.736C139.861 440.16 139.957 440.2 140.025 440.279C140.105 440.358 140.144 440.455 140.144 440.568V441.248C140.416 440.885 140.773 440.585 141.215 440.347C141.657 440.109 142.207 439.99 142.864 439.99C143.465 439.99 143.986 440.086 144.428 440.279C144.87 440.472 145.239 440.749 145.533 441.112C145.828 441.463 146.055 441.883 146.213 442.37C146.372 442.857 146.463 443.396 146.485 443.985C146.497 444.178 146.502 444.376 146.502 444.58C146.502 444.784 146.497 444.988 146.485 445.192C146.474 445.759 146.389 446.286 146.23 446.773C146.072 447.249 145.839 447.668 145.533 448.031C145.239 448.382 144.87 448.66 144.428 448.864C143.986 449.068 143.465 449.17 142.864 449.17C142.252 449.17 141.731 449.062 141.3 448.847C140.87 448.62 140.518 448.326 140.246 447.963V451.822C140.246 451.935 140.207 452.032 140.127 452.111C140.059 452.19 139.963 452.23 139.838 452.23H138.393ZM142.235 447.351C142.723 447.351 143.102 447.249 143.374 447.045C143.646 446.83 143.845 446.552 143.969 446.212C144.094 445.872 144.168 445.498 144.19 445.09C144.202 444.75 144.202 444.41 144.19 444.07C144.168 443.662 144.094 443.288 143.969 442.948C143.845 442.608 143.646 442.336 143.374 442.132C143.102 441.917 142.723 441.809 142.235 441.809C141.771 441.809 141.391 441.917 141.096 442.132C140.813 442.347 140.603 442.625 140.467 442.965C140.343 443.294 140.269 443.634 140.246 443.985C140.235 444.189 140.229 444.404 140.229 444.631C140.229 444.858 140.235 445.079 140.246 445.294C140.258 445.634 140.337 445.963 140.484 446.28C140.632 446.586 140.847 446.841 141.13 447.045C141.414 447.249 141.782 447.351 142.235 447.351ZM148.836 452.23C148.722 452.23 148.626 452.19 148.547 452.111C148.467 452.032 148.428 451.935 148.428 451.822V440.568C148.428 440.455 148.467 440.358 148.547 440.279C148.626 440.2 148.722 440.16 148.836 440.16H150.179C150.303 440.16 150.4 440.2 150.468 440.279C150.547 440.358 150.587 440.455 150.587 440.568V441.248C150.859 440.885 151.216 440.585 151.658 440.347C152.1 440.109 152.649 439.99 153.307 439.99C153.907 439.99 154.429 440.086 154.871 440.279C155.313 440.472 155.681 440.749 155.976 441.112C156.27 441.463 156.497 441.883 156.656 442.37C156.814 442.857 156.905 443.396 156.928 443.985C156.939 444.178 156.945 444.376 156.945 444.58C156.945 444.784 156.939 444.988 156.928 445.192C156.916 445.759 156.831 446.286 156.673 446.773C156.514 447.249 156.282 447.668 155.976 448.031C155.681 448.382 155.313 448.66 154.871 448.864C154.429 449.068 153.907 449.17 153.307 449.17C152.695 449.17 152.173 449.062 151.743 448.847C151.312 448.62 150.961 448.326 150.689 447.963V451.822C150.689 451.935 150.649 452.032 150.57 452.111C150.502 452.19 150.405 452.23 150.281 452.23H148.836ZM152.678 447.351C153.165 447.351 153.545 447.249 153.817 447.045C154.089 446.83 154.287 446.552 154.412 446.212C154.536 445.872 154.61 445.498 154.633 445.09C154.644 444.75 154.644 444.41 154.633 444.07C154.61 443.662 154.536 443.288 154.412 442.948C154.287 442.608 154.089 442.336 153.817 442.132C153.545 441.917 153.165 441.809 152.678 441.809C152.213 441.809 151.833 441.917 151.539 442.132C151.255 442.347 151.046 442.625 150.91 442.965C150.785 443.294 150.711 443.634 150.689 443.985C150.677 444.189 150.672 444.404 150.672 444.631C150.672 444.858 150.677 445.079 150.689 445.294C150.7 445.634 150.779 445.963 150.927 446.28C151.074 446.586 151.289 446.841 151.573 447.045C151.856 447.249 152.224 447.351 152.678 447.351ZM159.261 449C159.148 449 159.052 448.96 158.972 448.881C158.893 448.802 158.853 448.705 158.853 448.592V440.585C158.853 440.46 158.893 440.358 158.972 440.279C159.052 440.2 159.148 440.16 159.261 440.16H160.638C160.752 440.16 160.848 440.2 160.927 440.279C161.018 440.358 161.063 440.46 161.063 440.585V441.282C161.324 440.919 161.658 440.642 162.066 440.449C162.486 440.256 162.967 440.16 163.511 440.16H164.208C164.333 440.16 164.429 440.2 164.497 440.279C164.577 440.358 164.616 440.455 164.616 440.568V441.792C164.616 441.905 164.577 442.002 164.497 442.081C164.429 442.16 164.333 442.2 164.208 442.2H162.882C162.338 442.2 161.913 442.353 161.607 442.659C161.313 442.954 161.165 443.373 161.165 443.917V448.592C161.165 448.705 161.126 448.802 161.046 448.881C160.967 448.96 160.865 449 160.74 449H159.261ZM169.736 449.17C168.829 449.17 168.064 449.011 167.441 448.694C166.829 448.377 166.359 447.929 166.03 447.351C165.713 446.773 165.531 446.099 165.486 445.328C165.475 445.124 165.469 444.875 165.469 444.58C165.469 444.285 165.475 444.036 165.486 443.832C165.531 443.05 165.718 442.376 166.047 441.809C166.387 441.231 166.863 440.783 167.475 440.466C168.098 440.149 168.852 439.99 169.736 439.99C170.62 439.99 171.368 440.149 171.98 440.466C172.603 440.783 173.079 441.231 173.408 441.809C173.748 442.376 173.941 443.05 173.986 443.832C173.997 444.036 174.003 444.285 174.003 444.58C174.003 444.875 173.997 445.124 173.986 445.328C173.941 446.099 173.754 446.773 173.425 447.351C173.108 447.929 172.637 448.377 172.014 448.694C171.402 449.011 170.643 449.17 169.736 449.17ZM169.736 447.487C170.337 447.487 170.801 447.3 171.13 446.926C171.459 446.541 171.64 445.98 171.674 445.243C171.685 445.073 171.691 444.852 171.691 444.58C171.691 444.308 171.685 444.087 171.674 443.917C171.64 443.18 171.459 442.625 171.13 442.251C170.801 441.866 170.337 441.673 169.736 441.673C169.135 441.673 168.671 441.866 168.342 442.251C168.013 442.625 167.832 443.18 167.798 443.917C167.787 444.087 167.781 444.308 167.781 444.58C167.781 444.852 167.787 445.073 167.798 445.243C167.832 445.98 168.013 446.541 168.342 446.926C168.671 447.3 169.135 447.487 169.736 447.487ZM178.699 449C178.518 449 178.382 448.96 178.291 448.881C178.212 448.79 178.144 448.688 178.087 448.575L174.908 440.687C174.885 440.63 174.874 440.579 174.874 440.534C174.874 440.432 174.908 440.347 174.976 440.279C175.055 440.2 175.146 440.16 175.248 440.16H176.625C176.761 440.16 176.863 440.2 176.931 440.279C176.999 440.347 177.044 440.415 177.067 440.483L179.328 446.45L181.589 440.483C181.612 440.415 181.657 440.347 181.725 440.279C181.793 440.2 181.895 440.16 182.031 440.16H183.425C183.516 440.16 183.595 440.2 183.663 440.279C183.742 440.347 183.782 440.432 183.782 440.534C183.782 440.579 183.776 440.63 183.765 440.687L180.569 448.575C180.524 448.688 180.456 448.79 180.365 448.881C180.274 448.96 180.138 449 179.957 449H178.699ZM188.825 449.17C187.567 449.17 186.57 448.807 185.833 448.082C185.097 447.357 184.7 446.325 184.643 444.988C184.632 444.875 184.626 444.733 184.626 444.563C184.626 444.382 184.632 444.24 184.643 444.138C184.689 443.277 184.881 442.54 185.221 441.928C185.573 441.305 186.054 440.829 186.666 440.5C187.278 440.16 187.998 439.99 188.825 439.99C189.743 439.99 190.514 440.183 191.137 440.568C191.761 440.942 192.231 441.469 192.548 442.149C192.866 442.818 193.024 443.594 193.024 444.478V444.835C193.024 444.948 192.985 445.045 192.905 445.124C192.826 445.203 192.724 445.243 192.599 445.243H186.955C186.955 445.243 186.955 445.26 186.955 445.294C186.955 445.328 186.955 445.356 186.955 445.379C186.967 445.776 187.04 446.144 187.176 446.484C187.324 446.813 187.533 447.079 187.805 447.283C188.089 447.487 188.423 447.589 188.808 447.589C189.126 447.589 189.392 447.544 189.607 447.453C189.823 447.351 189.998 447.238 190.134 447.113C190.27 446.988 190.367 446.886 190.423 446.807C190.525 446.671 190.605 446.592 190.661 446.569C190.729 446.535 190.826 446.518 190.95 446.518H192.412C192.526 446.518 192.616 446.552 192.684 446.62C192.764 446.688 192.798 446.773 192.786 446.875C192.775 447.056 192.679 447.277 192.497 447.538C192.327 447.799 192.078 448.054 191.749 448.303C191.421 448.552 191.007 448.762 190.508 448.932C190.021 449.091 189.46 449.17 188.825 449.17ZM186.955 443.815H190.712V443.764C190.712 443.322 190.639 442.937 190.491 442.608C190.344 442.268 190.129 442.007 189.845 441.826C189.562 441.633 189.222 441.537 188.825 441.537C188.429 441.537 188.089 441.633 187.805 441.826C187.522 442.007 187.307 442.268 187.159 442.608C187.023 442.937 186.955 443.322 186.955 443.764V443.815ZM201.937 449C201.756 449 201.614 448.955 201.512 448.864C201.41 448.773 201.337 448.66 201.291 448.524L197.653 437.61C197.631 437.553 197.619 437.502 197.619 437.457C197.619 437.355 197.653 437.27 197.721 437.202C197.789 437.134 197.874 437.1 197.976 437.1H199.472C199.631 437.1 199.75 437.145 199.829 437.236C199.92 437.315 199.977 437.395 199.999 437.474L202.872 446.229L205.745 437.474C205.768 437.395 205.819 437.315 205.898 437.236C205.989 437.145 206.114 437.1 206.272 437.1H207.768C207.859 437.1 207.938 437.134 208.006 437.202C208.086 437.27 208.125 437.355 208.125 437.457C208.125 437.502 208.114 437.553 208.091 437.61L204.453 448.524C204.408 448.66 204.334 448.773 204.232 448.864C204.13 448.955 203.989 449 203.807 449H201.937ZM209.896 449C209.783 449 209.686 448.96 209.607 448.881C209.528 448.802 209.488 448.705 209.488 448.592V440.568C209.488 440.455 209.528 440.358 209.607 440.279C209.686 440.2 209.783 440.16 209.896 440.16H211.307C211.432 440.16 211.528 440.2 211.596 440.279C211.675 440.358 211.715 440.455 211.715 440.568V448.592C211.715 448.705 211.675 448.802 211.596 448.881C211.528 448.96 211.432 449 211.307 449H209.896ZM209.828 438.698C209.715 438.698 209.618 438.658 209.539 438.579C209.46 438.5 209.42 438.403 209.42 438.29V437.066C209.42 436.953 209.46 436.856 209.539 436.777C209.618 436.698 209.715 436.658 209.828 436.658H211.375C211.5 436.658 211.602 436.698 211.681 436.777C211.76 436.856 211.8 436.953 211.8 437.066V438.29C211.8 438.403 211.76 438.5 211.681 438.579C211.602 438.658 211.5 438.698 211.375 438.698H209.828ZM217.519 449.17C216.839 449.17 216.255 449.091 215.768 448.932C215.292 448.773 214.901 448.575 214.595 448.337C214.289 448.099 214.062 447.861 213.915 447.623C213.767 447.385 213.688 447.187 213.677 447.028C213.665 446.903 213.699 446.807 213.779 446.739C213.869 446.66 213.966 446.62 214.068 446.62H215.411C215.456 446.62 215.496 446.626 215.53 446.637C215.564 446.648 215.609 446.682 215.666 446.739C215.813 446.864 215.966 446.994 216.125 447.13C216.295 447.266 216.493 447.385 216.72 447.487C216.946 447.578 217.23 447.623 217.57 447.623C218.012 447.623 218.38 447.538 218.675 447.368C218.981 447.187 219.134 446.932 219.134 446.603C219.134 446.365 219.066 446.172 218.93 446.025C218.805 445.878 218.567 445.747 218.216 445.634C217.864 445.509 217.366 445.379 216.72 445.243C216.085 445.096 215.558 444.909 215.139 444.682C214.719 444.455 214.408 444.172 214.204 443.832C214 443.492 213.898 443.095 213.898 442.642C213.898 442.2 214.028 441.781 214.289 441.384C214.561 440.976 214.957 440.642 215.479 440.381C216.011 440.12 216.669 439.99 217.451 439.99C218.063 439.99 218.595 440.069 219.049 440.228C219.502 440.375 219.876 440.562 220.171 440.789C220.477 441.016 220.709 441.248 220.868 441.486C221.026 441.713 221.111 441.911 221.123 442.081C221.134 442.206 221.1 442.308 221.021 442.387C220.941 442.455 220.851 442.489 220.749 442.489H219.491C219.434 442.489 219.383 442.478 219.338 442.455C219.292 442.432 219.247 442.404 219.202 442.37C219.077 442.257 218.941 442.138 218.794 442.013C218.646 441.877 218.465 441.764 218.25 441.673C218.046 441.582 217.774 441.537 217.434 441.537C217.003 441.537 216.674 441.633 216.448 441.826C216.221 442.007 216.108 442.24 216.108 442.523C216.108 442.716 216.159 442.886 216.261 443.033C216.374 443.169 216.595 443.299 216.924 443.424C217.252 443.549 217.751 443.679 218.42 443.815C219.179 443.951 219.78 444.155 220.222 444.427C220.675 444.688 220.992 444.994 221.174 445.345C221.366 445.685 221.463 446.065 221.463 446.484C221.463 446.994 221.31 447.453 221.004 447.861C220.709 448.269 220.267 448.592 219.678 448.83C219.1 449.057 218.38 449.17 217.519 449.17ZM223.625 449C223.512 449 223.416 448.96 223.336 448.881C223.257 448.802 223.217 448.705 223.217 448.592V440.568C223.217 440.455 223.257 440.358 223.336 440.279C223.416 440.2 223.512 440.16 223.625 440.16H225.036C225.161 440.16 225.257 440.2 225.325 440.279C225.405 440.358 225.444 440.455 225.444 440.568V448.592C225.444 448.705 225.405 448.802 225.325 448.881C225.257 448.96 225.161 449 225.036 449H223.625ZM223.557 438.698C223.444 438.698 223.348 438.658 223.268 438.579C223.189 438.5 223.149 438.403 223.149 438.29V437.066C223.149 436.953 223.189 436.856 223.268 436.777C223.348 436.698 223.444 436.658 223.557 436.658H225.104C225.229 436.658 225.331 436.698 225.41 436.777C225.49 436.856 225.529 436.953 225.529 437.066V438.29C225.529 438.403 225.49 438.5 225.41 438.579C225.331 438.658 225.229 438.698 225.104 438.698H223.557ZM231.695 449C231.015 449 230.443 448.881 229.978 448.643C229.513 448.405 229.168 448.054 228.941 447.589C228.714 447.113 228.601 446.524 228.601 445.821V441.962H227.258C227.145 441.962 227.048 441.922 226.969 441.843C226.89 441.764 226.85 441.662 226.85 441.537V440.568C226.85 440.455 226.89 440.358 226.969 440.279C227.048 440.2 227.145 440.16 227.258 440.16H228.601V437.338C228.601 437.225 228.635 437.128 228.703 437.049C228.782 436.97 228.884 436.93 229.009 436.93H230.386C230.499 436.93 230.596 436.97 230.675 437.049C230.754 437.128 230.794 437.225 230.794 437.338V440.16H232.919C233.032 440.16 233.129 440.2 233.208 440.279C233.287 440.358 233.327 440.455 233.327 440.568V441.537C233.327 441.662 233.287 441.764 233.208 441.843C233.129 441.922 233.032 441.962 232.919 441.962H230.794V445.651C230.794 446.116 230.873 446.478 231.032 446.739C231.202 447 231.491 447.13 231.899 447.13H233.072C233.185 447.13 233.282 447.17 233.361 447.249C233.44 447.328 233.48 447.425 233.48 447.538V448.592C233.48 448.705 233.44 448.802 233.361 448.881C233.282 448.96 233.185 449 233.072 449H231.695Z" fill="#191C21"/>
<path d="M290.903 99C290.812 99 290.727 98.966 290.648 98.898C290.58 98.83 290.546 98.745 290.546 98.643C290.546 98.5977 290.557 98.5467 290.58 98.49L294.677 87.525C294.711 87.4117 294.773 87.3153 294.864 87.236C294.966 87.1453 295.102 87.1 295.272 87.1H297.125C297.295 87.1 297.425 87.1453 297.516 87.236C297.607 87.3153 297.675 87.4117 297.72 87.525L301.817 98.49C301.828 98.5467 301.834 98.5977 301.834 98.643C301.834 98.745 301.8 98.83 301.732 98.898C301.664 98.966 301.585 99 301.494 99H300.015C299.856 99 299.737 98.966 299.658 98.898C299.59 98.8187 299.545 98.745 299.522 98.677L298.723 96.603H293.674L292.875 98.677C292.852 98.745 292.801 98.8187 292.722 98.898C292.654 98.966 292.541 99 292.382 99H290.903ZM294.269 94.648H298.128L296.19 89.395L294.269 94.648ZM303.642 102.23C303.529 102.23 303.432 102.19 303.353 102.111C303.274 102.032 303.234 101.935 303.234 101.822V90.568C303.234 90.4547 303.274 90.3583 303.353 90.279C303.432 90.1997 303.529 90.16 303.642 90.16H304.985C305.11 90.16 305.206 90.1997 305.274 90.279C305.353 90.3583 305.393 90.4547 305.393 90.568V91.248C305.665 90.8853 306.022 90.585 306.464 90.347C306.906 90.109 307.456 89.99 308.113 89.99C308.714 89.99 309.235 90.0863 309.677 90.279C310.119 90.4717 310.487 90.7493 310.782 91.112C311.077 91.4633 311.303 91.8827 311.462 92.37C311.621 92.8573 311.711 93.3957 311.734 93.985C311.745 94.1777 311.751 94.376 311.751 94.58C311.751 94.784 311.745 94.988 311.734 95.192C311.723 95.7587 311.638 96.2857 311.479 96.773C311.32 97.249 311.088 97.6683 310.782 98.031C310.487 98.3823 310.119 98.66 309.677 98.864C309.235 99.068 308.714 99.17 308.113 99.17C307.501 99.17 306.98 99.0623 306.549 98.847C306.118 98.6203 305.767 98.3257 305.495 97.963V101.822C305.495 101.935 305.455 102.032 305.376 102.111C305.308 102.19 305.212 102.23 305.087 102.23H303.642ZM307.484 97.351C307.971 97.351 308.351 97.249 308.623 97.045C308.895 96.8297 309.093 96.552 309.218 96.212C309.343 95.872 309.416 95.498 309.439 95.09C309.45 94.75 309.45 94.41 309.439 94.07C309.416 93.662 309.343 93.288 309.218 92.948C309.093 92.608 308.895 92.336 308.623 92.132C308.351 91.9167 307.971 91.809 307.484 91.809C307.019 91.809 306.64 91.9167 306.345 92.132C306.062 92.3473 305.852 92.625 305.716 92.965C305.591 93.2937 305.518 93.6337 305.495 93.985C305.484 94.189 305.478 94.4043 305.478 94.631C305.478 94.8577 305.484 95.0787 305.495 95.294C305.506 95.634 305.586 95.9627 305.733 96.28C305.88 96.586 306.096 96.841 306.379 97.045C306.662 97.249 307.031 97.351 307.484 97.351ZM314.084 102.23C313.971 102.23 313.875 102.19 313.795 102.111C313.716 102.032 313.676 101.935 313.676 101.822V90.568C313.676 90.4547 313.716 90.3583 313.795 90.279C313.875 90.1997 313.971 90.16 314.084 90.16H315.427C315.552 90.16 315.648 90.1997 315.716 90.279C315.796 90.3583 315.835 90.4547 315.835 90.568V91.248C316.107 90.8853 316.464 90.585 316.906 90.347C317.348 90.109 317.898 89.99 318.555 89.99C319.156 89.99 319.677 90.0863 320.119 90.279C320.561 90.4717 320.93 90.7493 321.224 91.112C321.519 91.4633 321.746 91.8827 321.904 92.37C322.063 92.8573 322.154 93.3957 322.176 93.985C322.188 94.1777 322.193 94.376 322.193 94.58C322.193 94.784 322.188 94.988 322.176 95.192C322.165 95.7587 322.08 96.2857 321.921 96.773C321.763 97.249 321.53 97.6683 321.224 98.031C320.93 98.3823 320.561 98.66 320.119 98.864C319.677 99.068 319.156 99.17 318.555 99.17C317.943 99.17 317.422 99.0623 316.991 98.847C316.561 98.6203 316.209 98.3257 315.937 97.963V101.822C315.937 101.935 315.898 102.032 315.818 102.111C315.75 102.19 315.654 102.23 315.529 102.23H314.084ZM317.926 97.351C318.414 97.351 318.793 97.249 319.065 97.045C319.337 96.8297 319.536 96.552 319.66 96.212C319.785 95.872 319.859 95.498 319.881 95.09C319.893 94.75 319.893 94.41 319.881 94.07C319.859 93.662 319.785 93.288 319.66 92.948C319.536 92.608 319.337 92.336 319.065 92.132C318.793 91.9167 318.414 91.809 317.926 91.809C317.462 91.809 317.082 91.9167 316.787 92.132C316.504 92.3473 316.294 92.625 316.158 92.965C316.034 93.2937 315.96 93.6337 315.937 93.985C315.926 94.189 315.92 94.4043 315.92 94.631C315.92 94.8577 315.926 95.0787 315.937 95.294C315.949 95.634 316.028 95.9627 316.175 96.28C316.323 96.586 316.538 96.841 316.821 97.045C317.105 97.249 317.473 97.351 317.926 97.351ZM324.51 99C324.396 99 324.3 98.9603 324.221 98.881C324.141 98.8017 324.102 98.7053 324.102 98.592V90.585C324.102 90.4603 324.141 90.3583 324.221 90.279C324.3 90.1997 324.396 90.16 324.51 90.16H325.887C326 90.16 326.096 90.1997 326.176 90.279C326.266 90.3583 326.312 90.4603 326.312 90.585V91.282C326.572 90.9193 326.907 90.6417 327.315 90.449C327.734 90.2563 328.216 90.16 328.76 90.16H329.457C329.581 90.16 329.678 90.1997 329.746 90.279C329.825 90.3583 329.865 90.4547 329.865 90.568V91.792C329.865 91.9053 329.825 92.0017 329.746 92.081C329.678 92.1603 329.581 92.2 329.457 92.2H328.131C327.587 92.2 327.162 92.353 326.856 92.659C326.561 92.9537 326.414 93.373 326.414 93.917V98.592C326.414 98.7053 326.374 98.8017 326.295 98.881C326.215 98.9603 326.113 99 325.989 99H324.51ZM334.984 99.17C334.078 99.17 333.313 99.0113 332.689 98.694C332.077 98.3767 331.607 97.929 331.278 97.351C330.961 96.773 330.78 96.0987 330.734 95.328C330.723 95.124 330.717 94.8747 330.717 94.58C330.717 94.2853 330.723 94.036 330.734 93.832C330.78 93.05 330.967 92.3757 331.295 91.809C331.635 91.231 332.111 90.7833 332.723 90.466C333.347 90.1487 334.1 89.99 334.984 89.99C335.868 89.99 336.616 90.1487 337.228 90.466C337.852 90.7833 338.328 91.231 338.656 91.809C338.996 92.3757 339.189 93.05 339.234 93.832C339.246 94.036 339.251 94.2853 339.251 94.58C339.251 94.8747 339.246 95.124 339.234 95.328C339.189 96.0987 339.002 96.773 338.673 97.351C338.356 97.929 337.886 98.3767 337.262 98.694C336.65 99.0113 335.891 99.17 334.984 99.17ZM334.984 97.487C335.585 97.487 336.05 97.3 336.378 96.926C336.707 96.5407 336.888 95.9797 336.922 95.243C336.934 95.073 336.939 94.852 336.939 94.58C336.939 94.308 336.934 94.087 336.922 93.917C336.888 93.1803 336.707 92.625 336.378 92.251C336.05 91.8657 335.585 91.673 334.984 91.673C334.384 91.673 333.919 91.8657 333.59 92.251C333.262 92.625 333.08 93.1803 333.046 93.917C333.035 94.087 333.029 94.308 333.029 94.58C333.029 94.852 333.035 95.073 333.046 95.243C333.08 95.9797 333.262 96.5407 333.59 96.926C333.919 97.3 334.384 97.487 334.984 97.487ZM343.948 99C343.766 99 343.63 98.9603 343.54 98.881C343.46 98.7903 343.392 98.6883 343.336 98.575L340.157 90.687C340.134 90.6303 340.123 90.5793 340.123 90.534C340.123 90.432 340.157 90.347 340.225 90.279C340.304 90.1997 340.395 90.16 340.497 90.16H341.874C342.01 90.16 342.112 90.1997 342.18 90.279C342.248 90.347 342.293 90.415 342.316 90.483L344.577 96.45L346.838 90.483C346.86 90.415 346.906 90.347 346.974 90.279C347.042 90.1997 347.144 90.16 347.28 90.16H348.674C348.764 90.16 348.844 90.1997 348.912 90.279C348.991 90.347 349.031 90.432 349.031 90.534C349.031 90.5793 349.025 90.6303 349.014 90.687L345.818 98.575C345.772 98.6883 345.704 98.7903 345.614 98.881C345.523 98.9603 345.387 99 345.206 99H343.948ZM354.074 99.17C352.816 99.17 351.818 98.8073 351.082 98.082C350.345 97.3567 349.948 96.3253 349.892 94.988C349.88 94.8747 349.875 94.733 349.875 94.563C349.875 94.3817 349.88 94.24 349.892 94.138C349.937 93.2767 350.13 92.54 350.47 91.928C350.821 91.3047 351.303 90.8287 351.915 90.5C352.527 90.16 353.246 89.99 354.074 89.99C354.992 89.99 355.762 90.1827 356.386 90.568C357.009 90.942 357.479 91.469 357.797 92.149C358.114 92.8177 358.273 93.594 358.273 94.478V94.835C358.273 94.9483 358.233 95.0447 358.154 95.124C358.074 95.2033 357.972 95.243 357.848 95.243H352.204C352.204 95.243 352.204 95.26 352.204 95.294C352.204 95.328 352.204 95.3563 352.204 95.379C352.215 95.7757 352.289 96.144 352.425 96.484C352.572 96.8127 352.782 97.079 353.054 97.283C353.337 97.487 353.671 97.589 354.057 97.589C354.374 97.589 354.64 97.5437 354.856 97.453C355.071 97.351 355.247 97.2377 355.383 97.113C355.519 96.9883 355.615 96.8863 355.672 96.807C355.774 96.671 355.853 96.5917 355.91 96.569C355.978 96.535 356.074 96.518 356.199 96.518H357.661C357.774 96.518 357.865 96.552 357.933 96.62C358.012 96.688 358.046 96.773 358.035 96.875C358.023 97.0563 357.927 97.2773 357.746 97.538C357.576 97.7987 357.326 98.0537 356.998 98.303C356.669 98.5523 356.255 98.762 355.757 98.932C355.269 99.0907 354.708 99.17 354.074 99.17ZM352.204 93.815H355.961V93.764C355.961 93.322 355.887 92.9367 355.74 92.608C355.592 92.268 355.377 92.0073 355.094 91.826C354.81 91.6333 354.47 91.537 354.074 91.537C353.677 91.537 353.337 91.6333 353.054 91.826C352.77 92.0073 352.555 92.268 352.408 92.608C352.272 92.9367 352.204 93.322 352.204 93.764V93.815ZM363.358 99.17C362.769 99.17 362.248 99.0737 361.794 98.881C361.352 98.677 360.984 98.3937 360.689 98.031C360.395 97.6683 360.168 97.2433 360.009 96.756C359.851 96.2573 359.76 95.7133 359.737 95.124C359.726 94.92 359.72 94.7387 359.72 94.58C359.72 94.41 359.726 94.223 359.737 94.019C359.76 93.4523 359.845 92.9253 359.992 92.438C360.151 91.9507 360.378 91.5257 360.672 91.163C360.978 90.789 361.352 90.5 361.794 90.296C362.248 90.092 362.769 89.99 363.358 89.99C363.97 89.99 364.486 90.0977 364.905 90.313C365.336 90.517 365.693 90.7833 365.976 91.112V87.338C365.976 87.2247 366.01 87.1283 366.078 87.049C366.158 86.9697 366.26 86.93 366.384 86.93H367.829C367.943 86.93 368.039 86.9697 368.118 87.049C368.198 87.1283 368.237 87.2247 368.237 87.338V98.592C368.237 98.7053 368.198 98.8017 368.118 98.881C368.039 98.9603 367.943 99 367.829 99H366.486C366.362 99 366.26 98.9603 366.18 98.881C366.112 98.8017 366.078 98.7053 366.078 98.592V97.963C365.795 98.3143 365.432 98.6033 364.99 98.83C364.56 99.0567 364.016 99.17 363.358 99.17ZM363.987 97.351C364.463 97.351 364.843 97.2433 365.126 97.028C365.41 96.8127 365.619 96.5407 365.755 96.212C365.891 95.872 365.965 95.5263 365.976 95.175C365.988 94.971 365.993 94.7557 365.993 94.529C365.993 94.291 365.988 94.07 365.976 93.866C365.965 93.526 365.886 93.203 365.738 92.897C365.591 92.5797 365.376 92.319 365.092 92.115C364.809 91.911 364.441 91.809 363.987 91.809C363.511 91.809 363.132 91.9167 362.848 92.132C362.576 92.336 362.378 92.608 362.253 92.948C362.129 93.288 362.055 93.662 362.032 94.07C362.021 94.41 362.021 94.75 362.032 95.09C362.055 95.498 362.129 95.872 362.253 96.212C362.378 96.552 362.576 96.8297 362.848 97.045C363.132 97.249 363.511 97.351 363.987 97.351ZM370.962 95.702C370.849 95.702 370.752 95.668 370.673 95.6C370.594 95.5207 370.554 95.4187 370.554 95.294V87.508C370.554 87.3947 370.594 87.2983 370.673 87.219C370.752 87.1397 370.849 87.1 370.962 87.1H372.339C372.464 87.1 372.56 87.1397 372.628 87.219C372.707 87.2983 372.747 87.3947 372.747 87.508V95.294C372.747 95.4187 372.707 95.5207 372.628 95.6C372.56 95.668 372.464 95.702 372.339 95.702H370.962ZM370.86 99C370.747 99 370.65 98.9603 370.571 98.881C370.492 98.8017 370.452 98.7053 370.452 98.592V97.011C370.452 96.8863 370.492 96.7843 370.571 96.705C370.65 96.6257 370.747 96.586 370.86 96.586H372.441C372.566 96.586 372.668 96.6257 372.747 96.705C372.826 96.7843 372.866 96.8863 372.866 97.011V98.592C372.866 98.7053 372.826 98.8017 372.747 98.881C372.668 98.9603 372.566 99 372.441 99H370.86ZM383.731 99.17C382.677 99.17 381.781 98.9887 381.045 98.626C380.319 98.252 379.764 97.725 379.379 97.045C378.993 96.3537 378.778 95.5263 378.733 94.563C378.721 94.0983 378.716 93.5997 378.716 93.067C378.716 92.5343 378.721 92.0243 378.733 91.537C378.778 90.585 378.993 89.7633 379.379 89.072C379.775 88.3807 380.336 87.8537 381.062 87.491C381.798 87.117 382.688 86.93 383.731 86.93C384.501 86.93 385.193 87.032 385.805 87.236C386.417 87.44 386.938 87.7233 387.369 88.086C387.799 88.4373 388.134 88.851 388.372 89.327C388.61 89.803 388.734 90.3187 388.746 90.874C388.757 90.976 388.723 91.061 388.644 91.129C388.576 91.197 388.491 91.231 388.389 91.231H386.774C386.649 91.231 386.547 91.2027 386.468 91.146C386.388 91.078 386.332 90.9703 386.298 90.823C386.116 90.075 385.805 89.565 385.363 89.293C384.921 89.021 384.371 88.885 383.714 88.885C382.954 88.885 382.348 89.1003 381.895 89.531C381.441 89.9503 381.198 90.6473 381.164 91.622C381.13 92.5513 381.13 93.5033 381.164 94.478C381.198 95.4527 381.441 96.1553 381.895 96.586C382.348 97.0053 382.954 97.215 383.714 97.215C384.371 97.215 384.921 97.079 385.363 96.807C385.816 96.5237 386.128 96.0137 386.298 95.277C386.332 95.1183 386.388 95.0107 386.468 94.954C386.547 94.8973 386.649 94.869 386.774 94.869H388.389C388.491 94.869 388.576 94.903 388.644 94.971C388.723 95.039 388.757 95.124 388.746 95.226C388.734 95.7813 388.61 96.297 388.372 96.773C388.134 97.249 387.799 97.6683 387.369 98.031C386.938 98.3823 386.417 98.66 385.805 98.864C385.193 99.068 384.501 99.17 383.731 99.17ZM390.983 99C390.869 99 390.773 98.9603 390.694 98.881C390.614 98.8017 390.575 98.7053 390.575 98.592V87.338C390.575 87.2247 390.614 87.1283 390.694 87.049C390.773 86.9697 390.869 86.93 390.983 86.93H392.394C392.507 86.93 392.603 86.9697 392.683 87.049C392.762 87.1283 392.802 87.2247 392.802 87.338V98.592C392.802 98.7053 392.762 98.8017 392.683 98.881C392.603 98.9603 392.507 99 392.394 99H390.983ZM395.847 99C395.733 99 395.637 98.9603 395.558 98.881C395.478 98.8017 395.439 98.7053 395.439 98.592V90.568C395.439 90.4547 395.478 90.3583 395.558 90.279C395.637 90.1997 395.733 90.16 395.847 90.16H397.258C397.382 90.16 397.479 90.1997 397.547 90.279C397.626 90.3583 397.666 90.4547 397.666 90.568V98.592C397.666 98.7053 397.626 98.8017 397.547 98.881C397.479 98.9603 397.382 99 397.258 99H395.847ZM395.779 88.698C395.665 88.698 395.569 88.6583 395.49 88.579C395.41 88.4997 395.371 88.4033 395.371 88.29V87.066C395.371 86.9527 395.41 86.8563 395.49 86.777C395.569 86.6977 395.665 86.658 395.779 86.658H397.326C397.45 86.658 397.552 86.6977 397.632 86.777C397.711 86.8563 397.751 86.9527 397.751 87.066V88.29C397.751 88.4033 397.711 88.4997 397.632 88.579C397.552 88.6583 397.45 88.698 397.326 88.698H395.779ZM403.796 99.17C402.98 99.17 402.26 99.017 401.637 98.711C401.025 98.405 400.543 97.963 400.192 97.385C399.852 96.7957 399.665 96.0873 399.631 95.26C399.62 95.09 399.614 94.869 399.614 94.597C399.614 94.3137 399.62 94.0813 399.631 93.9C399.665 93.0727 399.852 92.37 400.192 91.792C400.543 91.2027 401.025 90.755 401.637 90.449C402.26 90.143 402.98 89.99 403.796 89.99C404.521 89.99 405.139 90.092 405.649 90.296C406.159 90.4887 406.578 90.7437 406.907 91.061C407.236 91.367 407.479 91.69 407.638 92.03C407.808 92.3587 407.899 92.659 407.91 92.931C407.921 93.0557 407.882 93.1577 407.791 93.237C407.712 93.305 407.615 93.339 407.502 93.339H406.006C405.893 93.339 405.802 93.3107 405.734 93.254C405.677 93.1973 405.621 93.1123 405.564 92.999C405.394 92.5457 405.167 92.2283 404.884 92.047C404.612 91.8543 404.261 91.758 403.83 91.758C403.263 91.758 402.81 91.9393 402.47 92.302C402.141 92.6533 401.966 93.2143 401.943 93.985C401.92 94.4157 401.92 94.8123 401.943 95.175C401.966 95.957 402.141 96.5237 402.47 96.875C402.81 97.2263 403.263 97.402 403.83 97.402C404.272 97.402 404.629 97.3113 404.901 97.13C405.173 96.9373 405.394 96.6143 405.564 96.161C405.621 96.0477 405.677 95.9627 405.734 95.906C405.802 95.8493 405.893 95.821 406.006 95.821H407.502C407.615 95.821 407.712 95.8607 407.791 95.94C407.882 96.008 407.921 96.1043 407.91 96.229C407.899 96.433 407.842 96.6653 407.74 96.926C407.649 97.1753 407.496 97.436 407.281 97.708C407.077 97.9687 406.816 98.2123 406.499 98.439C406.182 98.6543 405.796 98.83 405.343 98.966C404.901 99.102 404.385 99.17 403.796 99.17ZM410.108 99C409.994 99 409.898 98.9603 409.819 98.881C409.739 98.8017 409.7 98.7053 409.7 98.592V87.338C409.7 87.2247 409.739 87.1283 409.819 87.049C409.898 86.9697 409.994 86.93 410.108 86.93H411.485C411.609 86.93 411.706 86.9697 411.774 87.049C411.853 87.1283 411.893 87.2247 411.893 87.338V93.152L414.749 90.449C414.862 90.3583 414.953 90.2903 415.021 90.245C415.1 90.1883 415.219 90.16 415.378 90.16H416.959C417.072 90.16 417.163 90.194 417.231 90.262C417.299 90.33 417.333 90.4207 417.333 90.534C417.333 90.5793 417.321 90.6303 417.299 90.687C417.276 90.7437 417.231 90.7947 417.163 90.84L413.661 94.121L417.588 98.337C417.701 98.4503 417.758 98.5467 417.758 98.626C417.758 98.7393 417.718 98.83 417.639 98.898C417.571 98.966 417.486 99 417.384 99H415.769C415.599 99 415.474 98.9773 415.395 98.932C415.327 98.8753 415.242 98.8017 415.14 98.711L411.893 95.294V98.592C411.893 98.7053 411.853 98.8017 411.774 98.881C411.706 98.9603 411.609 99 411.485 99H410.108ZM426.461 99C425.781 99 425.209 98.881 424.744 98.643C424.279 98.405 423.934 98.0537 423.707 97.589C423.48 97.113 423.367 96.5237 423.367 95.821V91.962H422.024C421.911 91.962 421.814 91.9223 421.735 91.843C421.656 91.7637 421.616 91.6617 421.616 91.537V90.568C421.616 90.4547 421.656 90.3583 421.735 90.279C421.814 90.1997 421.911 90.16 422.024 90.16H423.367V87.338C423.367 87.2247 423.401 87.1283 423.469 87.049C423.548 86.9697 423.65 86.93 423.775 86.93H425.152C425.265 86.93 425.362 86.9697 425.441 87.049C425.52 87.1283 425.56 87.2247 425.56 87.338V90.16H427.685C427.798 90.16 427.895 90.1997 427.974 90.279C428.053 90.3583 428.093 90.4547 428.093 90.568V91.537C428.093 91.6617 428.053 91.7637 427.974 91.843C427.895 91.9223 427.798 91.962 427.685 91.962H425.56V95.651C425.56 96.1157 425.639 96.4783 425.798 96.739C425.968 96.9997 426.257 97.13 426.665 97.13H427.838C427.951 97.13 428.048 97.1697 428.127 97.249C428.206 97.3283 428.246 97.4247 428.246 97.538V98.592C428.246 98.7053 428.206 98.8017 428.127 98.881C428.048 98.9603 427.951 99 427.838 99H426.461ZM433.664 99.17C432.757 99.17 431.992 99.0113 431.369 98.694C430.757 98.3767 430.287 97.929 429.958 97.351C429.641 96.773 429.459 96.0987 429.414 95.328C429.403 95.124 429.397 94.8747 429.397 94.58C429.397 94.2853 429.403 94.036 429.414 93.832C429.459 93.05 429.646 92.3757 429.975 91.809C430.315 91.231 430.791 90.7833 431.403 90.466C432.026 90.1487 432.78 89.99 433.664 89.99C434.548 89.99 435.296 90.1487 435.908 90.466C436.531 90.7833 437.007 91.231 437.336 91.809C437.676 92.3757 437.869 93.05 437.914 93.832C437.925 94.036 437.931 94.2853 437.931 94.58C437.931 94.8747 437.925 95.124 437.914 95.328C437.869 96.0987 437.682 96.773 437.353 97.351C437.036 97.929 436.565 98.3767 435.942 98.694C435.33 99.0113 434.571 99.17 433.664 99.17ZM433.664 97.487C434.265 97.487 434.729 97.3 435.058 96.926C435.387 96.5407 435.568 95.9797 435.602 95.243C435.613 95.073 435.619 94.852 435.619 94.58C435.619 94.308 435.613 94.087 435.602 93.917C435.568 93.1803 435.387 92.625 435.058 92.251C434.729 91.8657 434.265 91.673 433.664 91.673C433.063 91.673 432.599 91.8657 432.27 92.251C431.941 92.625 431.76 93.1803 431.726 93.917C431.715 94.087 431.709 94.308 431.709 94.58C431.709 94.852 431.715 95.073 431.726 95.243C431.76 95.9797 431.941 96.5407 432.27 96.926C432.599 97.3 433.063 97.487 433.664 97.487ZM317.387 129.17C316.48 129.17 315.715 129.011 315.092 128.694C314.48 128.377 314.009 127.929 313.681 127.351C313.363 126.773 313.182 126.099 313.137 125.328C313.125 125.124 313.12 124.875 313.12 124.58C313.12 124.285 313.125 124.036 313.137 123.832C313.182 123.05 313.369 122.376 313.698 121.809C314.038 121.231 314.514 120.783 315.126 120.466C315.749 120.149 316.503 119.99 317.387 119.99C318.271 119.99 319.019 120.149 319.631 120.466C320.254 120.783 320.73 121.231 321.059 121.809C321.399 122.376 321.591 123.05 321.637 123.832C321.648 124.036 321.654 124.285 321.654 124.58C321.654 124.875 321.648 125.124 321.637 125.328C321.591 126.099 321.404 126.773 321.076 127.351C320.758 127.929 320.288 128.377 319.665 128.694C319.053 129.011 318.293 129.17 317.387 129.17ZM317.387 127.487C317.987 127.487 318.452 127.3 318.781 126.926C319.109 126.541 319.291 125.98 319.325 125.243C319.336 125.073 319.342 124.852 319.342 124.58C319.342 124.308 319.336 124.087 319.325 123.917C319.291 123.18 319.109 122.625 318.781 122.251C318.452 121.866 317.987 121.673 317.387 121.673C316.786 121.673 316.321 121.866 315.993 122.251C315.664 122.625 315.483 123.18 315.449 123.917C315.437 124.087 315.432 124.308 315.432 124.58C315.432 124.852 315.437 125.073 315.449 125.243C315.483 125.98 315.664 126.541 315.993 126.926C316.321 127.3 316.786 127.487 317.387 127.487ZM323.962 132.23C323.849 132.23 323.753 132.19 323.673 132.111C323.594 132.032 323.554 131.935 323.554 131.822V120.568C323.554 120.455 323.594 120.358 323.673 120.279C323.753 120.2 323.849 120.16 323.962 120.16H325.305C325.43 120.16 325.526 120.2 325.594 120.279C325.674 120.358 325.713 120.455 325.713 120.568V121.248C325.985 120.885 326.342 120.585 326.784 120.347C327.226 120.109 327.776 119.99 328.433 119.99C329.034 119.99 329.555 120.086 329.997 120.279C330.439 120.472 330.808 120.749 331.102 121.112C331.397 121.463 331.624 121.883 331.782 122.37C331.941 122.857 332.032 123.396 332.054 123.985C332.066 124.178 332.071 124.376 332.071 124.58C332.071 124.784 332.066 124.988 332.054 125.192C332.043 125.759 331.958 126.286 331.799 126.773C331.641 127.249 331.408 127.668 331.102 128.031C330.808 128.382 330.439 128.66 329.997 128.864C329.555 129.068 329.034 129.17 328.433 129.17C327.821 129.17 327.3 129.062 326.869 128.847C326.439 128.62 326.087 128.326 325.815 127.963V131.822C325.815 131.935 325.776 132.032 325.696 132.111C325.628 132.19 325.532 132.23 325.407 132.23H323.962ZM327.804 127.351C328.292 127.351 328.671 127.249 328.943 127.045C329.215 126.83 329.414 126.552 329.538 126.212C329.663 125.872 329.737 125.498 329.759 125.09C329.771 124.75 329.771 124.41 329.759 124.07C329.737 123.662 329.663 123.288 329.538 122.948C329.414 122.608 329.215 122.336 328.943 122.132C328.671 121.917 328.292 121.809 327.804 121.809C327.34 121.809 326.96 121.917 326.665 122.132C326.382 122.347 326.172 122.625 326.036 122.965C325.912 123.294 325.838 123.634 325.815 123.985C325.804 124.189 325.798 124.404 325.798 124.631C325.798 124.858 325.804 125.079 325.815 125.294C325.827 125.634 325.906 125.963 326.053 126.28C326.201 126.586 326.416 126.841 326.699 127.045C326.983 127.249 327.351 127.351 327.804 127.351ZM337.788 129.17C336.53 129.17 335.532 128.807 334.796 128.082C334.059 127.357 333.662 126.325 333.606 124.988C333.594 124.875 333.589 124.733 333.589 124.563C333.589 124.382 333.594 124.24 333.606 124.138C333.651 123.277 333.844 122.54 334.184 121.928C334.535 121.305 335.017 120.829 335.629 120.5C336.241 120.16 336.96 119.99 337.788 119.99C338.706 119.99 339.476 120.183 340.1 120.568C340.723 120.942 341.193 121.469 341.511 122.149C341.828 122.818 341.987 123.594 341.987 124.478V124.835C341.987 124.948 341.947 125.045 341.868 125.124C341.788 125.203 341.686 125.243 341.562 125.243H335.918C335.918 125.243 335.918 125.26 335.918 125.294C335.918 125.328 335.918 125.356 335.918 125.379C335.929 125.776 336.003 126.144 336.139 126.484C336.286 126.813 336.496 127.079 336.768 127.283C337.051 127.487 337.385 127.589 337.771 127.589C338.088 127.589 338.354 127.544 338.57 127.453C338.785 127.351 338.961 127.238 339.097 127.113C339.233 126.988 339.329 126.886 339.386 126.807C339.488 126.671 339.567 126.592 339.624 126.569C339.692 126.535 339.788 126.518 339.913 126.518H341.375C341.488 126.518 341.579 126.552 341.647 126.62C341.726 126.688 341.76 126.773 341.749 126.875C341.737 127.056 341.641 127.277 341.46 127.538C341.29 127.799 341.04 128.054 340.712 128.303C340.383 128.552 339.969 128.762 339.471 128.932C338.983 129.091 338.422 129.17 337.788 129.17ZM335.918 123.815H339.675V123.764C339.675 123.322 339.601 122.937 339.454 122.608C339.306 122.268 339.091 122.007 338.808 121.826C338.524 121.633 338.184 121.537 337.788 121.537C337.391 121.537 337.051 121.633 336.768 121.826C336.484 122.007 336.269 122.268 336.122 122.608C335.986 122.937 335.918 123.322 335.918 123.764V123.815ZM344.199 129C344.086 129 343.99 128.96 343.91 128.881C343.831 128.802 343.791 128.705 343.791 128.592V120.568C343.791 120.455 343.831 120.358 343.91 120.279C343.99 120.2 344.086 120.16 344.199 120.16H345.593C345.707 120.16 345.803 120.2 345.882 120.279C345.962 120.358 346.001 120.455 346.001 120.568V121.265C346.296 120.902 346.67 120.602 347.123 120.364C347.588 120.115 348.16 119.99 348.84 119.99C349.532 119.99 350.132 120.149 350.642 120.466C351.152 120.772 351.543 121.208 351.815 121.775C352.099 122.342 352.24 123.022 352.24 123.815V128.592C352.24 128.705 352.201 128.802 352.121 128.881C352.042 128.96 351.946 129 351.832 129H350.336C350.223 129 350.127 128.96 350.047 128.881C349.968 128.802 349.928 128.705 349.928 128.592V123.917C349.928 123.26 349.764 122.744 349.435 122.37C349.118 121.996 348.653 121.809 348.041 121.809C347.452 121.809 346.982 121.996 346.63 122.37C346.279 122.744 346.103 123.26 346.103 123.917V128.592C346.103 128.705 346.064 128.802 345.984 128.881C345.905 128.96 345.809 129 345.695 129H344.199ZM361.947 129C361.267 129 360.695 128.881 360.23 128.643C359.766 128.405 359.42 128.054 359.193 127.589C358.967 127.113 358.853 126.524 358.853 125.821V121.962H357.51C357.397 121.962 357.301 121.922 357.221 121.843C357.142 121.764 357.102 121.662 357.102 121.537V120.568C357.102 120.455 357.142 120.358 357.221 120.279C357.301 120.2 357.397 120.16 357.51 120.16H358.853V117.338C358.853 117.225 358.887 117.128 358.955 117.049C359.035 116.97 359.137 116.93 359.261 116.93H360.638C360.752 116.93 360.848 116.97 360.927 117.049C361.007 117.128 361.046 117.225 361.046 117.338V120.16H363.171C363.285 120.16 363.381 120.2 363.46 120.279C363.54 120.358 363.579 120.455 363.579 120.568V121.537C363.579 121.662 363.54 121.764 363.46 121.843C363.381 121.922 363.285 121.962 363.171 121.962H361.046V125.651C361.046 126.116 361.126 126.478 361.284 126.739C361.454 127 361.743 127.13 362.151 127.13H363.324C363.438 127.13 363.534 127.17 363.613 127.249C363.693 127.328 363.732 127.425 363.732 127.538V128.592C363.732 128.705 363.693 128.802 363.613 128.881C363.534 128.96 363.438 129 363.324 129H361.947ZM365.665 129C365.552 129 365.456 128.96 365.376 128.881C365.297 128.802 365.257 128.705 365.257 128.592V117.338C365.257 117.225 365.297 117.128 365.376 117.049C365.456 116.97 365.552 116.93 365.665 116.93H367.178C367.303 116.93 367.399 116.97 367.467 117.049C367.547 117.128 367.586 117.225 367.586 117.338V121.214C367.892 120.851 368.266 120.557 368.708 120.33C369.15 120.103 369.694 119.99 370.34 119.99C371.032 119.99 371.632 120.149 372.142 120.466C372.664 120.772 373.066 121.208 373.349 121.775C373.633 122.342 373.774 123.022 373.774 123.815V128.592C373.774 128.705 373.735 128.802 373.655 128.881C373.576 128.96 373.48 129 373.366 129H371.836C371.723 129 371.627 128.96 371.547 128.881C371.468 128.802 371.428 128.705 371.428 128.592V123.917C371.428 123.26 371.264 122.744 370.935 122.37C370.618 121.996 370.153 121.809 369.541 121.809C368.952 121.809 368.476 121.996 368.113 122.37C367.762 122.744 367.586 123.26 367.586 123.917V128.592C367.586 128.705 367.547 128.802 367.467 128.881C367.399 128.96 367.303 129 367.178 129H365.665ZM379.74 129.17C378.482 129.17 377.484 128.807 376.748 128.082C376.011 127.357 375.614 126.325 375.558 124.988C375.546 124.875 375.541 124.733 375.541 124.563C375.541 124.382 375.546 124.24 375.558 124.138C375.603 123.277 375.796 122.54 376.136 121.928C376.487 121.305 376.969 120.829 377.581 120.5C378.193 120.16 378.912 119.99 379.74 119.99C380.658 119.99 381.428 120.183 382.052 120.568C382.675 120.942 383.145 121.469 383.463 122.149C383.78 122.818 383.939 123.594 383.939 124.478V124.835C383.939 124.948 383.899 125.045 383.82 125.124C383.74 125.203 383.638 125.243 383.514 125.243H377.87C377.87 125.243 377.87 125.26 377.87 125.294C377.87 125.328 377.87 125.356 377.87 125.379C377.881 125.776 377.955 126.144 378.091 126.484C378.238 126.813 378.448 127.079 378.72 127.283C379.003 127.487 379.337 127.589 379.723 127.589C380.04 127.589 380.306 127.544 380.522 127.453C380.737 127.351 380.913 127.238 381.049 127.113C381.185 126.988 381.281 126.886 381.338 126.807C381.44 126.671 381.519 126.592 381.576 126.569C381.644 126.535 381.74 126.518 381.865 126.518H383.327C383.44 126.518 383.531 126.552 383.599 126.62C383.678 126.688 383.712 126.773 383.701 126.875C383.689 127.056 383.593 127.277 383.412 127.538C383.242 127.799 382.992 128.054 382.664 128.303C382.335 128.552 381.921 128.762 381.423 128.932C380.935 129.091 380.374 129.17 379.74 129.17ZM377.87 123.815H381.627V123.764C381.627 123.322 381.553 122.937 381.406 122.608C381.258 122.268 381.043 122.007 380.76 121.826C380.476 121.633 380.136 121.537 379.74 121.537C379.343 121.537 379.003 121.633 378.72 121.826C378.436 122.007 378.221 122.268 378.074 122.608C377.938 122.937 377.87 123.322 377.87 123.764V123.815ZM390.053 129C389.94 129 389.843 128.96 389.764 128.881C389.685 128.802 389.645 128.705 389.645 128.592V117.338C389.645 117.225 389.685 117.128 389.764 117.049C389.843 116.97 389.94 116.93 390.053 116.93H391.43C391.555 116.93 391.651 116.97 391.719 117.049C391.798 117.128 391.838 117.225 391.838 117.338V123.152L394.694 120.449C394.807 120.358 394.898 120.29 394.966 120.245C395.045 120.188 395.164 120.16 395.323 120.16H396.904C397.017 120.16 397.108 120.194 397.176 120.262C397.244 120.33 397.278 120.421 397.278 120.534C397.278 120.579 397.267 120.63 397.244 120.687C397.221 120.744 397.176 120.795 397.108 120.84L393.606 124.121L397.533 128.337C397.646 128.45 397.703 128.547 397.703 128.626C397.703 128.739 397.663 128.83 397.584 128.898C397.516 128.966 397.431 129 397.329 129H395.714C395.544 129 395.419 128.977 395.34 128.932C395.272 128.875 395.187 128.802 395.085 128.711L391.838 125.294V128.592C391.838 128.705 391.798 128.802 391.719 128.881C391.651 128.96 391.555 129 391.43 129H390.053ZM402.368 129.17C401.11 129.17 400.112 128.807 399.376 128.082C398.639 127.357 398.242 126.325 398.186 124.988C398.174 124.875 398.169 124.733 398.169 124.563C398.169 124.382 398.174 124.24 398.186 124.138C398.231 123.277 398.424 122.54 398.764 121.928C399.115 121.305 399.597 120.829 400.209 120.5C400.821 120.16 401.54 119.99 402.368 119.99C403.286 119.99 404.056 120.183 404.68 120.568C405.303 120.942 405.773 121.469 406.091 122.149C406.408 122.818 406.567 123.594 406.567 124.478V124.835C406.567 124.948 406.527 125.045 406.448 125.124C406.368 125.203 406.266 125.243 406.142 125.243H400.498C400.498 125.243 400.498 125.26 400.498 125.294C400.498 125.328 400.498 125.356 400.498 125.379C400.509 125.776 400.583 126.144 400.719 126.484C400.866 126.813 401.076 127.079 401.348 127.283C401.631 127.487 401.965 127.589 402.351 127.589C402.668 127.589 402.934 127.544 403.15 127.453C403.365 127.351 403.541 127.238 403.677 127.113C403.813 126.988 403.909 126.886 403.966 126.807C404.068 126.671 404.147 126.592 404.204 126.569C404.272 126.535 404.368 126.518 404.493 126.518H405.955C406.068 126.518 406.159 126.552 406.227 126.62C406.306 126.688 406.34 126.773 406.329 126.875C406.317 127.056 406.221 127.277 406.04 127.538C405.87 127.799 405.62 128.054 405.292 128.303C404.963 128.552 404.549 128.762 404.051 128.932C403.563 129.091 403.002 129.17 402.368 129.17ZM400.498 123.815H404.255V123.764C404.255 123.322 404.181 122.937 404.034 122.608C403.886 122.268 403.671 122.007 403.388 121.826C403.104 121.633 402.764 121.537 402.368 121.537C401.971 121.537 401.631 121.633 401.348 121.826C401.064 122.007 400.849 122.268 400.702 122.608C400.566 122.937 400.498 123.322 400.498 123.764V123.815ZM409.604 132.23C409.513 132.23 409.434 132.196 409.366 132.128C409.298 132.06 409.264 131.981 409.264 131.89C409.264 131.845 409.264 131.799 409.264 131.754C409.275 131.72 409.298 131.675 409.332 131.618L410.658 128.473L407.394 120.772C407.349 120.659 407.326 120.579 407.326 120.534C407.337 120.432 407.377 120.347 407.445 120.279C407.513 120.2 407.598 120.16 407.7 120.16H409.077C409.213 120.16 409.315 120.194 409.383 120.262C409.451 120.33 409.502 120.404 409.536 120.483L411.797 126.042L414.126 120.483C414.16 120.392 414.211 120.319 414.279 120.262C414.347 120.194 414.449 120.16 414.585 120.16H415.945C416.036 120.16 416.115 120.194 416.183 120.262C416.262 120.33 416.302 120.409 416.302 120.5C416.302 120.568 416.279 120.659 416.234 120.772L411.423 131.907C411.378 131.998 411.321 132.071 411.253 132.128C411.185 132.196 411.083 132.23 410.947 132.23H409.604Z" fill="white"/>
<path d="M499.225 846.979H512.241V760.343C512.241 727.483 538.983 700.749 571.852 700.749C604.722 700.749 631.463 727.483 631.463 760.343V846.979H644.48V760.343C644.48 720.314 611.9 687.743 571.859 687.743C531.812 687.743 499.238 720.314 499.238 760.343V846.979H499.225Z" fill="#364154"/>
<path d="M125.746 745.742C129.338 745.742 132.254 742.827 132.254 739.235V576.914C132.254 573.323 129.338 570.408 125.746 570.408C122.153 570.408 119.238 573.323 119.238 576.914V739.235C119.238 742.827 122.147 745.742 125.746 745.742Z" fill="#364154"/>
<path d="M526.775 745.742C530.367 745.742 533.283 742.827 533.283 739.235V576.914C533.283 573.323 530.367 570.408 526.775 570.408C523.182 570.408 520.267 573.323 520.267 576.914V739.235C520.273 742.827 523.182 745.742 526.775 745.742Z" fill="#364154"/>
<path d="M96.7381 719.717H564.228C567.505 719.717 570.165 717.058 570.165 713.782V685.583C570.165 682.307 567.505 679.648 564.228 679.648H96.7381C93.461 679.648 90.8013 682.307 90.8013 685.583V713.782C90.8013 717.058 93.461 719.717 96.7381 719.717Z" fill="#B8C1C9"/>
<path d="M113.747 747.383H627.444C631.943 747.383 635.594 743.732 635.594 739.235C635.594 734.738 631.943 731.087 627.444 731.087H113.747V747.383Z" fill="#B8C1C9"/>
<path d="M93.4283 672.453H560.918C564.195 672.453 566.855 669.794 566.855 666.518V638.32C566.855 635.043 564.195 632.385 560.918 632.385H93.4283C90.1512 632.385 87.4915 635.043 87.4915 638.32V666.518C87.4915 669.8 90.1512 672.453 93.4283 672.453Z" fill="#B8C1C9"/>
<path d="M88.9754 623.482H556.465C559.742 623.482 562.402 620.823 562.402 617.546V589.348C562.402 586.072 559.742 583.413 556.465 583.413H88.9754C85.6983 583.413 83.0386 586.072 83.0386 589.348V617.546C83.0386 620.823 85.6983 623.482 88.9754 623.482Z" fill="#B8C1C9"/>
<path d="M106.904 846.979H119.92V760.343C119.92 727.483 146.662 700.749 179.531 700.749C212.4 700.749 239.142 727.483 239.142 760.343V846.979H252.159V760.343C252.159 720.314 219.578 687.743 179.538 687.743C139.491 687.743 106.917 720.314 106.917 760.343V846.979H106.904Z" fill="#364154"/>
<path d="M348.04 573.014C349.715 570.618 351.856 566.226 353.852 558.111C353.616 558.912 350.543 569.055 345.617 574.294C327.511 582.442 294.465 621.939 293.998 628.846C293.998 628.846 281.836 599.742 281.665 599.597C281.665 599.597 265.385 570.401 291.95 559.385C305.452 553.791 306.929 544.081 307.757 535.579C308.584 527.07 318.232 491.433 341.348 504.846C341.348 504.846 345.578 503.717 347.311 504.269C347.311 504.269 345.821 504.315 344.967 504.958C347.85 505.247 351.895 506.107 354.995 508.582C363.211 515.147 363.959 562.451 348.04 573.014Z" fill="#131F2D"/>
<path d="M344.96 566.219C344.96 566.219 349.964 586.454 350.135 593.721C350.188 596.046 355.474 600.996 357.734 607.962C360.367 616.096 359.434 636.107 362.79 655.009C363.585 659.486 364.99 666.354 369.298 667.805C377.744 670.641 385.474 674.252 386.886 674.915C389.283 676.044 386.465 675.21 388.573 675.946C392.31 677.265 394.024 671.527 394.477 668.612C394.727 667.03 391.89 664.167 384.633 657.294C380.673 653.538 377.626 649.494 377.271 636.856C376.463 608.119 370.494 585.456 365.115 578.575C360.557 572.745 344.96 566.219 344.96 566.219Z" fill="#F8DC7F"/>
<path d="M353.766 815.551C352.722 816.746 352.591 818.085 353.103 819.516C353.103 819.523 353.11 819.529 353.116 819.536C354.075 822.175 357.234 825.13 360.898 828.071C361.365 828.452 361.785 828.793 362.146 829.115C362.245 829.2 362.337 829.279 362.429 829.364C362.501 829.43 362.573 829.496 362.645 829.561C366.067 832.713 364.78 833.435 370.927 839.836C377.934 847.124 382.761 847.255 384.133 846.592C385.296 846.027 382.938 842.16 380.324 837.814C380.2 837.604 380.075 837.394 379.943 837.184C379.595 836.606 379.247 836.022 378.906 835.437C375.839 830.205 376.627 827.756 377.356 819.969C377.947 813.647 387.2 784.635 387.2 784.635L373.77 782.324C373.77 782.324 369.725 805.427 365.272 808.986C362.888 810.883 360.222 810.903 357.93 812.314C357.766 812.413 357.608 812.511 357.451 812.616C356.137 813.463 354.811 814.349 353.766 815.551Z" fill="#FF7955"/>
<path d="M353.766 815.551C352.722 816.746 352.591 818.085 353.103 819.516C353.103 819.523 353.11 819.529 353.116 819.536C354.285 822.175 357.365 825.11 360.912 828.045C361.378 828.432 361.785 828.78 362.146 829.115C362.245 829.2 362.337 829.279 362.429 829.364C362.501 829.43 362.573 829.496 362.645 829.561C366.067 832.713 364.78 833.435 370.927 839.836C377.934 847.124 382.761 847.255 384.133 846.592C385.296 846.027 382.938 842.16 380.324 837.814C378.958 837.315 372.621 834.741 367.833 828.609C363.611 823.226 360.8 816.306 357.923 812.301C357.759 812.4 357.602 812.498 357.444 812.603C356.137 813.463 354.811 814.349 353.766 815.551Z" fill="#131F2D"/>
<path d="M462.113 807.778C462.941 811.92 468.851 811.231 475.451 809.616C482.051 808.001 480.482 809.918 489.879 808.881C499.277 807.843 502.121 804.337 502.41 802.939C502.666 801.698 498.023 801.265 493.045 800.687C492.421 800.615 491.791 800.543 491.16 800.464C485.539 799.761 481.421 796.131 476.312 793.15C471.472 790.327 464.254 778.831 464.254 778.831L451.369 779.849C451.369 779.849 458.133 790.117 460.747 794.581C462.284 797.207 462.205 800.68 462.015 803.359C461.91 804.83 461.818 806.32 462.113 807.778Z" fill="#FF7955"/>
<path d="M475.451 809.616C482.051 808.001 480.482 809.918 489.879 808.881C499.277 807.843 502.121 804.338 502.41 802.939C502.666 801.698 498.023 801.265 493.045 800.687L492.999 800.786C492.999 800.786 487.364 804.777 479.543 804.968C473.166 805.125 466.415 803.294 462.015 803.366C461.916 804.823 461.818 806.314 462.113 807.771C462.941 811.921 468.851 811.231 475.451 809.616Z" fill="#131F2D"/>
<path d="M412.727 725.402L384.954 800.122C384.954 800.122 380.686 800.536 376.594 799.354C372.831 798.271 368.517 795.421 368.517 795.421C368.517 795.421 375.406 723.675 388.035 708.752C400.67 693.829 412.727 725.402 412.727 725.402Z" fill="#131F2D"/>
<path d="M302.877 695.169C302.877 695.169 382.682 668.192 400.48 673.93C418.277 679.668 471.715 785.954 471.715 785.954C471.715 785.954 470.513 787.556 467.216 788.791C464.156 789.939 456.741 789.867 456.741 789.867C456.741 789.867 408.518 748.545 402.772 736.491C397.032 724.437 394.733 712.961 388.993 714.11C383.254 715.259 314.928 742.236 299.429 726.164C283.931 710.092 287.983 689.214 287.983 689.214L302.877 695.169Z" fill="#364154"/>
<path d="M329.415 575.922C335.102 578.903 344.073 576.612 344.001 576.559C343.062 575.843 343.738 571.537 344.763 567.066C344.828 566.783 344.888 566.501 344.96 566.219C346.148 561.157 347.666 556.167 347.666 556.167L330.131 548.486L329.093 548.026C329.001 548.433 328.909 548.84 328.818 549.228C325.77 562.148 322.06 564.426 320.398 566.212C318.106 568.661 324.063 573.112 329.415 575.922Z" fill="#FF7955"/>
<path d="M328.818 549.228C330.755 555.452 334.827 562.976 345.085 565.674C346.273 560.612 347.659 556.161 347.659 556.161L330.125 548.48L329.087 548.02C329.002 548.434 328.91 548.841 328.818 549.228Z" fill="#EF6343"/>
<path d="M327.747 545.308C327.747 545.308 323.754 536.025 323.616 528.606C323.524 523.308 329.185 504.643 347.935 510.446C347.935 510.446 353.419 511.884 358.094 516.257C361.811 519.73 366.855 526.761 357.484 542.347L354.844 547.698L327.747 545.308Z" fill="#131F2D"/>
<path d="M353.964 608.848C358.764 623.665 362.258 658.889 364.353 663.425C367.223 669.643 382.045 674.041 384.633 673.798C380.068 664.062 372.766 666.629 369.725 654.306C363.985 631.038 355.185 604.764 355.185 604.764L353.964 608.848Z" fill="#EBD281"/>
<path d="M349.537 559.745C349.537 559.745 325.363 556.305 327.741 541.284C330.118 526.269 328.594 515.712 344.133 517.274C359.671 518.837 361.752 525.041 362.179 530.247C362.606 535.454 355.888 560.258 349.537 559.745Z" fill="#FF7955"/>
<path d="M355.172 518.66C355.172 518.66 345.761 535.224 335.221 536.215C324.674 537.207 320.714 533.793 320.714 533.793C320.714 533.793 321.305 525.054 324.634 514.543C324.628 514.537 351.527 509.481 355.172 518.66Z" fill="#131F2D"/>
<path d="M353.307 519.828C353.307 519.828 357.609 524.549 358.206 528.56C358.797 532.572 358.088 540.529 360.426 540.627C360.426 540.627 367.309 529.447 362.797 521.785C358.009 513.657 353.307 519.828 353.307 519.828Z" fill="#131F2D"/>
<path d="M283.635 691.571C283.622 691.919 283.622 692.26 283.635 692.595C283.668 693.705 283.839 694.709 284.154 695.596C285.316 698.819 288.587 699.929 293.059 699.706C293.657 699.679 294.281 699.627 294.918 699.548C305.235 698.346 320.569 691.42 331.615 686.627C348.46 679.327 356.111 686.188 361.477 681.546C362.107 680.994 362.508 680.377 362.731 679.616C362.784 679.445 362.83 679.268 362.862 679.077C363.966 673.129 356.788 659.637 365.305 618.611C368.681 602.342 344.96 566.213 344.96 566.213C344.96 566.213 342.583 576.448 321.863 564.749C321.732 564.676 306.561 562.746 298.805 577.446C290.255 593.662 291.706 627.428 294.116 637.525C296.783 648.699 291.706 662.894 287.727 674.915C285.592 681.362 283.773 687.179 283.635 691.571Z" fill="#F8DC7F"/>
<path d="M283.635 691.571C283.622 691.919 283.622 692.26 283.635 692.595C283.668 693.704 283.839 694.709 284.154 695.595C285.316 698.819 288.587 699.928 293.059 699.705C293.657 699.679 294.281 699.626 294.918 699.547C305.235 698.346 320.569 691.42 331.615 686.627C348.46 679.326 355.849 686.029 361.621 681.913C363.211 680.777 363.112 678.21 362.895 676.017C353.695 670.936 331.024 676.135 341.604 653.662C346.996 642.206 319.873 609.655 312.479 622.116C301.314 638.503 290.997 597.706 289.657 594.299C293.079 605.407 292.862 662.9 287.713 674.914C285.592 681.361 283.773 687.178 283.635 691.571Z" fill="#EBD281"/>
<path d="M385.946 673.634C385.946 673.634 385.506 668.802 389.677 667.798C393.847 666.787 402.522 669.964 403.107 676.129C403.691 682.294 387.385 672.728 385.946 673.634Z" fill="#FF7955"/>
<path d="M381.684 622.294L393.085 625.379C393.466 625.484 393.853 625.261 393.958 624.88L399.849 603.143C399.954 602.762 399.731 602.374 399.35 602.269L387.949 599.177C387.569 599.072 387.181 599.295 387.076 599.676L381.185 621.414C381.08 621.801 381.303 622.195 381.684 622.294Z" fill="#131F2D"/>
<path d="M384.646 623.101L394.989 625.905C395.659 626.088 396.349 625.688 396.533 625.018L402.134 604.344C402.318 603.674 401.918 602.985 401.248 602.801L390.904 599.998C390.235 599.814 389.545 600.214 389.361 600.884L383.759 621.558C383.582 622.228 383.976 622.917 384.646 623.101Z" fill="#131F2D"/>
<path d="M375.82 624.585C375.82 624.585 377.718 618.322 382.249 616.28C386.787 614.245 390.675 615.591 391.404 616.956C392.133 618.315 392.514 623.325 389.69 625.787C386.866 628.255 376.647 632.208 376.647 632.208L375.82 624.585Z" fill="#FF7955"/>
<path d="M308.578 567.65C308.578 567.65 293.296 574.833 289.848 586.138C284.995 602.053 313.831 645.331 326.736 649.087C341.946 653.512 380.115 631.964 380.115 631.964C380.115 631.964 378.814 627.073 375.82 624.591C372.825 622.103 339.706 630.224 337.762 629.266C336.784 628.78 324.319 613.942 320.95 598.422C317.654 583.243 323.452 567.394 322.723 565.241C321.252 560.881 308.578 567.65 308.578 567.65Z" fill="#F8DC7F"/>
<path d="M361.569 626.01C361.569 626.01 341.046 635.188 330.328 619.595C320.78 605.499 320.78 605.5 320.78 605.5C320.78 605.5 339.963 627.763 361.569 626.01Z" fill="#EBD281"/>
<path d="M345.295 550.718L353.333 552.136C353.333 552.129 349.262 555.773 345.295 550.718Z" fill="white"/>
<path d="M43.5112 466.443H47.1299L47.0987 466.158L46.0057 456.542C45.9666 456.234 45.7051 456 45.3928 456C45.3538 456 45.3186 456.004 45.2757 456.008C45.0727 456.031 44.8853 456.121 44.7409 456.25C44.5691 456.406 44.4559 456.624 44.4286 456.87L43.5112 466.443Z" fill="#657285"/>
<path d="M46.7786 464.262L46.9074 464.266L46.0056 456.542C45.9666 456.234 45.7051 456 45.3928 456C45.3537 456 45.3186 456.004 45.2757 456.008C45.2405 456.035 45.2093 456.066 45.182 456.098C45.0219 456.269 44.9282 456.492 44.9243 456.741L44.8697 462.291C44.8619 463.356 45.7129 464.23 46.7786 464.262Z" fill="#657285"/>
<path d="M48.1799 509.226H41.2041V816.147H48.1799V509.226Z" fill="#657285"/>
<path d="M48.18 509.226H44.9595V816.147H48.18V509.226Z" fill="#657285"/>
<path d="M55.804 767.167H33.5884V848.374H55.804V767.167Z" fill="#657285"/>
<path d="M55.8037 767.167H42.5625V848.374H55.8037V767.167Z" fill="#657285"/>
<path d="M32.5537 471.072C32.5537 474.865 38.2687 477.936 45.3187 477.936C45.8574 477.936 46.3844 477.92 46.9074 477.881C53.2079 477.464 58.0836 474.572 58.0836 471.068C58.0836 467.567 53.204 464.679 46.9074 464.258C46.3883 464.223 45.8574 464.203 45.3187 464.203C38.2687 464.211 32.5537 467.282 32.5537 471.072Z" fill="#657285"/>
<path d="M33.6116 515.279H55.8272L63.658 477.694H26.9792L33.6116 515.279Z" fill="#657285"/>
<path d="M65.6409 474.865H25V478.471H65.6409V474.865Z" fill="#657285"/>
<path d="M52.1615 767.166H37.9678L40.0445 760.887C40.228 760.329 40.7511 759.955 41.3405 759.955H47.9924C48.7145 759.955 49.3625 760.388 49.6397 761.051L52.1615 767.166Z" fill="#657285"/>
<path d="M39.0804 470.744H39.1741C39.3927 467.828 42.5157 465.35 46.9073 464.261C53.0087 464.667 57.775 467.387 58.0717 470.744H60.1406L63.045 474.865H65.6409V478.471H40.0915V474.865H36.3245L39.0804 470.744Z" fill="#657285"/>
<path d="M61.0348 479.528H29.708L35.825 513.308H53.8169L61.0348 479.528Z" fill="#D5D6DA"/>
<path d="M57.2404 471.477C57.2404 471.477 54.8553 466.283 50.1436 466.439C50.1436 466.439 53.1416 469.097 52.8683 471.477C52.5911 473.858 57.2404 471.477 57.2404 471.477Z" fill="#657285"/>
<path d="M27.5959 474.864H63.045L60.1407 470.743H30.3519L27.5959 474.864Z" fill="#657285"/>
<path d="M58.954 480.707H51.7752L49.6829 512.251H51.7752L58.954 480.707Z" fill="#EAEAEA"/>
<rect y="847" width="649" height="2" fill="#364154"/>
<path d="M73.4999 368C57.8332 306.833 73.8999 177.8 263.5 151" stroke="black" stroke-linecap="round" stroke-dasharray="10 20"/>
<path d="M576 331.5C557.667 396.833 479.1 517.7 311.5 478.5" stroke="black" stroke-linecap="round" stroke-dasharray="10 20"/>
<circle cx="119.5" cy="207.5" r="20.5" fill="#F8DC7F"/>
<circle cx="488.5" cy="445.5" r="20.5" fill="#51AB86"/>
</svg>
