<svg width="989" height="1024" viewBox="0 0 989 1024" fill="none" xmlns="http://www.w3.org/2000/svg">
<rect width="989" height="1024" fill="#FFFCF4"/>
<path d="M522.511 416.677C547.352 433.905 587.963 438.768 633.978 430.819C708.151 418.027 775.632 375.441 789.603 353.42C800.326 336.564 802.797 316.264 800.116 294.845C796.19 263.385 746.767 113.871 649.838 91.1788C614.806 82.9778 568.512 88.2049 517.633 136.207C485.379 166.436 473.879 209.029 472.703 253.001C471.121 309.799 489.908 394.096 522.511 416.677Z" fill="#EAEAEA"/>
<path d="M744.562 389.87C747.481 388.19 750.386 386.462 753.283 384.678H753.29V384.671C764.147 321.967 785.376 279.773 785.67 279.199C786.342 277.883 786.216 274.937 781.925 274.567C778.173 274.238 775.843 275.049 775.171 276.372C775.094 276.519 770.362 286.56 763.979 304.662C763.405 306.293 762.817 307.986 762.215 309.742C760.906 313.577 759.548 317.72 758.155 322.149C757.637 323.807 757.112 325.508 756.587 327.257C756.496 327.558 756.398 327.873 756.307 328.181C751.506 344.1 747.32 365.358 744.562 389.87Z" fill="#B8C1C9"/>
<path d="M652.82 426.928C654.031 426.641 655.242 426.34 656.453 426.032C657.419 425.787 658.385 425.543 659.358 425.277C659.736 420.309 660.198 415.417 660.737 410.617C666.259 361.104 681.441 309.939 696.819 279.206C697.491 277.89 697.365 274.944 693.074 274.574C689.322 274.245 686.992 275.056 686.32 276.379C686.292 276.435 685.515 278.079 684.185 281.193C665.202 325.571 657.475 363.161 653.926 408.84C653.464 414.725 653.093 420.763 652.82 426.928Z" fill="#EE9849"/>
<path d="M770.439 310.834C771.853 310.834 773.106 309.931 773.351 308.658C773.624 307.23 772.546 305.88 770.936 305.635C768.374 305.25 707.941 296.23 680.895 303.753C679.334 304.186 678.474 305.656 678.956 307.034C679.446 308.413 681.105 309.183 682.666 308.749C708.361 301.604 769.326 310.701 769.942 310.799C770.103 310.82 770.271 310.834 770.439 310.834Z" fill="#B8C1C9"/>
<path d="M763.53 328.181C764.944 328.181 766.19 327.278 766.442 326.005C766.715 324.577 765.637 323.227 764.027 322.982C761.466 322.597 701.032 313.57 673.987 321.099C672.426 321.533 671.565 323.003 672.048 324.381C672.538 325.76 674.196 326.529 675.75 326.096C701.452 318.944 762.411 328.048 763.026 328.146C763.194 328.167 763.362 328.181 763.53 328.181Z" fill="#B8C1C9"/>
<path d="M497.601 383.215C495.522 378.786 493.562 374.084 491.728 369.179H592.002C593.934 369.179 595.516 370.753 595.516 372.691V379.71C595.516 381.641 593.941 383.222 592.002 383.222H497.601V383.215Z" fill="#131F2D"/>
<path d="M709.124 183.027C709.432 181.837 713.219 169.158 732.999 172.838C732.999 172.838 723.088 171.852 720.477 175.721C720.477 175.721 728.212 171.936 733.195 174.805C738.172 177.681 739.243 187.75 738.585 190.843C737.934 193.936 732.755 203.221 729.171 203.312C727.813 203.347 726.35 202.934 725.055 202.402C725.643 204.012 726.189 205.768 726.651 207.692C730.921 225.508 719.358 239.433 713.107 236.228C709.103 234.171 705.023 242.484 705.023 242.484L672.377 198.554C672.377 198.554 694.517 170.522 709.124 183.027Z" fill="#131F2D"/>
<path d="M522.512 416.677C547.353 433.904 587.964 438.768 633.978 430.819C640.166 429.748 646.451 428.453 652.814 426.921C654.024 426.634 655.235 426.333 656.446 426.025C657.412 425.78 658.378 425.535 659.351 425.27C659.729 425.172 660.114 425.067 660.499 424.969C662.417 424.458 664.342 423.926 666.266 423.366H666.273C666.973 423.163 667.666 422.967 668.366 422.751C671.502 421.827 674.645 420.847 677.802 419.812H677.809C678.683 419.525 679.551 419.231 680.426 418.937C684.836 417.446 689.267 415.858 693.704 414.151C695.216 413.57 696.728 412.982 698.24 412.373L689.764 407.881L677.347 401.303C677.347 401.303 672.818 401.373 665.322 401.555C664.223 401.576 663.054 401.604 661.836 401.646C659.582 401.702 657.125 401.765 654.5 401.842C645.429 402.101 634.342 402.472 622.485 402.983C582.287 404.718 533.354 408.077 525.102 414.298C524.297 414.906 523.436 415.697 522.512 416.677Z" fill="#131F2D"/>
<path d="M668.36 422.758C671.495 421.834 674.638 420.854 677.795 419.819H677.802C678.677 419.532 679.545 419.238 680.42 418.944C684.829 417.454 689.26 415.865 693.698 414.158C695.21 413.577 696.721 412.989 698.233 412.38L689.757 407.888L670.012 416.264C670.012 416.25 670.215 418.86 668.36 422.758Z" fill="#131F2D"/>
<path d="M555.192 355.086C557.761 347.403 564.852 347.081 564.852 347.081C564.852 347.081 571.655 346.584 576.562 348.018C581.461 349.46 589.616 346.612 589.616 346.612C589.616 346.612 619.496 336.228 626.482 331.882C641.468 322.555 668.569 262.111 677.802 269.48C677.802 269.48 689.729 280.731 683.177 300.079C676.626 319.427 650.742 346.066 635.028 350.363C623.423 353.539 593.087 355.233 589.063 355.443C584.051 356.086 577.255 358.983 575.442 359.123C573.433 359.277 568.946 356.296 565.846 356.737C554.535 358.347 555.192 355.086 555.192 355.086Z" fill="#EF6343"/>
<path d="M672.447 270.186C684.829 270.361 698.548 269.074 710.279 267.527C708.116 263.916 705.54 253.504 704.812 239.132V239.083L700.452 239.314L679.81 240.412C679.81 240.412 679.831 240.713 679.873 241.238C680.069 244.016 680.685 253.126 680.58 258.256C680.538 260.229 679.516 264.483 679.202 264.693C676.948 266.631 674.687 268.43 672.447 270.186Z" fill="#FF7955"/>
<path d="M680.581 258.256C693.089 256.772 701.082 245.786 704.813 239.125C704.855 239.048 704.904 238.964 704.953 238.887L700.452 239.307L679.874 241.231C680.07 244.016 680.686 253.127 680.581 258.256Z" fill="#EF6343"/>
<path d="M678.809 248.662C678.809 248.662 708.081 248.389 707.633 230.168C707.185 211.947 710.657 199.638 691.947 199.044C673.238 198.449 669.78 205.488 668.45 211.611C667.127 217.727 671.187 248.263 678.809 248.662Z" fill="#FF7955"/>
<path d="M669.059 201.451C673.441 195.853 676.892 196.965 678.845 198.568C694.607 189.366 705.254 202.095 705.254 202.095C707.549 215.117 717.174 222.366 717.174 222.366C717.174 222.366 711.924 225.795 699.549 222.954C695.769 222.086 692.347 219.504 689.414 216.341C694.607 224.549 701.53 230.385 701.53 230.385C686.67 223.975 680.245 203.711 679.601 201.563C677.858 203.214 674.428 206.79 673.441 210.233C672.104 214.907 671.691 224.479 668.898 224.227C668.898 224.22 662.494 209.848 669.059 201.451Z" fill="#131F2D"/>
<path d="M649.979 303.963C649.979 303.963 631.164 328.279 626.888 328.657C622.611 329.035 624.606 345.22 626.888 349.383C629.169 353.547 643.812 362.461 653.17 352.875C662.522 343.288 649.979 303.963 649.979 303.963Z" fill="#449574"/>
<path d="M622.478 402.983C623.318 403.892 624.739 404.543 626.881 404.858C634.426 405.936 645.016 406.929 653.913 408.833C656.341 409.35 658.644 409.938 660.73 410.617C665.119 412.037 668.52 413.857 670.011 416.257C671.236 418.23 674.127 419.336 677.795 419.819H677.802C678.677 419.532 679.545 419.238 680.42 418.944C684.829 417.453 689.26 415.865 693.697 414.158C695.209 413.577 696.721 412.989 698.233 412.38C700.039 411.667 701.838 410.925 703.644 410.162C703.973 410.029 704.309 409.889 704.652 409.742C705.807 409.252 706.961 408.763 708.123 408.252C707.773 395.936 703.147 368.29 706.429 362.797C708.886 358.696 716.264 339.488 721.807 323.947C722.444 322.17 723.06 320.434 723.634 318.783C724.18 317.216 724.691 315.718 725.167 314.312C726.231 311.177 727.092 308.497 727.673 306.545C728.065 305.222 728.317 304.228 728.415 303.641C728.513 303.025 728.646 302.248 728.772 301.332C729.913 293.578 731.424 276.267 718.538 270.781C718.538 270.781 711.553 267.779 710.979 265.316C710.846 264.735 710.825 263.825 710.818 262.797V262.79C710.79 259.459 710.881 254.897 707.633 256.191C707.367 256.296 707.101 256.415 706.842 256.541C702.818 258.409 698.443 262.062 691.633 261.705C687.216 261.474 683.156 260.187 680.448 259.69C678.712 259.368 677.529 259.375 677.158 260.194C676.213 262.251 678.775 265.001 677.221 266.393C677.214 266.4 677.214 266.4 677.214 266.4C677.193 266.421 677.179 266.435 677.165 266.449C677.158 266.456 677.144 266.47 677.13 266.477C677.123 266.484 677.102 266.498 677.088 266.512C677.081 266.519 677.081 266.519 677.074 266.519C674.82 268.22 654.158 280.976 647.704 299.463C647.704 299.463 645.954 303.921 644.456 309.861V309.868C644.337 310.351 644.211 310.841 644.099 311.345V311.352C643.147 315.431 642.385 320.064 642.385 324.367C642.385 325.249 642.391 326.137 642.419 327.033C642.496 330.735 642.72 334.562 642.79 338.285C642.811 339.145 642.819 339.992 642.819 340.839C642.812 343.015 642.734 345.142 642.51 347.164C642.503 347.199 642.503 347.227 642.503 347.255C642.468 347.591 642.434 347.92 642.385 348.249C641.972 351.279 641.559 354.253 641.125 357.087C640.565 360.767 639.984 364.217 639.403 367.289C639.263 368.017 639.123 368.73 638.983 369.416C638.381 372.327 637.779 374.811 637.177 376.694C636.603 378.506 636.022 379.765 635.455 380.332C630.611 385.167 617.816 397.959 622.478 402.983Z" fill="#51AB86"/>
<path d="M552.05 355.547C552.421 354.407 553.429 352.7 554.38 350.985C555.332 349.278 562.556 341.868 565.405 341.105C568.253 340.342 582.217 344.24 582.217 344.24C582.217 344.24 637.128 344.96 645.891 339.579C657.293 332.575 684.997 303.564 704.267 288.757C713.457 281.697 720.729 277.869 723.417 281.186C723.417 281.186 730.752 288.225 721.52 305.621C721.009 306.594 720.442 307.601 719.812 308.637C708.018 328.244 662.725 366.023 644.519 367.261C626.321 368.507 580.159 353.049 580.159 353.049C580.159 353.049 575.351 351.741 572.88 353.637C570.409 355.54 560.869 355.184 559.511 356.485C556.963 358.934 551.434 357.444 552.05 355.547Z" fill="#FF7955"/>
<path d="M638.969 369.382C639.683 368.822 640.572 368.143 641.615 367.338H641.622C646.052 363.91 653.22 358.431 661.521 352.21C665.371 349.32 669.472 346.269 673.651 343.197C683.191 336.193 693.159 329.048 701.656 323.367C704.526 321.449 707.221 319.7 709.677 318.168H709.684C711.84 316.831 713.814 315.669 715.55 314.725C716.607 314.151 717.566 313.661 718.434 313.248H718.441C719.539 312.738 720.484 312.367 721.247 312.157C723.004 311.674 724.278 312.493 725.167 314.284C724.691 315.69 724.173 317.188 723.634 318.755C723.06 320.414 722.444 322.142 721.807 323.919C716.264 339.461 708.879 358.675 706.43 362.769C703.21 368.157 707.661 395.58 708.158 408.252C698.499 412.444 688.301 416.355 677.732 419.819C673.777 419.21 671.152 418.076 670.011 416.236C670.459 410.869 668.5 405.922 665.322 401.542C664.419 400.296 663.418 399.099 662.34 397.945C662.34 397.945 662.34 397.945 662.34 397.938C660.261 395.706 657.916 393.649 655.495 391.794C646.024 384.531 635.441 380.283 635.441 380.283C636.008 379.71 636.589 378.45 637.163 376.645C637.765 374.777 638.374 372.292 638.969 369.382Z" fill="#449574"/>
<path d="M642.489 347.221C660.345 339.635 704.645 296.692 705.281 296.077C704.771 296.251 690.485 289.877 655.865 321.379C651.855 325.025 646.213 332.407 644.911 335.605C643.35 339.453 642.818 344.24 642.489 347.221Z" fill="#449574"/>
<path d="M719.539 279.983C719.539 279.983 710.797 281.249 702.244 287.904C693.69 294.551 650.966 336.277 643.819 338.026C636.673 339.775 621.281 338.95 621.47 343.449C621.659 347.948 625.075 369.99 629.638 373.979C634.202 377.967 658.336 379.87 668.793 373.216C679.244 366.568 731.13 304.054 727.904 290.563C724.67 277.072 719.539 279.983 719.539 279.983Z" fill="#51AB86"/>
<path d="M699.444 270.76C704.008 269.627 718.546 270.76 718.546 270.76C718.546 270.76 711.56 267.758 710.994 265.295C710.854 264.714 710.839 263.805 710.825 262.776C710.091 265.778 707.858 267.191 701.866 267.478C695.882 267.765 694.881 271.894 699.444 270.76Z" fill="#449574"/>
<path d="M526.096 365.589H579.9C580.887 365.589 581.692 366.394 581.692 367.38C581.692 368.367 580.887 369.172 579.9 369.172H526.096C525.109 369.172 524.304 368.367 524.304 367.38C524.304 366.401 525.109 365.589 526.096 365.589Z" fill="#449574"/>
<path d="M507.155 315.152C508.079 314.816 509.115 315.299 509.458 316.222L527.852 366.771C528.188 367.702 527.705 368.731 526.781 369.074C525.858 369.41 524.822 368.927 524.479 368.003L506.084 317.454C505.741 316.523 506.224 315.488 507.155 315.152Z" fill="#449574"/>
<path d="M466.313 152.21H612.322C616.339 152.21 619.622 155.492 619.622 159.508V233.548C619.622 237.564 616.339 240.846 612.322 240.846H599.975L605.938 266.009L568.519 240.846H466.313C462.295 240.846 459.013 237.564 459.013 233.548V159.508C459.013 155.492 462.295 152.21 466.313 152.21Z" fill="#51AB86"/>
<path d="M197.84 829.186C198.108 828.183 198.257 827.096 198.257 825.96C198.257 820.89 195.319 816.781 191.698 816.781C191.167 816.781 190.651 816.871 190.157 817.039C189.568 803.318 183.557 792.531 176.229 792.531C169.249 792.531 163.465 802.314 162.421 815.102C157.228 818.627 153.669 825.845 153.669 834.176C153.669 838.147 154.478 841.867 155.887 845.053C151.07 848.019 148 852.494 148 857.502C148 866.438 157.773 873.683 169.827 873.683C178.851 873.683 186.595 869.623 189.919 863.834C190.843 864.053 191.799 864.169 192.776 864.169C200.98 864.169 207.632 856.098 207.632 846.14C207.629 838.341 203.55 831.7 197.84 829.186Z" fill="#57D7A2"/>
<path d="M197.84 829.186C197.84 829.186 183.387 823.561 172.37 833.474C161.353 843.385 153.691 827.753 157.368 820.49C155.059 824.197 153.669 828.967 153.669 834.174C153.669 838.145 154.478 841.865 155.887 845.051C151.07 848.019 148 852.494 148 857.502C148 866.438 157.773 873.683 169.827 873.683C178.851 873.683 186.595 869.623 189.919 863.834C190.843 864.053 191.799 864.169 192.776 864.169C200.98 864.169 207.632 856.098 207.632 846.14C207.629 838.341 203.55 831.7 197.84 829.186Z" fill="#59DFA8"/>
<path d="M180.85 935.158C180.282 935.158 179.822 935.005 179.822 934.437V822.947C179.822 822.379 180.282 821.919 180.85 821.919C181.419 821.919 181.879 822.379 181.879 822.947V934.439C181.881 935.005 181.421 935.158 180.85 935.158Z" fill="#131F2D"/>
<path d="M180.85 862.546C177.929 862.546 175.459 861.505 173.507 859.454C168.049 853.715 168.571 841.991 168.598 841.495C168.627 840.927 169.108 840.489 169.679 840.518C170.247 840.547 170.683 841.03 170.656 841.598C170.65 841.712 170.152 852.942 175.004 858.037C176.574 859.685 178.487 860.487 180.853 860.487C181.421 860.487 181.881 860.947 181.881 861.515C181.881 862.083 181.421 862.546 180.85 862.546Z" fill="#131F2D"/>
<path d="M180.995 885.888C180.927 885.888 180.857 885.886 180.789 885.882C180.22 885.847 179.789 885.36 179.824 884.792C179.859 884.224 180.346 883.792 180.915 883.827C181.307 883.852 181.7 883.683 182.113 883.313C183.385 882.173 185.798 878.164 187.676 864.111C188.76 855.984 189.134 848.405 189.138 848.329C189.165 847.761 189.647 847.321 190.217 847.35C190.785 847.376 191.223 847.86 191.196 848.428C191.192 848.504 190.816 856.17 189.719 864.383C189.072 869.226 188.304 873.315 187.438 876.539C186.3 880.769 185.009 883.487 183.491 884.847C182.714 885.539 181.877 885.888 180.995 885.888Z" fill="#131F2D"/>
<path d="M831.84 828.186C832.108 827.183 832.257 826.096 832.257 824.96C832.257 819.89 829.319 815.781 825.698 815.781C825.167 815.781 824.651 815.871 824.157 816.039C823.568 802.318 817.557 791.531 810.229 791.531C803.249 791.531 797.465 801.314 796.421 814.102C791.228 817.627 787.669 824.845 787.669 833.176C787.669 837.147 788.478 840.867 789.887 844.053C785.07 847.019 782 851.494 782 856.502C782 865.438 791.773 872.683 803.827 872.683C812.851 872.683 820.595 868.623 823.919 862.834C824.843 863.053 825.799 863.169 826.776 863.169C834.98 863.169 841.632 855.098 841.632 845.14C841.629 837.341 837.55 830.7 831.84 828.186Z" fill="#57D7A2"/>
<path d="M831.84 828.186C831.84 828.186 817.387 822.561 806.37 832.474C795.353 842.385 787.691 826.753 791.368 819.49C789.059 823.197 787.669 827.967 787.669 833.174C787.669 837.145 788.478 840.865 789.887 844.051C785.07 847.019 782 851.494 782 856.502C782 865.438 791.773 872.683 803.827 872.683C812.851 872.683 820.595 868.623 823.919 862.834C824.843 863.053 825.799 863.169 826.776 863.169C834.98 863.169 841.632 855.098 841.632 845.14C841.629 837.341 837.55 830.7 831.84 828.186Z" fill="#59DFA8"/>
<path d="M814.85 934.158C814.282 934.158 813.822 934.005 813.822 933.437V821.947C813.822 821.379 814.282 820.919 814.85 820.919C815.419 820.919 815.879 821.379 815.879 821.947V933.439C815.881 934.005 815.421 934.158 814.85 934.158Z" fill="#131F2D"/>
<path d="M814.85 861.546C811.929 861.546 809.459 860.505 807.507 858.454C802.049 852.715 802.571 840.991 802.598 840.495C802.627 839.927 803.108 839.489 803.679 839.518C804.247 839.547 804.683 840.03 804.656 840.598C804.65 840.712 804.152 851.942 809.004 857.037C810.574 858.685 812.487 859.487 814.853 859.487C815.421 859.487 815.881 859.947 815.881 860.515C815.881 861.083 815.421 861.546 814.85 861.546Z" fill="#131F2D"/>
<path d="M814.995 884.888C814.927 884.888 814.857 884.886 814.789 884.882C814.22 884.847 813.789 884.36 813.824 883.792C813.859 883.224 814.346 882.792 814.915 882.827C815.307 882.852 815.7 882.683 816.113 882.313C817.385 881.173 819.798 877.164 821.676 863.111C822.761 854.984 823.134 847.405 823.139 847.329C823.165 846.761 823.647 846.321 824.217 846.35C824.785 846.376 825.223 846.86 825.196 847.428C825.192 847.504 824.816 855.17 823.719 863.383C823.072 868.226 822.304 872.315 821.438 875.539C820.3 879.769 819.009 882.487 817.491 883.847C816.714 884.539 815.877 884.888 814.995 884.888Z" fill="#131F2D"/>
<path d="M290.069 472.547H433.412C437.352 472.547 440.577 475.77 440.577 479.709V552.401C440.577 556.34 437.352 559.564 433.412 559.564H421.295L427.147 584.269L390.41 559.564H290.069C286.128 559.564 282.904 556.34 282.904 552.401V479.716C282.904 475.77 286.128 472.547 290.069 472.547Z" fill="#F8DC7F"/>
<path d="M313.651 506.531C313.537 506.531 313.441 506.491 313.362 506.412C313.282 506.333 313.243 506.236 313.243 506.123V495.056C313.243 494.931 313.282 494.829 313.362 494.75C313.441 494.671 313.537 494.631 313.651 494.631H318.054C319.425 494.631 320.507 494.948 321.301 495.583C322.094 496.218 322.491 497.141 322.491 498.354C322.491 499.193 322.281 499.89 321.862 500.445C321.454 501 320.904 501.403 320.213 501.652L322.695 505.987C322.729 506.055 322.746 506.117 322.746 506.174C322.746 506.276 322.706 506.361 322.627 506.429C322.559 506.497 322.479 506.531 322.389 506.531H320.842C320.649 506.531 320.502 506.48 320.4 506.378C320.298 506.276 320.218 506.174 320.162 506.072L317.969 502.043H315.606V506.123C315.606 506.236 315.566 506.333 315.487 506.412C315.419 506.491 315.322 506.531 315.198 506.531H313.651ZM315.606 500.122H318.003C318.694 500.122 319.21 499.969 319.55 499.663C319.89 499.346 320.06 498.904 320.06 498.337C320.06 497.77 319.89 497.328 319.55 497.011C319.221 496.682 318.705 496.518 318.003 496.518H315.606V500.122ZM328.185 506.701C326.927 506.701 325.93 506.338 325.193 505.613C324.457 504.888 324.06 503.856 324.003 502.519C323.992 502.406 323.986 502.264 323.986 502.094C323.986 501.913 323.992 501.771 324.003 501.669C324.049 500.808 324.241 500.071 324.581 499.459C324.933 498.836 325.414 498.36 326.026 498.031C326.638 497.691 327.358 497.521 328.185 497.521C329.103 497.521 329.874 497.714 330.497 498.099C331.121 498.473 331.591 499 331.908 499.68C332.226 500.349 332.384 501.125 332.384 502.009V502.366C332.384 502.479 332.345 502.576 332.265 502.655C332.186 502.734 332.084 502.774 331.959 502.774H326.315C326.315 502.774 326.315 502.791 326.315 502.825C326.315 502.859 326.315 502.887 326.315 502.91C326.327 503.307 326.4 503.675 326.536 504.015C326.684 504.344 326.893 504.61 327.165 504.814C327.449 505.018 327.783 505.12 328.168 505.12C328.486 505.12 328.752 505.075 328.967 504.984C329.183 504.882 329.358 504.769 329.494 504.644C329.63 504.519 329.727 504.417 329.783 504.338C329.885 504.202 329.965 504.123 330.021 504.1C330.089 504.066 330.186 504.049 330.31 504.049H331.772C331.886 504.049 331.976 504.083 332.044 504.151C332.124 504.219 332.158 504.304 332.146 504.406C332.135 504.587 332.039 504.808 331.857 505.069C331.687 505.33 331.438 505.585 331.109 505.834C330.781 506.083 330.367 506.293 329.868 506.463C329.381 506.622 328.82 506.701 328.185 506.701ZM326.315 501.346H330.072V501.295C330.072 500.853 329.999 500.468 329.851 500.139C329.704 499.799 329.489 499.538 329.205 499.357C328.922 499.164 328.582 499.068 328.185 499.068C327.789 499.068 327.449 499.164 327.165 499.357C326.882 499.538 326.667 499.799 326.519 500.139C326.383 500.468 326.315 500.853 326.315 501.295V501.346ZM340.496 509.761C340.383 509.761 340.286 509.721 340.207 509.642C340.128 509.563 340.088 509.466 340.088 509.353V505.494C339.816 505.857 339.465 506.151 339.034 506.378C338.603 506.593 338.082 506.701 337.47 506.701C336.892 506.701 336.376 506.599 335.923 506.395C335.481 506.191 335.107 505.913 334.801 505.562C334.506 505.199 334.28 504.78 334.121 504.304C333.962 503.817 333.872 503.29 333.849 502.723C333.838 502.519 333.832 502.315 333.832 502.111C333.832 501.907 333.838 501.709 333.849 501.516C333.883 500.927 333.974 500.388 334.121 499.901C334.28 499.414 334.506 498.994 334.801 498.643C335.107 498.28 335.481 498.003 335.923 497.81C336.376 497.617 336.892 497.521 337.47 497.521C338.127 497.521 338.677 497.64 339.119 497.878C339.572 498.116 339.929 498.416 340.19 498.779V498.099C340.19 497.986 340.23 497.889 340.309 497.81C340.388 497.731 340.485 497.691 340.598 497.691H341.958C342.071 497.691 342.168 497.731 342.247 497.81C342.326 497.889 342.366 497.986 342.366 498.099V509.353C342.366 509.466 342.326 509.563 342.247 509.642C342.168 509.721 342.071 509.761 341.958 509.761H340.496ZM338.116 504.882C338.569 504.882 338.938 504.78 339.221 504.576C339.504 504.372 339.714 504.117 339.85 503.811C339.997 503.494 340.077 503.165 340.088 502.825C340.111 502.61 340.122 502.389 340.122 502.162C340.122 501.935 340.111 501.72 340.088 501.516C340.077 501.165 340.003 500.825 339.867 500.496C339.731 500.156 339.521 499.878 339.238 499.663C338.955 499.448 338.581 499.34 338.116 499.34C337.64 499.34 337.26 499.448 336.977 499.663C336.694 499.867 336.49 500.139 336.365 500.479C336.252 500.819 336.184 501.193 336.161 501.601C336.138 501.941 336.138 502.281 336.161 502.621C336.184 503.029 336.252 503.403 336.365 503.743C336.49 504.083 336.694 504.361 336.977 504.576C337.26 504.78 337.64 504.882 338.116 504.882ZM347.912 506.701C347.221 506.701 346.62 506.548 346.11 506.242C345.612 505.925 345.226 505.483 344.954 504.916C344.682 504.338 344.546 503.658 344.546 502.876V498.099C344.546 497.986 344.586 497.889 344.665 497.81C344.745 497.731 344.841 497.691 344.954 497.691H346.45C346.575 497.691 346.671 497.731 346.739 497.81C346.819 497.889 346.858 497.986 346.858 498.099V502.774C346.858 504.179 347.476 504.882 348.711 504.882C349.301 504.882 349.765 504.695 350.105 504.321C350.457 503.947 350.632 503.431 350.632 502.774V498.099C350.632 497.986 350.672 497.889 350.751 497.81C350.831 497.731 350.927 497.691 351.04 497.691H352.536C352.65 497.691 352.746 497.731 352.825 497.81C352.905 497.889 352.944 497.986 352.944 498.099V506.123C352.944 506.236 352.905 506.333 352.825 506.412C352.746 506.491 352.65 506.531 352.536 506.531H351.159C351.035 506.531 350.933 506.491 350.853 506.412C350.785 506.333 350.751 506.236 350.751 506.123V505.426C350.445 505.823 350.066 506.134 349.612 506.361C349.159 506.588 348.592 506.701 347.912 506.701ZM358.998 506.701C357.74 506.701 356.743 506.338 356.006 505.613C355.269 504.888 354.873 503.856 354.816 502.519C354.805 502.406 354.799 502.264 354.799 502.094C354.799 501.913 354.805 501.771 354.816 501.669C354.861 500.808 355.054 500.071 355.394 499.459C355.745 498.836 356.227 498.36 356.839 498.031C357.451 497.691 358.171 497.521 358.998 497.521C359.916 497.521 360.687 497.714 361.31 498.099C361.933 498.473 362.404 499 362.721 499.68C363.038 500.349 363.197 501.125 363.197 502.009V502.366C363.197 502.479 363.157 502.576 363.078 502.655C362.999 502.734 362.897 502.774 362.772 502.774H357.128C357.128 502.774 357.128 502.791 357.128 502.825C357.128 502.859 357.128 502.887 357.128 502.91C357.139 503.307 357.213 503.675 357.349 504.015C357.496 504.344 357.706 504.61 357.978 504.814C358.261 505.018 358.596 505.12 358.981 505.12C359.298 505.12 359.565 505.075 359.78 504.984C359.995 504.882 360.171 504.769 360.307 504.644C360.443 504.519 360.539 504.417 360.596 504.338C360.698 504.202 360.777 504.123 360.834 504.1C360.902 504.066 360.998 504.049 361.123 504.049H362.585C362.698 504.049 362.789 504.083 362.857 504.151C362.936 504.219 362.97 504.304 362.959 504.406C362.948 504.587 362.851 504.808 362.67 505.069C362.5 505.33 362.251 505.585 361.922 505.834C361.593 506.083 361.18 506.293 360.681 506.463C360.194 506.622 359.633 506.701 358.998 506.701ZM357.128 501.346H360.885V501.295C360.885 500.853 360.811 500.468 360.664 500.139C360.517 499.799 360.301 499.538 360.018 499.357C359.735 499.164 359.395 499.068 358.998 499.068C358.601 499.068 358.261 499.164 357.978 499.357C357.695 499.538 357.479 499.799 357.332 500.139C357.196 500.468 357.128 500.853 357.128 501.295V501.346ZM368.35 506.701C367.67 506.701 367.087 506.622 366.599 506.463C366.123 506.304 365.732 506.106 365.426 505.868C365.12 505.63 364.894 505.392 364.746 505.154C364.599 504.916 364.52 504.718 364.508 504.559C364.497 504.434 364.531 504.338 364.61 504.27C364.701 504.191 364.797 504.151 364.899 504.151H366.242C366.288 504.151 366.327 504.157 366.361 504.168C366.395 504.179 366.441 504.213 366.497 504.27C366.645 504.395 366.798 504.525 366.956 504.661C367.126 504.797 367.325 504.916 367.551 505.018C367.778 505.109 368.061 505.154 368.401 505.154C368.843 505.154 369.212 505.069 369.506 504.899C369.812 504.718 369.965 504.463 369.965 504.134C369.965 503.896 369.897 503.703 369.761 503.556C369.637 503.409 369.399 503.278 369.047 503.165C368.696 503.04 368.197 502.91 367.551 502.774C366.917 502.627 366.39 502.44 365.97 502.213C365.551 501.986 365.239 501.703 365.035 501.363C364.831 501.023 364.729 500.626 364.729 500.173C364.729 499.731 364.86 499.312 365.12 498.915C365.392 498.507 365.789 498.173 366.31 497.912C366.843 497.651 367.5 497.521 368.282 497.521C368.894 497.521 369.427 497.6 369.88 497.759C370.334 497.906 370.708 498.093 371.002 498.32C371.308 498.547 371.541 498.779 371.699 499.017C371.858 499.244 371.943 499.442 371.954 499.612C371.966 499.737 371.932 499.839 371.852 499.918C371.773 499.986 371.682 500.02 371.58 500.02H370.322C370.266 500.02 370.215 500.009 370.169 499.986C370.124 499.963 370.079 499.935 370.033 499.901C369.909 499.788 369.773 499.669 369.625 499.544C369.478 499.408 369.297 499.295 369.081 499.204C368.877 499.113 368.605 499.068 368.265 499.068C367.835 499.068 367.506 499.164 367.279 499.357C367.053 499.538 366.939 499.771 366.939 500.054C366.939 500.247 366.99 500.417 367.092 500.564C367.206 500.7 367.427 500.83 367.755 500.955C368.084 501.08 368.583 501.21 369.251 501.346C370.011 501.482 370.611 501.686 371.053 501.958C371.507 502.219 371.824 502.525 372.005 502.876C372.198 503.216 372.294 503.596 372.294 504.015C372.294 504.525 372.141 504.984 371.835 505.392C371.541 505.8 371.099 506.123 370.509 506.361C369.931 506.588 369.212 506.701 368.35 506.701ZM378.011 506.531C377.331 506.531 376.759 506.412 376.294 506.174C375.829 505.936 375.484 505.585 375.257 505.12C375.03 504.644 374.917 504.055 374.917 503.352V499.493H373.574C373.461 499.493 373.364 499.453 373.285 499.374C373.206 499.295 373.166 499.193 373.166 499.068V498.099C373.166 497.986 373.206 497.889 373.285 497.81C373.364 497.731 373.461 497.691 373.574 497.691H374.917V494.869C374.917 494.756 374.951 494.659 375.019 494.58C375.098 494.501 375.2 494.461 375.325 494.461H376.702C376.815 494.461 376.912 494.501 376.991 494.58C377.07 494.659 377.11 494.756 377.11 494.869V497.691H379.235C379.348 497.691 379.445 497.731 379.524 497.81C379.603 497.889 379.643 497.986 379.643 498.099V499.068C379.643 499.193 379.603 499.295 379.524 499.374C379.445 499.453 379.348 499.493 379.235 499.493H377.11V503.182C377.11 503.647 377.189 504.009 377.348 504.27C377.518 504.531 377.807 504.661 378.215 504.661H379.388C379.501 504.661 379.598 504.701 379.677 504.78C379.756 504.859 379.796 504.956 379.796 505.069V506.123C379.796 506.236 379.756 506.333 379.677 506.412C379.598 506.491 379.501 506.531 379.388 506.531H378.011ZM388.852 506.531C388.172 506.531 387.6 506.412 387.135 506.174C386.67 505.936 386.325 505.585 386.098 505.12C385.871 504.644 385.758 504.055 385.758 503.352V499.493H384.415C384.302 499.493 384.205 499.453 384.126 499.374C384.047 499.295 384.007 499.193 384.007 499.068V498.099C384.007 497.986 384.047 497.889 384.126 497.81C384.205 497.731 384.302 497.691 384.415 497.691H385.758V494.869C385.758 494.756 385.792 494.659 385.86 494.58C385.939 494.501 386.041 494.461 386.166 494.461H387.543C387.656 494.461 387.753 494.501 387.832 494.58C387.911 494.659 387.951 494.756 387.951 494.869V497.691H390.076C390.189 497.691 390.286 497.731 390.365 497.81C390.444 497.889 390.484 497.986 390.484 498.099V499.068C390.484 499.193 390.444 499.295 390.365 499.374C390.286 499.453 390.189 499.493 390.076 499.493H387.951V503.182C387.951 503.647 388.03 504.009 388.189 504.27C388.359 504.531 388.648 504.661 389.056 504.661H390.229C390.342 504.661 390.439 504.701 390.518 504.78C390.597 504.859 390.637 504.956 390.637 505.069V506.123C390.637 506.236 390.597 506.333 390.518 506.412C390.439 506.491 390.342 506.531 390.229 506.531H388.852ZM396.055 506.701C395.148 506.701 394.383 506.542 393.76 506.225C393.148 505.908 392.678 505.46 392.349 504.882C392.032 504.304 391.85 503.63 391.805 502.859C391.794 502.655 391.788 502.406 391.788 502.111C391.788 501.816 391.794 501.567 391.805 501.363C391.85 500.581 392.037 499.907 392.366 499.34C392.706 498.762 393.182 498.314 393.794 497.997C394.417 497.68 395.171 497.521 396.055 497.521C396.939 497.521 397.687 497.68 398.299 497.997C398.922 498.314 399.398 498.762 399.727 499.34C400.067 499.907 400.26 500.581 400.305 501.363C400.316 501.567 400.322 501.816 400.322 502.111C400.322 502.406 400.316 502.655 400.305 502.859C400.26 503.63 400.073 504.304 399.744 504.882C399.427 505.46 398.956 505.908 398.333 506.225C397.721 506.542 396.962 506.701 396.055 506.701ZM396.055 505.018C396.656 505.018 397.12 504.831 397.449 504.457C397.778 504.072 397.959 503.511 397.993 502.774C398.004 502.604 398.01 502.383 398.01 502.111C398.01 501.839 398.004 501.618 397.993 501.448C397.959 500.711 397.778 500.156 397.449 499.782C397.12 499.397 396.656 499.204 396.055 499.204C395.454 499.204 394.99 499.397 394.661 499.782C394.332 500.156 394.151 500.711 394.117 501.448C394.106 501.618 394.1 501.839 394.1 502.111C394.1 502.383 394.106 502.604 394.117 502.774C394.151 503.511 394.332 504.072 394.661 504.457C394.99 504.831 395.454 505.018 396.055 505.018ZM306.823 536.701C306.234 536.701 305.701 536.588 305.225 536.361C304.749 536.123 304.37 535.811 304.086 535.426C303.814 535.029 303.678 534.587 303.678 534.1C303.678 533.307 304.001 532.678 304.647 532.213C305.293 531.737 306.138 531.42 307.18 531.261L309.509 530.921V530.564C309.509 530.088 309.39 529.72 309.152 529.459C308.914 529.198 308.506 529.068 307.928 529.068C307.52 529.068 307.186 529.153 306.925 529.323C306.676 529.482 306.489 529.697 306.364 529.969C306.274 530.116 306.143 530.19 305.973 530.19H304.63C304.506 530.19 304.409 530.156 304.341 530.088C304.285 530.02 304.256 529.929 304.256 529.816C304.268 529.635 304.341 529.414 304.477 529.153C304.625 528.892 304.84 528.643 305.123 528.405C305.418 528.156 305.798 527.946 306.262 527.776C306.727 527.606 307.288 527.521 307.945 527.521C308.659 527.521 309.26 527.612 309.747 527.793C310.246 527.963 310.643 528.195 310.937 528.49C311.232 528.785 311.447 529.13 311.583 529.527C311.719 529.924 311.787 530.343 311.787 530.785V536.123C311.787 536.236 311.748 536.333 311.668 536.412C311.589 536.491 311.493 536.531 311.379 536.531H310.002C309.878 536.531 309.776 536.491 309.696 536.412C309.628 536.333 309.594 536.236 309.594 536.123V535.46C309.447 535.664 309.249 535.862 308.999 536.055C308.75 536.248 308.444 536.406 308.081 536.531C307.73 536.644 307.311 536.701 306.823 536.701ZM307.401 535.086C307.798 535.086 308.155 535.001 308.472 534.831C308.801 534.661 309.056 534.4 309.237 534.049C309.43 533.686 309.526 533.233 309.526 532.689V532.332L307.826 532.604C307.158 532.706 306.659 532.87 306.33 533.097C306.002 533.324 305.837 533.601 305.837 533.93C305.837 534.179 305.911 534.395 306.058 534.576C306.217 534.746 306.415 534.876 306.653 534.967C306.891 535.046 307.141 535.086 307.401 535.086ZM314.393 539.761C314.28 539.761 314.184 539.721 314.104 539.642C314.025 539.563 313.985 539.466 313.985 539.353V528.099C313.985 527.986 314.025 527.889 314.104 527.81C314.184 527.731 314.28 527.691 314.393 527.691H315.736C315.861 527.691 315.957 527.731 316.025 527.81C316.105 527.889 316.144 527.986 316.144 528.099V528.779C316.416 528.416 316.773 528.116 317.215 527.878C317.657 527.64 318.207 527.521 318.864 527.521C319.465 527.521 319.986 527.617 320.428 527.81C320.87 528.003 321.239 528.28 321.533 528.643C321.828 528.994 322.055 529.414 322.213 529.901C322.372 530.388 322.463 530.927 322.485 531.516C322.497 531.709 322.502 531.907 322.502 532.111C322.502 532.315 322.497 532.519 322.485 532.723C322.474 533.29 322.389 533.817 322.23 534.304C322.072 534.78 321.839 535.199 321.533 535.562C321.239 535.913 320.87 536.191 320.428 536.395C319.986 536.599 319.465 536.701 318.864 536.701C318.252 536.701 317.731 536.593 317.3 536.378C316.87 536.151 316.518 535.857 316.246 535.494V539.353C316.246 539.466 316.207 539.563 316.127 539.642C316.059 539.721 315.963 539.761 315.838 539.761H314.393ZM318.235 534.882C318.723 534.882 319.102 534.78 319.374 534.576C319.646 534.361 319.845 534.083 319.969 533.743C320.094 533.403 320.168 533.029 320.19 532.621C320.202 532.281 320.202 531.941 320.19 531.601C320.168 531.193 320.094 530.819 319.969 530.479C319.845 530.139 319.646 529.867 319.374 529.663C319.102 529.448 318.723 529.34 318.235 529.34C317.771 529.34 317.391 529.448 317.096 529.663C316.813 529.878 316.603 530.156 316.467 530.496C316.343 530.825 316.269 531.165 316.246 531.516C316.235 531.72 316.229 531.935 316.229 532.162C316.229 532.389 316.235 532.61 316.246 532.825C316.258 533.165 316.337 533.494 316.484 533.811C316.632 534.117 316.847 534.372 317.13 534.576C317.414 534.78 317.782 534.882 318.235 534.882ZM324.836 539.761C324.722 539.761 324.626 539.721 324.547 539.642C324.467 539.563 324.428 539.466 324.428 539.353V528.099C324.428 527.986 324.467 527.889 324.547 527.81C324.626 527.731 324.722 527.691 324.836 527.691H326.179C326.303 527.691 326.4 527.731 326.468 527.81C326.547 527.889 326.587 527.986 326.587 528.099V528.779C326.859 528.416 327.216 528.116 327.658 527.878C328.1 527.64 328.649 527.521 329.307 527.521C329.907 527.521 330.429 527.617 330.871 527.81C331.313 528.003 331.681 528.28 331.976 528.643C332.27 528.994 332.497 529.414 332.656 529.901C332.814 530.388 332.905 530.927 332.928 531.516C332.939 531.709 332.945 531.907 332.945 532.111C332.945 532.315 332.939 532.519 332.928 532.723C332.916 533.29 332.831 533.817 332.673 534.304C332.514 534.78 332.282 535.199 331.976 535.562C331.681 535.913 331.313 536.191 330.871 536.395C330.429 536.599 329.907 536.701 329.307 536.701C328.695 536.701 328.173 536.593 327.743 536.378C327.312 536.151 326.961 535.857 326.689 535.494V539.353C326.689 539.466 326.649 539.563 326.57 539.642C326.502 539.721 326.405 539.761 326.281 539.761H324.836ZM328.678 534.882C329.165 534.882 329.545 534.78 329.817 534.576C330.089 534.361 330.287 534.083 330.412 533.743C330.536 533.403 330.61 533.029 330.633 532.621C330.644 532.281 330.644 531.941 330.633 531.601C330.61 531.193 330.536 530.819 330.412 530.479C330.287 530.139 330.089 529.867 329.817 529.663C329.545 529.448 329.165 529.34 328.678 529.34C328.213 529.34 327.833 529.448 327.539 529.663C327.255 529.878 327.046 530.156 326.91 530.496C326.785 530.825 326.711 531.165 326.689 531.516C326.677 531.72 326.672 531.935 326.672 532.162C326.672 532.389 326.677 532.61 326.689 532.825C326.7 533.165 326.779 533.494 326.927 533.811C327.074 534.117 327.289 534.372 327.573 534.576C327.856 534.78 328.224 534.882 328.678 534.882ZM335.261 536.531C335.148 536.531 335.051 536.491 334.972 536.412C334.893 536.333 334.853 536.236 334.853 536.123V528.116C334.853 527.991 334.893 527.889 334.972 527.81C335.051 527.731 335.148 527.691 335.261 527.691H336.638C336.751 527.691 336.848 527.731 336.927 527.81C337.018 527.889 337.063 527.991 337.063 528.116V528.813C337.324 528.45 337.658 528.173 338.066 527.98C338.485 527.787 338.967 527.691 339.511 527.691H340.208C340.333 527.691 340.429 527.731 340.497 527.81C340.576 527.889 340.616 527.986 340.616 528.099V529.323C340.616 529.436 340.576 529.533 340.497 529.612C340.429 529.691 340.333 529.731 340.208 529.731H338.882C338.338 529.731 337.913 529.884 337.607 530.19C337.312 530.485 337.165 530.904 337.165 531.448V536.123C337.165 536.236 337.125 536.333 337.046 536.412C336.967 536.491 336.865 536.531 336.74 536.531H335.261ZM345.736 536.701C344.829 536.701 344.064 536.542 343.441 536.225C342.829 535.908 342.358 535.46 342.03 534.882C341.712 534.304 341.531 533.63 341.486 532.859C341.474 532.655 341.469 532.406 341.469 532.111C341.469 531.816 341.474 531.567 341.486 531.363C341.531 530.581 341.718 529.907 342.047 529.34C342.387 528.762 342.863 528.314 343.475 527.997C344.098 527.68 344.852 527.521 345.736 527.521C346.62 527.521 347.368 527.68 347.98 527.997C348.603 528.314 349.079 528.762 349.408 529.34C349.748 529.907 349.94 530.581 349.986 531.363C349.997 531.567 350.003 531.816 350.003 532.111C350.003 532.406 349.997 532.655 349.986 532.859C349.94 533.63 349.753 534.304 349.425 534.882C349.107 535.46 348.637 535.908 348.014 536.225C347.402 536.542 346.642 536.701 345.736 536.701ZM345.736 535.018C346.336 535.018 346.801 534.831 347.13 534.457C347.458 534.072 347.64 533.511 347.674 532.774C347.685 532.604 347.691 532.383 347.691 532.111C347.691 531.839 347.685 531.618 347.674 531.448C347.64 530.711 347.458 530.156 347.13 529.782C346.801 529.397 346.336 529.204 345.736 529.204C345.135 529.204 344.67 529.397 344.342 529.782C344.013 530.156 343.832 530.711 343.798 531.448C343.786 531.618 343.781 531.839 343.781 532.111C343.781 532.383 343.786 532.604 343.798 532.774C343.832 533.511 344.013 534.072 344.342 534.457C344.67 534.831 345.135 535.018 345.736 535.018ZM354.699 536.531C354.517 536.531 354.381 536.491 354.291 536.412C354.211 536.321 354.143 536.219 354.087 536.106L350.908 528.218C350.885 528.161 350.874 528.11 350.874 528.065C350.874 527.963 350.908 527.878 350.976 527.81C351.055 527.731 351.146 527.691 351.248 527.691H352.625C352.761 527.691 352.863 527.731 352.931 527.81C352.999 527.878 353.044 527.946 353.067 528.014L355.328 533.981L357.589 528.014C357.611 527.946 357.657 527.878 357.725 527.81C357.793 527.731 357.895 527.691 358.031 527.691H359.425C359.515 527.691 359.595 527.731 359.663 527.81C359.742 527.878 359.782 527.963 359.782 528.065C359.782 528.11 359.776 528.161 359.765 528.218L356.569 536.106C356.523 536.219 356.455 536.321 356.365 536.412C356.274 536.491 356.138 536.531 355.957 536.531H354.699ZM364.825 536.701C363.567 536.701 362.57 536.338 361.833 535.613C361.096 534.888 360.7 533.856 360.643 532.519C360.632 532.406 360.626 532.264 360.626 532.094C360.626 531.913 360.632 531.771 360.643 531.669C360.688 530.808 360.881 530.071 361.221 529.459C361.572 528.836 362.054 528.36 362.666 528.031C363.278 527.691 363.998 527.521 364.825 527.521C365.743 527.521 366.514 527.714 367.137 528.099C367.76 528.473 368.231 529 368.548 529.68C368.865 530.349 369.024 531.125 369.024 532.009V532.366C369.024 532.479 368.984 532.576 368.905 532.655C368.826 532.734 368.724 532.774 368.599 532.774H362.955C362.955 532.774 362.955 532.791 362.955 532.825C362.955 532.859 362.955 532.887 362.955 532.91C362.966 533.307 363.04 533.675 363.176 534.015C363.323 534.344 363.533 534.61 363.805 534.814C364.088 535.018 364.423 535.12 364.808 535.12C365.125 535.12 365.392 535.075 365.607 534.984C365.822 534.882 365.998 534.769 366.134 534.644C366.27 534.519 366.366 534.417 366.423 534.338C366.525 534.202 366.604 534.123 366.661 534.1C366.729 534.066 366.825 534.049 366.95 534.049H368.412C368.525 534.049 368.616 534.083 368.684 534.151C368.763 534.219 368.797 534.304 368.786 534.406C368.775 534.587 368.678 534.808 368.497 535.069C368.327 535.33 368.078 535.585 367.749 535.834C367.42 536.083 367.007 536.293 366.508 536.463C366.021 536.622 365.46 536.701 364.825 536.701ZM362.955 531.346H366.712V531.295C366.712 530.853 366.638 530.468 366.491 530.139C366.344 529.799 366.128 529.538 365.845 529.357C365.562 529.164 365.222 529.068 364.825 529.068C364.428 529.068 364.088 529.164 363.805 529.357C363.522 529.538 363.306 529.799 363.159 530.139C363.023 530.468 362.955 530.853 362.955 531.295V531.346ZM377.937 536.531C377.756 536.531 377.614 536.486 377.512 536.395C377.41 536.304 377.336 536.191 377.291 536.055L373.653 525.141C373.63 525.084 373.619 525.033 373.619 524.988C373.619 524.886 373.653 524.801 373.721 524.733C373.789 524.665 373.874 524.631 373.976 524.631H375.472C375.631 524.631 375.75 524.676 375.829 524.767C375.92 524.846 375.976 524.926 375.999 525.005L378.872 533.76L381.745 525.005C381.768 524.926 381.819 524.846 381.898 524.767C381.989 524.676 382.113 524.631 382.272 524.631H383.768C383.859 524.631 383.938 524.665 384.006 524.733C384.085 524.801 384.125 524.886 384.125 524.988C384.125 525.033 384.114 525.084 384.091 525.141L380.453 536.055C380.408 536.191 380.334 536.304 380.232 536.395C380.13 536.486 379.988 536.531 379.807 536.531H377.937ZM385.896 536.531C385.782 536.531 385.686 536.491 385.607 536.412C385.527 536.333 385.488 536.236 385.488 536.123V528.099C385.488 527.986 385.527 527.889 385.607 527.81C385.686 527.731 385.782 527.691 385.896 527.691H387.307C387.431 527.691 387.528 527.731 387.596 527.81C387.675 527.889 387.715 527.986 387.715 528.099V536.123C387.715 536.236 387.675 536.333 387.596 536.412C387.528 536.491 387.431 536.531 387.307 536.531H385.896ZM385.828 526.229C385.714 526.229 385.618 526.189 385.539 526.11C385.459 526.031 385.42 525.934 385.42 525.821V524.597C385.42 524.484 385.459 524.387 385.539 524.308C385.618 524.229 385.714 524.189 385.828 524.189H387.375C387.499 524.189 387.601 524.229 387.681 524.308C387.76 524.387 387.8 524.484 387.8 524.597V525.821C387.8 525.934 387.76 526.031 387.681 526.11C387.601 526.189 387.499 526.229 387.375 526.229H385.828ZM393.518 536.701C392.838 536.701 392.255 536.622 391.767 536.463C391.291 536.304 390.9 536.106 390.594 535.868C390.288 535.63 390.062 535.392 389.914 535.154C389.767 534.916 389.688 534.718 389.676 534.559C389.665 534.434 389.699 534.338 389.778 534.27C389.869 534.191 389.965 534.151 390.067 534.151H391.41C391.456 534.151 391.495 534.157 391.529 534.168C391.563 534.179 391.609 534.213 391.665 534.27C391.813 534.395 391.966 534.525 392.124 534.661C392.294 534.797 392.493 534.916 392.719 535.018C392.946 535.109 393.229 535.154 393.569 535.154C394.011 535.154 394.38 535.069 394.674 534.899C394.98 534.718 395.133 534.463 395.133 534.134C395.133 533.896 395.065 533.703 394.929 533.556C394.805 533.409 394.567 533.278 394.215 533.165C393.864 533.04 393.365 532.91 392.719 532.774C392.085 532.627 391.558 532.44 391.138 532.213C390.719 531.986 390.407 531.703 390.203 531.363C389.999 531.023 389.897 530.626 389.897 530.173C389.897 529.731 390.028 529.312 390.288 528.915C390.56 528.507 390.957 528.173 391.478 527.912C392.011 527.651 392.668 527.521 393.45 527.521C394.062 527.521 394.595 527.6 395.048 527.759C395.502 527.906 395.876 528.093 396.17 528.32C396.476 528.547 396.709 528.779 396.867 529.017C397.026 529.244 397.111 529.442 397.122 529.612C397.134 529.737 397.1 529.839 397.02 529.918C396.941 529.986 396.85 530.02 396.748 530.02H395.49C395.434 530.02 395.383 530.009 395.337 529.986C395.292 529.963 395.247 529.935 395.201 529.901C395.077 529.788 394.941 529.669 394.793 529.544C394.646 529.408 394.465 529.295 394.249 529.204C394.045 529.113 393.773 529.068 393.433 529.068C393.003 529.068 392.674 529.164 392.447 529.357C392.221 529.538 392.107 529.771 392.107 530.054C392.107 530.247 392.158 530.417 392.26 530.564C392.374 530.7 392.595 530.83 392.923 530.955C393.252 531.08 393.751 531.21 394.419 531.346C395.179 531.482 395.779 531.686 396.221 531.958C396.675 532.219 396.992 532.525 397.173 532.876C397.366 533.216 397.462 533.596 397.462 534.015C397.462 534.525 397.309 534.984 397.003 535.392C396.709 535.8 396.267 536.123 395.677 536.361C395.099 536.588 394.38 536.701 393.518 536.701ZM399.625 536.531C399.512 536.531 399.416 536.491 399.336 536.412C399.257 536.333 399.217 536.236 399.217 536.123V528.099C399.217 527.986 399.257 527.889 399.336 527.81C399.416 527.731 399.512 527.691 399.625 527.691H401.036C401.161 527.691 401.257 527.731 401.325 527.81C401.405 527.889 401.444 527.986 401.444 528.099V536.123C401.444 536.236 401.405 536.333 401.325 536.412C401.257 536.491 401.161 536.531 401.036 536.531H399.625ZM399.557 526.229C399.444 526.229 399.348 526.189 399.268 526.11C399.189 526.031 399.149 525.934 399.149 525.821V524.597C399.149 524.484 399.189 524.387 399.268 524.308C399.348 524.229 399.444 524.189 399.557 524.189H401.104C401.229 524.189 401.331 524.229 401.41 524.308C401.49 524.387 401.529 524.484 401.529 524.597V525.821C401.529 525.934 401.49 526.031 401.41 526.11C401.331 526.189 401.229 526.229 401.104 526.229H399.557ZM407.695 536.531C407.015 536.531 406.442 536.412 405.978 536.174C405.513 535.936 405.167 535.585 404.941 535.12C404.714 534.644 404.601 534.055 404.601 533.352V529.493H403.258C403.144 529.493 403.048 529.453 402.969 529.374C402.889 529.295 402.85 529.193 402.85 529.068V528.099C402.85 527.986 402.889 527.889 402.969 527.81C403.048 527.731 403.144 527.691 403.258 527.691H404.601V524.869C404.601 524.756 404.635 524.659 404.703 524.58C404.782 524.501 404.884 524.461 405.009 524.461H406.386C406.499 524.461 406.595 524.501 406.675 524.58C406.754 524.659 406.794 524.756 406.794 524.869V527.691H408.919C409.032 527.691 409.128 527.731 409.208 527.81C409.287 527.889 409.327 527.986 409.327 528.099V529.068C409.327 529.193 409.287 529.295 409.208 529.374C409.128 529.453 409.032 529.493 408.919 529.493H406.794V533.182C406.794 533.647 406.873 534.009 407.032 534.27C407.202 534.531 407.491 534.661 407.899 534.661H409.072C409.185 534.661 409.281 534.701 409.361 534.78C409.44 534.859 409.48 534.956 409.48 535.069V536.123C409.48 536.236 409.44 536.333 409.361 536.412C409.281 536.491 409.185 536.531 409.072 536.531H407.695Z" fill="#191C21"/>
<path d="M466.903 186.531C466.812 186.531 466.727 186.497 466.648 186.429C466.58 186.361 466.546 186.276 466.546 186.174C466.546 186.129 466.557 186.078 466.58 186.021L470.677 175.056C470.711 174.943 470.773 174.846 470.864 174.767C470.966 174.676 471.102 174.631 471.272 174.631H473.125C473.295 174.631 473.425 174.676 473.516 174.767C473.606 174.846 473.674 174.943 473.72 175.056L477.817 186.021C477.828 186.078 477.834 186.129 477.834 186.174C477.834 186.276 477.8 186.361 477.732 186.429C477.664 186.497 477.584 186.531 477.494 186.531H476.015C475.856 186.531 475.737 186.497 475.658 186.429C475.59 186.35 475.544 186.276 475.522 186.208L474.723 184.134H469.674L468.875 186.208C468.852 186.276 468.801 186.35 468.722 186.429C468.654 186.497 468.54 186.531 468.382 186.531H466.903ZM470.269 182.179H474.128L472.19 176.926L470.269 182.179ZM479.642 189.761C479.528 189.761 479.432 189.721 479.353 189.642C479.273 189.563 479.234 189.466 479.234 189.353V178.099C479.234 177.986 479.273 177.889 479.353 177.81C479.432 177.731 479.528 177.691 479.642 177.691H480.985C481.109 177.691 481.206 177.731 481.274 177.81C481.353 177.889 481.393 177.986 481.393 178.099V178.779C481.665 178.416 482.022 178.116 482.464 177.878C482.906 177.64 483.455 177.521 484.113 177.521C484.713 177.521 485.235 177.617 485.677 177.81C486.119 178.003 486.487 178.28 486.782 178.643C487.076 178.994 487.303 179.414 487.462 179.901C487.62 180.388 487.711 180.927 487.734 181.516C487.745 181.709 487.751 181.907 487.751 182.111C487.751 182.315 487.745 182.519 487.734 182.723C487.722 183.29 487.637 183.817 487.479 184.304C487.32 184.78 487.088 185.199 486.782 185.562C486.487 185.913 486.119 186.191 485.677 186.395C485.235 186.599 484.713 186.701 484.113 186.701C483.501 186.701 482.979 186.593 482.549 186.378C482.118 186.151 481.767 185.857 481.495 185.494V189.353C481.495 189.466 481.455 189.563 481.376 189.642C481.308 189.721 481.211 189.761 481.087 189.761H479.642ZM483.484 184.882C483.971 184.882 484.351 184.78 484.623 184.576C484.895 184.361 485.093 184.083 485.218 183.743C485.342 183.403 485.416 183.029 485.439 182.621C485.45 182.281 485.45 181.941 485.439 181.601C485.416 181.193 485.342 180.819 485.218 180.479C485.093 180.139 484.895 179.867 484.623 179.663C484.351 179.448 483.971 179.34 483.484 179.34C483.019 179.34 482.639 179.448 482.345 179.663C482.061 179.878 481.852 180.156 481.716 180.496C481.591 180.825 481.517 181.165 481.495 181.516C481.483 181.72 481.478 181.935 481.478 182.162C481.478 182.389 481.483 182.61 481.495 182.825C481.506 183.165 481.585 183.494 481.733 183.811C481.88 184.117 482.095 184.372 482.379 184.576C482.662 184.78 483.03 184.882 483.484 184.882ZM490.084 189.761C489.971 189.761 489.875 189.721 489.795 189.642C489.716 189.563 489.676 189.466 489.676 189.353V178.099C489.676 177.986 489.716 177.889 489.795 177.81C489.875 177.731 489.971 177.691 490.084 177.691H491.427C491.552 177.691 491.648 177.731 491.716 177.81C491.796 177.889 491.835 177.986 491.835 178.099V178.779C492.107 178.416 492.464 178.116 492.906 177.878C493.348 177.64 493.898 177.521 494.555 177.521C495.156 177.521 495.677 177.617 496.119 177.81C496.561 178.003 496.93 178.28 497.224 178.643C497.519 178.994 497.746 179.414 497.904 179.901C498.063 180.388 498.154 180.927 498.176 181.516C498.188 181.709 498.193 181.907 498.193 182.111C498.193 182.315 498.188 182.519 498.176 182.723C498.165 183.29 498.08 183.817 497.921 184.304C497.763 184.78 497.53 185.199 497.224 185.562C496.93 185.913 496.561 186.191 496.119 186.395C495.677 186.599 495.156 186.701 494.555 186.701C493.943 186.701 493.422 186.593 492.991 186.378C492.561 186.151 492.209 185.857 491.937 185.494V189.353C491.937 189.466 491.898 189.563 491.818 189.642C491.75 189.721 491.654 189.761 491.529 189.761H490.084ZM493.926 184.882C494.414 184.882 494.793 184.78 495.065 184.576C495.337 184.361 495.536 184.083 495.66 183.743C495.785 183.403 495.859 183.029 495.881 182.621C495.893 182.281 495.893 181.941 495.881 181.601C495.859 181.193 495.785 180.819 495.66 180.479C495.536 180.139 495.337 179.867 495.065 179.663C494.793 179.448 494.414 179.34 493.926 179.34C493.462 179.34 493.082 179.448 492.787 179.663C492.504 179.878 492.294 180.156 492.158 180.496C492.034 180.825 491.96 181.165 491.937 181.516C491.926 181.72 491.92 181.935 491.92 182.162C491.92 182.389 491.926 182.61 491.937 182.825C491.949 183.165 492.028 183.494 492.175 183.811C492.323 184.117 492.538 184.372 492.821 184.576C493.105 184.78 493.473 184.882 493.926 184.882ZM500.51 186.531C500.396 186.531 500.3 186.491 500.221 186.412C500.141 186.333 500.102 186.236 500.102 186.123V178.116C500.102 177.991 500.141 177.889 500.221 177.81C500.3 177.731 500.396 177.691 500.51 177.691H501.887C502 177.691 502.096 177.731 502.176 177.81C502.266 177.889 502.312 177.991 502.312 178.116V178.813C502.572 178.45 502.907 178.173 503.315 177.98C503.734 177.787 504.216 177.691 504.76 177.691H505.457C505.581 177.691 505.678 177.731 505.746 177.81C505.825 177.889 505.865 177.986 505.865 178.099V179.323C505.865 179.436 505.825 179.533 505.746 179.612C505.678 179.691 505.581 179.731 505.457 179.731H504.131C503.587 179.731 503.162 179.884 502.856 180.19C502.561 180.485 502.414 180.904 502.414 181.448V186.123C502.414 186.236 502.374 186.333 502.295 186.412C502.215 186.491 502.113 186.531 501.989 186.531H500.51ZM510.984 186.701C510.078 186.701 509.313 186.542 508.689 186.225C508.077 185.908 507.607 185.46 507.278 184.882C506.961 184.304 506.78 183.63 506.734 182.859C506.723 182.655 506.717 182.406 506.717 182.111C506.717 181.816 506.723 181.567 506.734 181.363C506.78 180.581 506.967 179.907 507.295 179.34C507.635 178.762 508.111 178.314 508.723 177.997C509.347 177.68 510.1 177.521 510.984 177.521C511.868 177.521 512.616 177.68 513.228 177.997C513.852 178.314 514.328 178.762 514.656 179.34C514.996 179.907 515.189 180.581 515.234 181.363C515.246 181.567 515.251 181.816 515.251 182.111C515.251 182.406 515.246 182.655 515.234 182.859C515.189 183.63 515.002 184.304 514.673 184.882C514.356 185.46 513.886 185.908 513.262 186.225C512.65 186.542 511.891 186.701 510.984 186.701ZM510.984 185.018C511.585 185.018 512.05 184.831 512.378 184.457C512.707 184.072 512.888 183.511 512.922 182.774C512.934 182.604 512.939 182.383 512.939 182.111C512.939 181.839 512.934 181.618 512.922 181.448C512.888 180.711 512.707 180.156 512.378 179.782C512.05 179.397 511.585 179.204 510.984 179.204C510.384 179.204 509.919 179.397 509.59 179.782C509.262 180.156 509.08 180.711 509.046 181.448C509.035 181.618 509.029 181.839 509.029 182.111C509.029 182.383 509.035 182.604 509.046 182.774C509.08 183.511 509.262 184.072 509.59 184.457C509.919 184.831 510.384 185.018 510.984 185.018ZM519.947 186.531C519.766 186.531 519.63 186.491 519.539 186.412C519.46 186.321 519.392 186.219 519.335 186.106L516.156 178.218C516.134 178.161 516.122 178.11 516.122 178.065C516.122 177.963 516.156 177.878 516.224 177.81C516.304 177.731 516.394 177.691 516.496 177.691H517.873C518.009 177.691 518.111 177.731 518.179 177.81C518.247 177.878 518.293 177.946 518.315 178.014L520.576 183.981L522.837 178.014C522.86 177.946 522.905 177.878 522.973 177.81C523.041 177.731 523.143 177.691 523.279 177.691H524.673C524.764 177.691 524.843 177.731 524.911 177.81C524.991 177.878 525.03 177.963 525.03 178.065C525.03 178.11 525.025 178.161 525.013 178.218L521.817 186.106C521.772 186.219 521.704 186.321 521.613 186.412C521.523 186.491 521.387 186.531 521.205 186.531H519.947ZM530.074 186.701C528.816 186.701 527.818 186.338 527.082 185.613C526.345 184.888 525.948 183.856 525.892 182.519C525.88 182.406 525.875 182.264 525.875 182.094C525.875 181.913 525.88 181.771 525.892 181.669C525.937 180.808 526.13 180.071 526.47 179.459C526.821 178.836 527.303 178.36 527.915 178.031C528.527 177.691 529.246 177.521 530.074 177.521C530.992 177.521 531.762 177.714 532.386 178.099C533.009 178.473 533.479 179 533.797 179.68C534.114 180.349 534.273 181.125 534.273 182.009V182.366C534.273 182.479 534.233 182.576 534.154 182.655C534.074 182.734 533.972 182.774 533.848 182.774H528.204C528.204 182.774 528.204 182.791 528.204 182.825C528.204 182.859 528.204 182.887 528.204 182.91C528.215 183.307 528.289 183.675 528.425 184.015C528.572 184.344 528.782 184.61 529.054 184.814C529.337 185.018 529.671 185.12 530.057 185.12C530.374 185.12 530.64 185.075 530.856 184.984C531.071 184.882 531.247 184.769 531.383 184.644C531.519 184.519 531.615 184.417 531.672 184.338C531.774 184.202 531.853 184.123 531.91 184.1C531.978 184.066 532.074 184.049 532.199 184.049H533.661C533.774 184.049 533.865 184.083 533.933 184.151C534.012 184.219 534.046 184.304 534.035 184.406C534.023 184.587 533.927 184.808 533.746 185.069C533.576 185.33 533.326 185.585 532.998 185.834C532.669 186.083 532.255 186.293 531.757 186.463C531.269 186.622 530.708 186.701 530.074 186.701ZM528.204 181.346H531.961V181.295C531.961 180.853 531.887 180.468 531.74 180.139C531.592 179.799 531.377 179.538 531.094 179.357C530.81 179.164 530.47 179.068 530.074 179.068C529.677 179.068 529.337 179.164 529.054 179.357C528.77 179.538 528.555 179.799 528.408 180.139C528.272 180.468 528.204 180.853 528.204 181.295V181.346ZM539.358 186.701C538.769 186.701 538.247 186.605 537.794 186.412C537.352 186.208 536.984 185.925 536.689 185.562C536.394 185.199 536.168 184.774 536.009 184.287C535.85 183.788 535.76 183.244 535.737 182.655C535.726 182.451 535.72 182.27 535.72 182.111C535.72 181.941 535.726 181.754 535.737 181.55C535.76 180.983 535.845 180.456 535.992 179.969C536.151 179.482 536.377 179.057 536.672 178.694C536.978 178.32 537.352 178.031 537.794 177.827C538.247 177.623 538.769 177.521 539.358 177.521C539.97 177.521 540.486 177.629 540.905 177.844C541.336 178.048 541.693 178.314 541.976 178.643V174.869C541.976 174.756 542.01 174.659 542.078 174.58C542.157 174.501 542.259 174.461 542.384 174.461H543.829C543.942 174.461 544.039 174.501 544.118 174.58C544.197 174.659 544.237 174.756 544.237 174.869V186.123C544.237 186.236 544.197 186.333 544.118 186.412C544.039 186.491 543.942 186.531 543.829 186.531H542.486C542.361 186.531 542.259 186.491 542.18 186.412C542.112 186.333 542.078 186.236 542.078 186.123V185.494C541.795 185.845 541.432 186.134 540.99 186.361C540.559 186.588 540.015 186.701 539.358 186.701ZM539.987 184.882C540.463 184.882 540.843 184.774 541.126 184.559C541.409 184.344 541.619 184.072 541.755 183.743C541.891 183.403 541.965 183.057 541.976 182.706C541.987 182.502 541.993 182.287 541.993 182.06C541.993 181.822 541.987 181.601 541.976 181.397C541.965 181.057 541.885 180.734 541.738 180.428C541.591 180.111 541.375 179.85 541.092 179.646C540.809 179.442 540.44 179.34 539.987 179.34C539.511 179.34 539.131 179.448 538.848 179.663C538.576 179.867 538.378 180.139 538.253 180.479C538.128 180.819 538.055 181.193 538.032 181.601C538.021 181.941 538.021 182.281 538.032 182.621C538.055 183.029 538.128 183.403 538.253 183.743C538.378 184.083 538.576 184.361 538.848 184.576C539.131 184.78 539.511 184.882 539.987 184.882ZM546.962 183.233C546.849 183.233 546.752 183.199 546.673 183.131C546.594 183.052 546.554 182.95 546.554 182.825V175.039C546.554 174.926 546.594 174.829 546.673 174.75C546.752 174.671 546.849 174.631 546.962 174.631H548.339C548.464 174.631 548.56 174.671 548.628 174.75C548.707 174.829 548.747 174.926 548.747 175.039V182.825C548.747 182.95 548.707 183.052 548.628 183.131C548.56 183.199 548.464 183.233 548.339 183.233H546.962ZM546.86 186.531C546.747 186.531 546.65 186.491 546.571 186.412C546.492 186.333 546.452 186.236 546.452 186.123V184.542C546.452 184.417 546.492 184.315 546.571 184.236C546.65 184.157 546.747 184.117 546.86 184.117H548.441C548.566 184.117 548.668 184.157 548.747 184.236C548.826 184.315 548.866 184.417 548.866 184.542V186.123C548.866 186.236 548.826 186.333 548.747 186.412C548.668 186.491 548.566 186.531 548.441 186.531H546.86ZM559.731 186.701C558.677 186.701 557.781 186.52 557.045 186.157C556.319 185.783 555.764 185.256 555.379 184.576C554.993 183.885 554.778 183.057 554.733 182.094C554.721 181.629 554.716 181.131 554.716 180.598C554.716 180.065 554.721 179.555 554.733 179.068C554.778 178.116 554.993 177.294 555.379 176.603C555.775 175.912 556.336 175.385 557.062 175.022C557.798 174.648 558.688 174.461 559.731 174.461C560.501 174.461 561.193 174.563 561.805 174.767C562.417 174.971 562.938 175.254 563.369 175.617C563.799 175.968 564.134 176.382 564.372 176.858C564.61 177.334 564.734 177.85 564.746 178.405C564.757 178.507 564.723 178.592 564.644 178.66C564.576 178.728 564.491 178.762 564.389 178.762H562.774C562.649 178.762 562.547 178.734 562.468 178.677C562.388 178.609 562.332 178.501 562.298 178.354C562.116 177.606 561.805 177.096 561.363 176.824C560.921 176.552 560.371 176.416 559.714 176.416C558.954 176.416 558.348 176.631 557.895 177.062C557.441 177.481 557.198 178.178 557.164 179.153C557.13 180.082 557.13 181.034 557.164 182.009C557.198 182.984 557.441 183.686 557.895 184.117C558.348 184.536 558.954 184.746 559.714 184.746C560.371 184.746 560.921 184.61 561.363 184.338C561.816 184.055 562.128 183.545 562.298 182.808C562.332 182.649 562.388 182.542 562.468 182.485C562.547 182.428 562.649 182.4 562.774 182.4H564.389C564.491 182.4 564.576 182.434 564.644 182.502C564.723 182.57 564.757 182.655 564.746 182.757C564.734 183.312 564.61 183.828 564.372 184.304C564.134 184.78 563.799 185.199 563.369 185.562C562.938 185.913 562.417 186.191 561.805 186.395C561.193 186.599 560.501 186.701 559.731 186.701ZM566.983 186.531C566.869 186.531 566.773 186.491 566.694 186.412C566.614 186.333 566.575 186.236 566.575 186.123V174.869C566.575 174.756 566.614 174.659 566.694 174.58C566.773 174.501 566.869 174.461 566.983 174.461H568.394C568.507 174.461 568.603 174.501 568.683 174.58C568.762 174.659 568.802 174.756 568.802 174.869V186.123C568.802 186.236 568.762 186.333 568.683 186.412C568.603 186.491 568.507 186.531 568.394 186.531H566.983ZM571.846 186.531C571.733 186.531 571.637 186.491 571.557 186.412C571.478 186.333 571.438 186.236 571.438 186.123V178.099C571.438 177.986 571.478 177.889 571.557 177.81C571.637 177.731 571.733 177.691 571.846 177.691H573.257C573.382 177.691 573.478 177.731 573.546 177.81C573.626 177.889 573.665 177.986 573.665 178.099V186.123C573.665 186.236 573.626 186.333 573.546 186.412C573.478 186.491 573.382 186.531 573.257 186.531H571.846ZM571.778 176.229C571.665 176.229 571.569 176.189 571.489 176.11C571.41 176.031 571.37 175.934 571.37 175.821V174.597C571.37 174.484 571.41 174.387 571.489 174.308C571.569 174.229 571.665 174.189 571.778 174.189H573.325C573.45 174.189 573.552 174.229 573.631 174.308C573.711 174.387 573.75 174.484 573.75 174.597V175.821C573.75 175.934 573.711 176.031 573.631 176.11C573.552 176.189 573.45 176.229 573.325 176.229H571.778ZM579.796 186.701C578.98 186.701 578.26 186.548 577.637 186.242C577.025 185.936 576.543 185.494 576.192 184.916C575.852 184.327 575.665 183.618 575.631 182.791C575.619 182.621 575.614 182.4 575.614 182.128C575.614 181.845 575.619 181.612 575.631 181.431C575.665 180.604 575.852 179.901 576.192 179.323C576.543 178.734 577.025 178.286 577.637 177.98C578.26 177.674 578.98 177.521 579.796 177.521C580.521 177.521 581.139 177.623 581.649 177.827C582.159 178.02 582.578 178.275 582.907 178.592C583.235 178.898 583.479 179.221 583.638 179.561C583.808 179.89 583.898 180.19 583.91 180.462C583.921 180.587 583.881 180.689 583.791 180.768C583.711 180.836 583.615 180.87 583.502 180.87H582.006C581.892 180.87 581.802 180.842 581.734 180.785C581.677 180.728 581.62 180.643 581.564 180.53C581.394 180.077 581.167 179.759 580.884 179.578C580.612 179.385 580.26 179.289 579.83 179.289C579.263 179.289 578.81 179.47 578.47 179.833C578.141 180.184 577.965 180.745 577.943 181.516C577.92 181.947 577.92 182.343 577.943 182.706C577.965 183.488 578.141 184.055 578.47 184.406C578.81 184.757 579.263 184.933 579.83 184.933C580.272 184.933 580.629 184.842 580.901 184.661C581.173 184.468 581.394 184.145 581.564 183.692C581.62 183.579 581.677 183.494 581.734 183.437C581.802 183.38 581.892 183.352 582.006 183.352H583.502C583.615 183.352 583.711 183.392 583.791 183.471C583.881 183.539 583.921 183.635 583.91 183.76C583.898 183.964 583.842 184.196 583.74 184.457C583.649 184.706 583.496 184.967 583.281 185.239C583.077 185.5 582.816 185.743 582.499 185.97C582.181 186.185 581.796 186.361 581.343 186.497C580.901 186.633 580.385 186.701 579.796 186.701ZM586.108 186.531C585.994 186.531 585.898 186.491 585.819 186.412C585.739 186.333 585.7 186.236 585.7 186.123V174.869C585.7 174.756 585.739 174.659 585.819 174.58C585.898 174.501 585.994 174.461 586.108 174.461H587.485C587.609 174.461 587.706 174.501 587.774 174.58C587.853 174.659 587.893 174.756 587.893 174.869V180.683L590.749 177.98C590.862 177.889 590.953 177.821 591.021 177.776C591.1 177.719 591.219 177.691 591.378 177.691H592.959C593.072 177.691 593.163 177.725 593.231 177.793C593.299 177.861 593.333 177.952 593.333 178.065C593.333 178.11 593.321 178.161 593.299 178.218C593.276 178.275 593.231 178.326 593.163 178.371L589.661 181.652L593.588 185.868C593.701 185.981 593.758 186.078 593.758 186.157C593.758 186.27 593.718 186.361 593.639 186.429C593.571 186.497 593.486 186.531 593.384 186.531H591.769C591.599 186.531 591.474 186.508 591.395 186.463C591.327 186.406 591.242 186.333 591.14 186.242L587.893 182.825V186.123C587.893 186.236 587.853 186.333 587.774 186.412C587.706 186.491 587.609 186.531 587.485 186.531H586.108ZM602.461 186.531C601.781 186.531 601.208 186.412 600.744 186.174C600.279 185.936 599.933 185.585 599.707 185.12C599.48 184.644 599.367 184.055 599.367 183.352V179.493H598.024C597.91 179.493 597.814 179.453 597.735 179.374C597.655 179.295 597.616 179.193 597.616 179.068V178.099C597.616 177.986 597.655 177.889 597.735 177.81C597.814 177.731 597.91 177.691 598.024 177.691H599.367V174.869C599.367 174.756 599.401 174.659 599.469 174.58C599.548 174.501 599.65 174.461 599.775 174.461H601.152C601.265 174.461 601.361 174.501 601.441 174.58C601.52 174.659 601.56 174.756 601.56 174.869V177.691H603.685C603.798 177.691 603.894 177.731 603.974 177.81C604.053 177.889 604.093 177.986 604.093 178.099V179.068C604.093 179.193 604.053 179.295 603.974 179.374C603.894 179.453 603.798 179.493 603.685 179.493H601.56V183.182C601.56 183.647 601.639 184.009 601.798 184.27C601.968 184.531 602.257 184.661 602.665 184.661H603.838C603.951 184.661 604.047 184.701 604.127 184.78C604.206 184.859 604.246 184.956 604.246 185.069V186.123C604.246 186.236 604.206 186.333 604.127 186.412C604.047 186.491 603.951 186.531 603.838 186.531H602.461ZM609.664 186.701C608.757 186.701 607.992 186.542 607.369 186.225C606.757 185.908 606.287 185.46 605.958 184.882C605.641 184.304 605.459 183.63 605.414 182.859C605.403 182.655 605.397 182.406 605.397 182.111C605.397 181.816 605.403 181.567 605.414 181.363C605.459 180.581 605.646 179.907 605.975 179.34C606.315 178.762 606.791 178.314 607.403 177.997C608.026 177.68 608.78 177.521 609.664 177.521C610.548 177.521 611.296 177.68 611.908 177.997C612.531 178.314 613.007 178.762 613.336 179.34C613.676 179.907 613.869 180.581 613.914 181.363C613.925 181.567 613.931 181.816 613.931 182.111C613.931 182.406 613.925 182.655 613.914 182.859C613.869 183.63 613.682 184.304 613.353 184.882C613.036 185.46 612.565 185.908 611.942 186.225C611.33 186.542 610.571 186.701 609.664 186.701ZM609.664 185.018C610.265 185.018 610.729 184.831 611.058 184.457C611.387 184.072 611.568 183.511 611.602 182.774C611.613 182.604 611.619 182.383 611.619 182.111C611.619 181.839 611.613 181.618 611.602 181.448C611.568 180.711 611.387 180.156 611.058 179.782C610.729 179.397 610.265 179.204 609.664 179.204C609.063 179.204 608.599 179.397 608.27 179.782C607.941 180.156 607.76 180.711 607.726 181.448C607.715 181.618 607.709 181.839 607.709 182.111C607.709 182.383 607.715 182.604 607.726 182.774C607.76 183.511 607.941 184.072 608.27 184.457C608.599 184.831 609.063 185.018 609.664 185.018ZM491.56 216.701C490.654 216.701 489.889 216.542 489.265 216.225C488.653 215.908 488.183 215.46 487.854 214.882C487.537 214.304 487.356 213.63 487.31 212.859C487.299 212.655 487.293 212.406 487.293 212.111C487.293 211.816 487.299 211.567 487.31 211.363C487.356 210.581 487.543 209.907 487.871 209.34C488.211 208.762 488.687 208.314 489.299 207.997C489.923 207.68 490.676 207.521 491.56 207.521C492.444 207.521 493.192 207.68 493.804 207.997C494.428 208.314 494.904 208.762 495.232 209.34C495.572 209.907 495.765 210.581 495.81 211.363C495.822 211.567 495.827 211.816 495.827 212.111C495.827 212.406 495.822 212.655 495.81 212.859C495.765 213.63 495.578 214.304 495.249 214.882C494.932 215.46 494.462 215.908 493.838 216.225C493.226 216.542 492.467 216.701 491.56 216.701ZM491.56 215.018C492.161 215.018 492.626 214.831 492.954 214.457C493.283 214.072 493.464 213.511 493.498 212.774C493.51 212.604 493.515 212.383 493.515 212.111C493.515 211.839 493.51 211.618 493.498 211.448C493.464 210.711 493.283 210.156 492.954 209.782C492.626 209.397 492.161 209.204 491.56 209.204C490.96 209.204 490.495 209.397 490.166 209.782C489.838 210.156 489.656 210.711 489.622 211.448C489.611 211.618 489.605 211.839 489.605 212.111C489.605 212.383 489.611 212.604 489.622 212.774C489.656 213.511 489.838 214.072 490.166 214.457C490.495 214.831 490.96 215.018 491.56 215.018ZM498.136 219.761C498.023 219.761 497.926 219.721 497.847 219.642C497.768 219.563 497.728 219.466 497.728 219.353V208.099C497.728 207.986 497.768 207.889 497.847 207.81C497.926 207.731 498.023 207.691 498.136 207.691H499.479C499.604 207.691 499.7 207.731 499.768 207.81C499.847 207.889 499.887 207.986 499.887 208.099V208.779C500.159 208.416 500.516 208.116 500.958 207.878C501.4 207.64 501.95 207.521 502.607 207.521C503.208 207.521 503.729 207.617 504.171 207.81C504.613 208.003 504.981 208.28 505.276 208.643C505.571 208.994 505.797 209.414 505.956 209.901C506.115 210.388 506.205 210.927 506.228 211.516C506.239 211.709 506.245 211.907 506.245 212.111C506.245 212.315 506.239 212.519 506.228 212.723C506.217 213.29 506.132 213.817 505.973 214.304C505.814 214.78 505.582 215.199 505.276 215.562C504.981 215.913 504.613 216.191 504.171 216.395C503.729 216.599 503.208 216.701 502.607 216.701C501.995 216.701 501.474 216.593 501.043 216.378C500.612 216.151 500.261 215.857 499.989 215.494V219.353C499.989 219.466 499.949 219.563 499.87 219.642C499.802 219.721 499.706 219.761 499.581 219.761H498.136ZM501.978 214.882C502.465 214.882 502.845 214.78 503.117 214.576C503.389 214.361 503.587 214.083 503.712 213.743C503.837 213.403 503.91 213.029 503.933 212.621C503.944 212.281 503.944 211.941 503.933 211.601C503.91 211.193 503.837 210.819 503.712 210.479C503.587 210.139 503.389 209.867 503.117 209.663C502.845 209.448 502.465 209.34 501.978 209.34C501.513 209.34 501.134 209.448 500.839 209.663C500.556 209.878 500.346 210.156 500.21 210.496C500.085 210.825 500.012 211.165 499.989 211.516C499.978 211.72 499.972 211.935 499.972 212.162C499.972 212.389 499.978 212.61 499.989 212.825C500 213.165 500.08 213.494 500.227 213.811C500.374 214.117 500.59 214.372 500.873 214.576C501.156 214.78 501.525 214.882 501.978 214.882ZM511.961 216.701C510.703 216.701 509.706 216.338 508.969 215.613C508.233 214.888 507.836 213.856 507.779 212.519C507.768 212.406 507.762 212.264 507.762 212.094C507.762 211.913 507.768 211.771 507.779 211.669C507.825 210.808 508.017 210.071 508.357 209.459C508.709 208.836 509.19 208.36 509.802 208.031C510.414 207.691 511.134 207.521 511.961 207.521C512.879 207.521 513.65 207.714 514.273 208.099C514.897 208.473 515.367 209 515.684 209.68C516.002 210.349 516.16 211.125 516.16 212.009V212.366C516.16 212.479 516.121 212.576 516.041 212.655C515.962 212.734 515.86 212.774 515.735 212.774H510.091C510.091 212.774 510.091 212.791 510.091 212.825C510.091 212.859 510.091 212.887 510.091 212.91C510.103 213.307 510.176 213.675 510.312 214.015C510.46 214.344 510.669 214.61 510.941 214.814C511.225 215.018 511.559 215.12 511.944 215.12C512.262 215.12 512.528 215.075 512.743 214.984C512.959 214.882 513.134 214.769 513.27 214.644C513.406 214.519 513.503 214.417 513.559 214.338C513.661 214.202 513.741 214.123 513.797 214.1C513.865 214.066 513.962 214.049 514.086 214.049H515.548C515.662 214.049 515.752 214.083 515.82 214.151C515.9 214.219 515.934 214.304 515.922 214.406C515.911 214.587 515.815 214.808 515.633 215.069C515.463 215.33 515.214 215.585 514.885 215.834C514.557 216.083 514.143 216.293 513.644 216.463C513.157 216.622 512.596 216.701 511.961 216.701ZM510.091 211.346H513.848V211.295C513.848 210.853 513.775 210.468 513.627 210.139C513.48 209.799 513.265 209.538 512.981 209.357C512.698 209.164 512.358 209.068 511.961 209.068C511.565 209.068 511.225 209.164 510.941 209.357C510.658 209.538 510.443 209.799 510.295 210.139C510.159 210.468 510.091 210.853 510.091 211.295V211.346ZM518.373 216.531C518.26 216.531 518.163 216.491 518.084 216.412C518.005 216.333 517.965 216.236 517.965 216.123V208.099C517.965 207.986 518.005 207.889 518.084 207.81C518.163 207.731 518.26 207.691 518.373 207.691H519.767C519.88 207.691 519.977 207.731 520.056 207.81C520.135 207.889 520.175 207.986 520.175 208.099V208.796C520.47 208.433 520.844 208.133 521.297 207.895C521.762 207.646 522.334 207.521 523.014 207.521C523.705 207.521 524.306 207.68 524.816 207.997C525.326 208.303 525.717 208.739 525.989 209.306C526.272 209.873 526.414 210.553 526.414 211.346V216.123C526.414 216.236 526.374 216.333 526.295 216.412C526.216 216.491 526.119 216.531 526.006 216.531H524.51C524.397 216.531 524.3 216.491 524.221 216.412C524.142 216.333 524.102 216.236 524.102 216.123V211.448C524.102 210.791 523.938 210.275 523.609 209.901C523.292 209.527 522.827 209.34 522.215 209.34C521.626 209.34 521.155 209.527 520.804 209.901C520.453 210.275 520.277 210.791 520.277 211.448V216.123C520.277 216.236 520.237 216.333 520.158 216.412C520.079 216.491 519.982 216.531 519.869 216.531H518.373ZM536.121 216.531C535.441 216.531 534.869 216.412 534.404 216.174C533.939 215.936 533.594 215.585 533.367 215.12C533.14 214.644 533.027 214.055 533.027 213.352V209.493H531.684C531.571 209.493 531.474 209.453 531.395 209.374C531.316 209.295 531.276 209.193 531.276 209.068V208.099C531.276 207.986 531.316 207.889 531.395 207.81C531.474 207.731 531.571 207.691 531.684 207.691H533.027V204.869C533.027 204.756 533.061 204.659 533.129 204.58C533.208 204.501 533.31 204.461 533.435 204.461H534.812C534.925 204.461 535.022 204.501 535.101 204.58C535.18 204.659 535.22 204.756 535.22 204.869V207.691H537.345C537.458 207.691 537.555 207.731 537.634 207.81C537.713 207.889 537.753 207.986 537.753 208.099V209.068C537.753 209.193 537.713 209.295 537.634 209.374C537.555 209.453 537.458 209.493 537.345 209.493H535.22V213.182C535.22 213.647 535.299 214.009 535.458 214.27C535.628 214.531 535.917 214.661 536.325 214.661H537.498C537.611 214.661 537.708 214.701 537.787 214.78C537.866 214.859 537.906 214.956 537.906 215.069V216.123C537.906 216.236 537.866 216.333 537.787 216.412C537.708 216.491 537.611 216.531 537.498 216.531H536.121ZM539.839 216.531C539.726 216.531 539.629 216.491 539.55 216.412C539.471 216.333 539.431 216.236 539.431 216.123V204.869C539.431 204.756 539.471 204.659 539.55 204.58C539.629 204.501 539.726 204.461 539.839 204.461H541.352C541.477 204.461 541.573 204.501 541.641 204.58C541.72 204.659 541.76 204.756 541.76 204.869V208.745C542.066 208.382 542.44 208.088 542.882 207.861C543.324 207.634 543.868 207.521 544.514 207.521C545.205 207.521 545.806 207.68 546.316 207.997C546.837 208.303 547.24 208.739 547.523 209.306C547.806 209.873 547.948 210.553 547.948 211.346V216.123C547.948 216.236 547.908 216.333 547.829 216.412C547.75 216.491 547.653 216.531 547.54 216.531H546.01C545.897 216.531 545.8 216.491 545.721 216.412C545.642 216.333 545.602 216.236 545.602 216.123V211.448C545.602 210.791 545.438 210.275 545.109 209.901C544.792 209.527 544.327 209.34 543.715 209.34C543.126 209.34 542.65 209.527 542.287 209.901C541.936 210.275 541.76 210.791 541.76 211.448V216.123C541.76 216.236 541.72 216.333 541.641 216.412C541.573 216.491 541.477 216.531 541.352 216.531H539.839ZM553.913 216.701C552.655 216.701 551.658 216.338 550.921 215.613C550.185 214.888 549.788 213.856 549.731 212.519C549.72 212.406 549.714 212.264 549.714 212.094C549.714 211.913 549.72 211.771 549.731 211.669C549.777 210.808 549.969 210.071 550.309 209.459C550.661 208.836 551.142 208.36 551.754 208.031C552.366 207.691 553.086 207.521 553.913 207.521C554.831 207.521 555.602 207.714 556.225 208.099C556.849 208.473 557.319 209 557.636 209.68C557.954 210.349 558.112 211.125 558.112 212.009V212.366C558.112 212.479 558.073 212.576 557.993 212.655C557.914 212.734 557.812 212.774 557.687 212.774H552.043C552.043 212.774 552.043 212.791 552.043 212.825C552.043 212.859 552.043 212.887 552.043 212.91C552.055 213.307 552.128 213.675 552.264 214.015C552.412 214.344 552.621 214.61 552.893 214.814C553.177 215.018 553.511 215.12 553.896 215.12C554.214 215.12 554.48 215.075 554.695 214.984C554.911 214.882 555.086 214.769 555.222 214.644C555.358 214.519 555.455 214.417 555.511 214.338C555.613 214.202 555.693 214.123 555.749 214.1C555.817 214.066 555.914 214.049 556.038 214.049H557.5C557.614 214.049 557.704 214.083 557.772 214.151C557.852 214.219 557.886 214.304 557.874 214.406C557.863 214.587 557.767 214.808 557.585 215.069C557.415 215.33 557.166 215.585 556.837 215.834C556.509 216.083 556.095 216.293 555.596 216.463C555.109 216.622 554.548 216.701 553.913 216.701ZM552.043 211.346H555.8V211.295C555.8 210.853 555.727 210.468 555.579 210.139C555.432 209.799 555.217 209.538 554.933 209.357C554.65 209.164 554.31 209.068 553.913 209.068C553.517 209.068 553.177 209.164 552.893 209.357C552.61 209.538 552.395 209.799 552.247 210.139C552.111 210.468 552.043 210.853 552.043 211.295V211.346ZM564.227 216.531C564.113 216.531 564.017 216.491 563.938 216.412C563.858 216.333 563.819 216.236 563.819 216.123V204.869C563.819 204.756 563.858 204.659 563.938 204.58C564.017 204.501 564.113 204.461 564.227 204.461H565.604C565.728 204.461 565.825 204.501 565.893 204.58C565.972 204.659 566.012 204.756 566.012 204.869V210.683L568.868 207.98C568.981 207.889 569.072 207.821 569.14 207.776C569.219 207.719 569.338 207.691 569.497 207.691H571.078C571.191 207.691 571.282 207.725 571.35 207.793C571.418 207.861 571.452 207.952 571.452 208.065C571.452 208.11 571.44 208.161 571.418 208.218C571.395 208.275 571.35 208.326 571.282 208.371L567.78 211.652L571.707 215.868C571.82 215.981 571.877 216.078 571.877 216.157C571.877 216.27 571.837 216.361 571.758 216.429C571.69 216.497 571.605 216.531 571.503 216.531H569.888C569.718 216.531 569.593 216.508 569.514 216.463C569.446 216.406 569.361 216.333 569.259 216.242L566.012 212.825V216.123C566.012 216.236 565.972 216.333 565.893 216.412C565.825 216.491 565.728 216.531 565.604 216.531H564.227ZM576.541 216.701C575.283 216.701 574.286 216.338 573.549 215.613C572.813 214.888 572.416 213.856 572.359 212.519C572.348 212.406 572.342 212.264 572.342 212.094C572.342 211.913 572.348 211.771 572.359 211.669C572.405 210.808 572.597 210.071 572.937 209.459C573.289 208.836 573.77 208.36 574.382 208.031C574.994 207.691 575.714 207.521 576.541 207.521C577.459 207.521 578.23 207.714 578.853 208.099C579.477 208.473 579.947 209 580.264 209.68C580.582 210.349 580.74 211.125 580.74 212.009V212.366C580.74 212.479 580.701 212.576 580.621 212.655C580.542 212.734 580.44 212.774 580.315 212.774H574.671C574.671 212.774 574.671 212.791 574.671 212.825C574.671 212.859 574.671 212.887 574.671 212.91C574.683 213.307 574.756 213.675 574.892 214.015C575.04 214.344 575.249 214.61 575.521 214.814C575.805 215.018 576.139 215.12 576.524 215.12C576.842 215.12 577.108 215.075 577.323 214.984C577.539 214.882 577.714 214.769 577.85 214.644C577.986 214.519 578.083 214.417 578.139 214.338C578.241 214.202 578.321 214.123 578.377 214.1C578.445 214.066 578.542 214.049 578.666 214.049H580.128C580.242 214.049 580.332 214.083 580.4 214.151C580.48 214.219 580.514 214.304 580.502 214.406C580.491 214.587 580.395 214.808 580.213 215.069C580.043 215.33 579.794 215.585 579.465 215.834C579.137 216.083 578.723 216.293 578.224 216.463C577.737 216.622 577.176 216.701 576.541 216.701ZM574.671 211.346H578.428V211.295C578.428 210.853 578.355 210.468 578.207 210.139C578.06 209.799 577.845 209.538 577.561 209.357C577.278 209.164 576.938 209.068 576.541 209.068C576.145 209.068 575.805 209.164 575.521 209.357C575.238 209.538 575.023 209.799 574.875 210.139C574.739 210.468 574.671 210.853 574.671 211.295V211.346ZM583.778 219.761C583.687 219.761 583.608 219.727 583.54 219.659C583.472 219.591 583.438 219.512 583.438 219.421C583.438 219.376 583.438 219.33 583.438 219.285C583.449 219.251 583.472 219.206 583.506 219.149L584.832 216.004L581.568 208.303C581.522 208.19 581.5 208.11 581.5 208.065C581.511 207.963 581.551 207.878 581.619 207.81C581.687 207.731 581.772 207.691 581.874 207.691H583.251C583.387 207.691 583.489 207.725 583.557 207.793C583.625 207.861 583.676 207.935 583.71 208.014L585.971 213.573L588.3 208.014C588.334 207.923 588.385 207.85 588.453 207.793C588.521 207.725 588.623 207.691 588.759 207.691H590.119C590.209 207.691 590.289 207.725 590.357 207.793C590.436 207.861 590.476 207.94 590.476 208.031C590.476 208.099 590.453 208.19 590.408 208.303L585.597 219.438C585.551 219.529 585.495 219.602 585.427 219.659C585.359 219.727 585.257 219.761 585.121 219.761H583.778ZM591.351 216.531C591.238 216.531 591.141 216.491 591.062 216.412C590.983 216.333 590.943 216.236 590.943 216.123V214.44C590.943 214.315 590.983 214.213 591.062 214.134C591.141 214.055 591.238 214.015 591.351 214.015H593.051C593.164 214.015 593.261 214.055 593.34 214.134C593.419 214.213 593.459 214.315 593.459 214.44V216.123C593.459 216.236 593.419 216.333 593.34 216.412C593.261 216.491 593.164 216.531 593.051 216.531H591.351Z" fill="white"/>
<path d="M675.225 934.51H688.241V847.874C688.241 815.015 714.983 788.281 747.852 788.281C780.721 788.281 807.463 815.015 807.463 847.874V934.51H820.48V847.874C820.48 807.845 787.899 775.275 747.859 775.275C707.812 775.275 675.238 807.845 675.238 847.874V934.51H675.225Z" fill="#364154"/>
<path d="M301.746 833.273C305.338 833.273 308.254 830.358 308.254 826.767V664.445C308.254 660.854 305.338 657.939 301.746 657.939C298.153 657.939 295.237 660.854 295.237 664.445V826.767C295.237 830.358 298.147 833.273 301.746 833.273Z" fill="#364154"/>
<path d="M702.775 833.273C706.367 833.273 709.283 830.358 709.283 826.767V664.445C709.283 660.854 706.367 657.939 702.775 657.939C699.183 657.939 696.267 660.854 696.267 664.445V826.767C696.273 830.358 699.183 833.273 702.775 833.273Z" fill="#364154"/>
<path d="M272.738 807.248H740.228C743.505 807.248 746.165 804.589 746.165 801.313V773.115C746.165 769.839 743.505 767.18 740.228 767.18H272.738C269.461 767.18 266.801 769.839 266.801 773.115V801.313C266.801 804.589 269.461 807.248 272.738 807.248Z" fill="#B8C1C9"/>
<path d="M289.747 834.914H803.444C807.943 834.914 811.594 831.264 811.594 826.766C811.594 822.269 807.943 818.619 803.444 818.619H289.747V834.914Z" fill="#B8C1C9"/>
<path d="M269.428 759.984H736.918C740.195 759.984 742.855 757.325 742.855 754.049V725.851C742.855 722.575 740.195 719.916 736.918 719.916H269.428C266.151 719.916 263.491 722.575 263.491 725.851V754.049C263.491 757.331 266.151 759.984 269.428 759.984Z" fill="#B8C1C9"/>
<path d="M264.975 711.013H732.465C735.742 711.013 738.402 708.354 738.402 705.078V676.88C738.402 673.603 735.742 670.944 732.465 670.944H264.975C261.698 670.944 259.039 673.603 259.039 676.88V705.078C259.039 708.354 261.698 711.013 264.975 711.013Z" fill="#B8C1C9"/>
<path d="M282.904 934.51H295.92V847.874C295.92 815.015 322.662 788.281 355.531 788.281C388.4 788.281 415.142 815.015 415.142 847.874V934.51H428.159V847.874C428.159 807.845 395.578 775.275 355.538 775.275C315.491 775.275 282.917 807.845 282.917 847.874V934.51H282.904Z" fill="#364154"/>
<path d="M524.04 660.545C525.715 658.149 527.856 653.757 529.852 645.642C529.616 646.443 526.542 656.586 521.617 661.826C503.511 669.973 470.465 709.47 469.998 716.377C469.998 716.377 457.836 687.273 457.665 687.128C457.665 687.128 441.385 657.932 467.949 646.916C481.452 641.322 482.929 631.612 483.757 623.11C484.584 614.601 494.231 578.964 517.348 592.377C517.348 592.377 521.578 591.248 523.311 591.8C523.311 591.8 521.821 591.846 520.967 592.489C523.85 592.778 527.895 593.638 530.995 596.113C539.211 602.678 539.959 649.982 524.04 660.545Z" fill="#131F2D"/>
<path d="M520.96 653.75C520.96 653.75 525.964 673.985 526.135 681.252C526.188 683.577 531.474 688.527 533.733 695.493C536.367 703.627 535.434 723.638 538.79 742.54C539.585 747.017 540.99 753.885 545.298 755.336C553.744 758.172 561.473 761.783 562.885 762.446C565.282 763.575 562.465 762.741 564.573 763.477C568.31 764.796 570.024 759.058 570.477 756.143C570.727 754.561 567.89 751.698 560.633 744.825C556.673 741.069 553.626 737.025 553.271 724.387C552.463 695.65 546.493 672.987 541.115 666.106C536.557 660.276 520.96 653.75 520.96 653.75Z" fill="#F8DC7F"/>
<path d="M529.766 903.082C528.722 904.277 528.591 905.616 529.103 907.047C529.103 907.054 529.109 907.06 529.116 907.067C530.075 909.706 533.234 912.661 536.898 915.602C537.365 915.983 537.785 916.324 538.146 916.646C538.245 916.731 538.337 916.81 538.428 916.895C538.501 916.961 538.573 917.027 538.645 917.092C542.067 920.244 540.78 920.966 546.926 927.367C553.934 934.654 558.761 934.786 560.133 934.123C561.296 933.558 558.938 929.691 556.324 925.345C556.199 925.135 556.075 924.925 555.943 924.715C555.595 924.137 555.247 923.552 554.906 922.968C551.839 917.736 552.627 915.287 553.356 907.5C553.947 901.178 563.2 872.166 563.2 872.166L549.77 869.855C549.77 869.855 545.725 892.958 541.272 896.516C538.888 898.414 536.222 898.434 533.93 899.845C533.766 899.944 533.608 900.042 533.45 900.147C532.137 900.994 530.81 901.88 529.766 903.082Z" fill="#FF7955"/>
<path d="M529.766 903.082C528.722 904.277 528.591 905.616 529.103 907.047C529.103 907.054 529.109 907.06 529.116 907.067C530.285 909.706 533.365 912.641 536.911 915.576C537.378 915.963 537.785 916.311 538.146 916.646C538.245 916.731 538.337 916.81 538.428 916.895C538.501 916.961 538.573 917.027 538.645 917.092C542.067 920.244 540.78 920.966 546.926 927.367C553.934 934.655 558.761 934.786 560.133 934.123C561.296 933.558 558.938 929.691 556.324 925.345C554.958 924.846 548.621 922.272 543.833 916.14C539.611 910.757 536.8 903.837 533.923 899.832C533.759 899.931 533.602 900.029 533.444 900.134C532.137 900.994 530.81 901.88 529.766 903.082Z" fill="#131F2D"/>
<path d="M638.113 895.309C638.941 899.451 644.851 898.762 651.451 897.147C658.051 895.532 656.482 897.449 665.879 896.412C675.277 895.374 678.121 891.868 678.41 890.47C678.666 889.229 674.023 888.796 669.045 888.218C668.421 888.146 667.79 888.074 667.16 887.995C661.538 887.292 657.421 883.662 652.311 880.681C647.471 877.858 640.254 866.362 640.254 866.362L627.369 867.38C627.369 867.38 634.133 877.648 636.747 882.112C638.284 884.738 638.205 888.211 638.015 890.89C637.909 892.361 637.818 893.851 638.113 895.309Z" fill="#FF7955"/>
<path d="M651.451 897.147C658.051 895.532 656.482 897.449 665.879 896.412C675.277 895.374 678.121 891.869 678.41 890.47C678.666 889.229 674.023 888.796 669.045 888.218L668.999 888.317C668.999 888.317 663.364 892.308 655.543 892.499C649.166 892.656 642.415 890.825 638.015 890.897C637.916 892.354 637.818 893.845 638.113 895.302C638.941 899.452 644.851 898.762 651.451 897.147Z" fill="#131F2D"/>
<path d="M588.727 812.933L560.954 887.653C560.954 887.653 556.685 888.067 552.594 886.885C548.831 885.802 544.516 882.952 544.516 882.952C544.516 882.952 551.405 811.206 564.034 796.283C576.67 781.36 588.727 812.933 588.727 812.933Z" fill="#131F2D"/>
<path d="M478.877 782.7C478.877 782.7 558.682 755.723 576.479 761.461C594.277 767.199 647.714 873.485 647.714 873.485C647.714 873.485 646.513 875.087 643.216 876.322C640.155 877.47 632.741 877.398 632.741 877.398C632.741 877.398 584.518 836.076 578.771 824.022C573.032 811.968 570.733 800.492 564.993 801.641C559.253 802.79 490.928 829.767 475.429 813.695C459.93 797.623 463.982 776.745 463.982 776.745L478.877 782.7Z" fill="#364154"/>
<path d="M505.415 663.453C511.102 666.434 520.073 664.143 520.001 664.09C519.062 663.375 519.738 659.068 520.763 654.597C520.828 654.314 520.887 654.032 520.96 653.75C522.148 648.688 523.665 643.698 523.665 643.698L506.131 636.017L505.093 635.557C505.001 635.964 504.909 636.371 504.817 636.759C501.77 649.679 498.06 651.957 496.398 653.743C494.106 656.192 500.063 660.643 505.415 663.453Z" fill="#FF7955"/>
<path d="M504.817 636.759C506.755 642.983 510.826 650.507 521.085 653.205C522.273 648.143 523.659 643.692 523.659 643.692L506.124 636.01L505.087 635.551C505.001 635.965 504.909 636.372 504.817 636.759Z" fill="#EF6343"/>
<path d="M503.747 632.839C503.747 632.839 499.754 623.556 499.616 616.137C499.524 610.839 505.185 592.174 523.935 597.977C523.935 597.977 529.418 599.415 534.094 603.788C537.811 607.261 542.855 614.292 533.484 629.878L530.843 635.229L503.747 632.839Z" fill="#131F2D"/>
<path d="M529.964 696.379C534.764 711.196 538.258 746.42 540.353 750.956C543.223 757.174 558.045 761.572 560.633 761.329C556.068 751.593 548.766 754.16 545.725 741.837C539.985 718.569 531.185 692.295 531.185 692.295L529.964 696.379Z" fill="#EBD281"/>
<path d="M525.537 647.276C525.537 647.276 501.363 643.836 503.741 628.815C506.118 613.8 504.594 603.243 520.132 604.805C535.671 606.368 537.752 612.572 538.179 617.778C538.606 622.985 531.888 647.788 525.537 647.276Z" fill="#FF7955"/>
<path d="M531.172 606.191C531.172 606.191 521.761 622.755 511.221 623.747C500.674 624.738 496.714 621.324 496.714 621.324C496.714 621.324 497.305 612.585 500.634 602.074C500.628 602.068 527.527 597.012 531.172 606.191Z" fill="#131F2D"/>
<path d="M529.307 607.359C529.307 607.359 533.609 612.08 534.206 616.091C534.797 620.103 534.088 628.06 536.426 628.158C536.426 628.158 543.308 616.978 538.797 609.316C534.009 601.188 529.307 607.359 529.307 607.359Z" fill="#131F2D"/>
<path d="M459.635 779.102C459.622 779.45 459.622 779.791 459.635 780.126C459.668 781.236 459.839 782.24 460.154 783.127C461.316 786.35 464.587 787.46 469.059 787.237C469.657 787.21 470.28 787.158 470.917 787.079C481.235 785.878 496.569 778.951 507.615 774.158C524.46 766.858 532.111 773.719 537.477 769.077C538.107 768.525 538.508 767.908 538.731 767.147C538.783 766.976 538.829 766.799 538.862 766.608C539.966 760.66 532.788 747.168 541.305 706.142C544.681 689.873 520.96 653.744 520.96 653.744C520.96 653.744 518.583 663.979 497.863 652.28C497.732 652.207 482.561 650.277 474.805 664.977C466.255 681.193 467.706 714.959 470.116 725.056C472.783 736.23 467.706 750.425 463.726 762.446C461.592 768.893 459.773 774.71 459.635 779.102Z" fill="#F8DC7F"/>
<path d="M459.635 779.102C459.622 779.45 459.622 779.791 459.635 780.126C459.668 781.235 459.839 782.24 460.154 783.126C461.316 786.35 464.587 787.459 469.059 787.236C469.657 787.21 470.28 787.157 470.917 787.078C481.235 785.877 496.569 778.951 507.615 774.158C524.46 766.857 531.848 773.56 537.621 769.444C539.21 768.308 539.112 765.741 538.895 763.548C529.694 758.467 507.024 763.666 517.604 741.193C522.996 729.737 495.873 697.186 488.478 709.647C477.314 726.034 466.997 685.237 465.657 681.83C469.079 692.938 468.862 750.431 463.713 762.445C461.592 768.892 459.773 774.709 459.635 779.102Z" fill="#EBD281"/>
<path d="M561.946 761.165C561.946 761.165 561.506 756.333 565.676 755.329C569.847 754.318 578.522 757.495 579.106 763.66C579.691 769.825 563.384 760.259 561.946 761.165Z" fill="#FF7955"/>
<path d="M557.684 709.825L569.085 712.91C569.466 713.015 569.853 712.792 569.958 712.411L575.849 690.674C575.954 690.293 575.731 689.905 575.35 689.8L563.949 686.708C563.568 686.603 563.181 686.826 563.076 687.207L557.185 708.945C557.08 709.332 557.303 709.726 557.684 709.825Z" fill="#131F2D"/>
<path d="M560.646 710.632L570.989 713.436C571.659 713.619 572.349 713.219 572.533 712.549L578.134 691.875C578.318 691.205 577.918 690.516 577.248 690.332L566.904 687.529C566.234 687.345 565.545 687.745 565.361 688.415L559.759 709.089C559.582 709.759 559.976 710.448 560.646 710.632Z" fill="#131F2D"/>
<path d="M551.819 712.116C551.819 712.116 553.717 705.853 558.249 703.811C562.787 701.776 566.675 703.122 567.404 704.487C568.133 705.846 568.513 710.856 565.689 713.318C562.866 715.786 552.647 719.738 552.647 719.738L551.819 712.116Z" fill="#FF7955"/>
<path d="M484.577 655.181C484.577 655.181 469.295 662.364 465.848 673.669C460.994 689.584 489.831 732.862 502.736 736.618C517.946 741.043 556.115 719.495 556.115 719.495C556.115 719.495 554.814 714.604 551.82 712.122C548.825 709.634 515.706 717.755 513.762 716.797C512.784 716.311 500.319 701.473 496.95 685.953C493.653 670.774 499.452 654.925 498.723 652.772C497.252 648.412 484.577 655.181 484.577 655.181Z" fill="#F8DC7F"/>
<path d="M537.569 713.541C537.569 713.541 517.046 722.719 506.328 707.126C496.779 693.031 496.779 693.031 496.779 693.031C496.779 693.031 515.962 715.294 537.569 713.541Z" fill="#EBD281"/>
<path d="M521.295 638.249L529.333 639.667C529.333 639.66 525.262 643.304 521.295 638.249Z" fill="white"/>
<path d="M219.511 553.974H223.13L223.099 553.689L222.006 544.073C221.967 543.765 221.705 543.531 221.393 543.531C221.354 543.531 221.318 543.535 221.276 543.539C221.073 543.562 220.885 543.652 220.741 543.781C220.569 543.937 220.456 544.155 220.428 544.401L219.511 553.974Z" fill="#657285"/>
<path d="M222.779 551.793L222.907 551.797L222.006 544.073C221.967 543.765 221.705 543.531 221.393 543.531C221.354 543.531 221.319 543.535 221.276 543.539C221.241 543.566 221.209 543.597 221.182 543.629C221.022 543.8 220.928 544.023 220.924 544.272L220.87 549.822C220.862 550.887 221.713 551.761 222.779 551.793Z" fill="#657285"/>
<path d="M224.18 596.757H217.204V903.678H224.18V596.757Z" fill="#657285"/>
<path d="M224.18 596.757H220.959V903.678H224.18V596.757Z" fill="#657285"/>
<path d="M231.804 854.698H209.588V935.905H231.804V854.698Z" fill="#657285"/>
<path d="M231.804 854.698H218.562V935.905H231.804V854.698Z" fill="#657285"/>
<path d="M208.554 558.603C208.554 562.396 214.269 565.467 221.319 565.467C221.857 565.467 222.384 565.451 222.907 565.412C229.208 564.995 234.083 562.103 234.083 558.599C234.083 555.098 229.204 552.21 222.907 551.789C222.388 551.754 221.857 551.734 221.319 551.734C214.269 551.742 208.554 554.813 208.554 558.603Z" fill="#657285"/>
<path d="M209.611 602.81H231.827L239.658 565.225H202.979L209.611 602.81Z" fill="#657285"/>
<path d="M241.641 562.396H201V566.002H241.641V562.396Z" fill="#657285"/>
<path d="M228.161 854.697H213.968L216.045 848.418C216.228 847.86 216.751 847.486 217.341 847.486H223.992C224.715 847.486 225.363 847.919 225.64 848.582L228.161 854.697Z" fill="#657285"/>
<path d="M215.08 558.275H215.174C215.393 555.359 218.516 552.881 222.907 551.792C229.009 552.198 233.775 554.918 234.072 558.275H236.141L239.045 562.396H241.641V566.002H216.091V562.396H212.324L215.08 558.275Z" fill="#657285"/>
<path d="M237.035 567.059H205.708L211.825 600.839H229.817L237.035 567.059Z" fill="#D5D6DA"/>
<path d="M233.24 559.008C233.24 559.008 230.855 553.814 226.143 553.97C226.143 553.97 229.141 556.628 228.868 559.008C228.591 561.389 233.24 559.008 233.24 559.008Z" fill="#657285"/>
<path d="M203.596 562.396H239.045L236.141 558.275H206.352L203.596 562.396Z" fill="#657285"/>
<path d="M234.954 568.238H227.775L225.683 599.782H227.775L234.954 568.238Z" fill="#EAEAEA"/>
<rect x="176" y="934.531" width="649" height="2" fill="#364154"/>
<path d="M249.5 455.531C233.833 394.364 249.9 265.331 439.5 238.531" stroke="black" stroke-linecap="round" stroke-dasharray="10 20"/>
<path d="M752 419.031C733.667 484.364 655.1 605.231 487.5 566.031" stroke="black" stroke-linecap="round" stroke-dasharray="10 20"/>
<circle cx="295.5" cy="295.031" r="20.5" fill="#F8DC7F"/>
<circle cx="664.5" cy="533.031" r="20.5" fill="#51AB86"/>
</svg>
